<svg width="777" height="1208" viewBox="0 0 777 1208" fill="none" xmlns="http://www.w3.org/2000/svg">
<g clip-path="url(#clip0_90_454)">
<rect width="776.25" height="1207.5" fill="white"/>
<path d="M-194.95 215.864C-187.239 219.719 -181.456 232.25 -181.456 238.033C-181.456 254.42 -178.123 260.068 -166.033 261.167C-155.43 262.131 -142.746 254.111 -136.152 241.889C-130.422 231.267 -130.369 218.755 -134.224 211.044C-137.779 203.935 -151.959 193.144 -150.611 179.235C-149.718 170.02 -140.008 158.03 -140.008 158.03C-140.008 158.03 -139.581 172.667 -134.224 181.163C-128.643 190.016 -118.802 195.622 -114.946 200.441C-110.244 206.32 -104.344 218.46 -101.452 218.755C-93.7406 219.543 -90.8489 205.261 -91.8128 193.694C-93.011 179.316 -102.065 168.588 -101.452 154.174C-100.535 132.622 -84.1016 123.329 -74.4626 109.835C-65.9185 97.8727 -65.7875 73.2064 -65.7875 73.2064C-65.7875 73.2064 -53.3386 91.0656 -52.2929 105.015C-50.8556 124.189 -70.607 128.149 -70.607 151.282C-70.607 178.28 -60.7853 177.131 -53.2568 193.694C-48.4373 204.297 -48.4373 227.43 -31.0871 232.25C-13.7369 237.069 -0.242265 222.636 -0.242265 204.297C-0.242265 187.911 -7.95348 175.38 -7.95348 175.38C-7.95348 175.38 11.0859 182.6 18.0718 193.694C27.178 208.155 19.0357 228.394 23.8552 238.997C27.5709 247.172 35.1209 251.299 44.0972 251.528C50.5274 251.692 54.7429 249.089 59.5196 244.781C66.24 238.72 67.2308 234.178 65.303 224.539C63.4574 215.311 61.2405 208.93 65.303 200.441C69.5931 191.477 85.5449 185.019 85.5449 185.019C85.5449 185.019 75.9059 199.477 76.8698 211.044C77.3901 217.288 85.7327 225.13 94.22 228.394C106.751 233.214 112.534 241.889 114.462 261.167C131.812 255.384 145.307 211.044 143.379 193.694C153.394 202.213 158.801 212.008 156.874 224.539C153.359 247.383 160.75 274.67 183.863 274.662C196.153 274.657 206.748 272.236 213.744 262.131C222.419 249.6 210.827 230.963 222.419 218.755C228.914 211.915 239.778 215.802 243.625 207.189C247.8 197.838 242.656 189.833 235.913 182.127C229.166 174.416 222.419 168.633 222.419 168.633C222.419 168.633 247.828 172.378 257.119 185.019C267.528 199.181 261.939 212.972 264.83 229.358C266.833 240.706 274.784 244.412 285.072 249.6C283.145 203.333 320.737 194.658 320.737 194.658C320.737 194.658 304.35 219.719 326.52 236.106C340.015 239.961 348.83 233.73 358.329 224.539C371.328 211.961 360.52 191.814 369.896 178.272C378.571 165.741 397.849 164.777 397.849 164.777C397.849 164.777 379.535 181.163 383.39 196.586C387.433 212.757 404.517 222.319 420.982 219.719C439.296 216.828 443.152 203.333 442.188 186.947C441.474 174.805 444.609 170.885 452.791 161.885C462.43 151.282 473.033 151.439 473.033 139.715C473.033 125.257 473.002 123.267 468.213 113.69C464.358 105.979 458.574 97.3039 458.574 97.3039C458.574 97.3039 486.759 109.416 491.347 130.077C495.684 149.608 482.672 164.777 482.672 186.947C482.672 197.574 485.522 206.011 491.347 214.9C496.4 222.611 503.878 223.575 508.697 222.611V1444.32H-194.95V215.864Z" fill="#FF9FB7" stroke="#FF9FB7" stroke-width="3.8556" stroke-linecap="round" stroke-linejoin="round"/>
<path d="M509.05 222.87C516.761 226.725 522.544 239.256 522.544 245.039C522.544 261.425 525.877 267.074 537.967 268.173C548.57 269.137 561.254 261.117 567.848 248.895C573.578 238.273 573.631 225.761 569.776 218.05C566.221 210.941 552.041 200.15 553.389 186.241C554.282 177.026 563.992 165.036 563.992 165.036C563.992 165.036 564.419 179.672 569.776 188.169C575.357 197.022 585.198 202.628 589.054 207.447C593.756 213.326 599.656 225.466 602.548 225.761C610.259 226.549 613.151 212.267 612.187 200.7C610.989 186.322 601.935 175.594 602.548 161.18C603.465 139.628 619.898 130.335 629.537 116.84C638.082 104.879 638.212 80.2122 638.212 80.2122C638.212 80.2122 650.661 98.0714 651.707 112.021C653.144 131.194 633.393 135.155 633.393 158.288C633.393 185.285 643.215 184.137 650.743 200.7C655.563 211.303 655.563 234.436 672.913 239.256C690.263 244.075 703.758 229.642 703.758 211.303C703.758 194.916 696.047 182.386 696.047 182.386C696.047 182.386 715.086 189.606 722.072 200.7C731.178 215.161 723.036 235.4 727.855 246.003C731.571 254.177 739.121 258.304 748.097 258.534C754.527 258.698 758.743 256.095 763.52 251.787C770.24 245.725 771.231 241.184 769.303 231.545C767.457 222.317 765.24 215.936 769.303 207.447C773.593 198.483 789.545 192.025 789.545 192.025C789.545 192.025 779.906 206.483 780.87 218.05C781.39 224.293 789.733 232.136 798.22 235.4C810.751 240.22 816.534 248.895 818.462 268.173C835.812 262.389 849.307 218.05 847.379 200.7C857.394 209.219 862.801 219.014 860.874 231.545C857.359 254.389 864.75 281.676 887.863 281.667C900.153 281.663 910.748 279.242 917.744 269.137C926.419 256.606 914.827 237.969 926.419 225.761C932.914 218.92 943.778 222.808 947.625 214.194C951.8 204.844 946.656 196.839 939.913 189.133C933.166 181.422 926.419 175.638 926.419 175.638C926.419 175.638 951.828 179.383 961.119 192.025C971.528 206.186 965.939 219.978 968.83 236.364C970.833 247.711 978.784 251.418 989.072 256.606C987.145 210.339 1024.74 201.664 1024.74 201.664C1024.74 201.664 1008.35 226.725 1030.52 243.111C1044.01 246.967 1052.83 240.736 1062.33 231.545C1075.33 218.967 1064.52 198.82 1073.9 185.277C1082.57 172.747 1101.85 171.783 1101.85 171.783C1101.85 171.783 1083.53 188.169 1087.39 203.592C1091.43 219.763 1108.52 229.325 1124.98 226.725C1143.3 223.833 1147.15 210.339 1146.19 193.952C1145.47 181.811 1148.61 177.891 1156.79 168.891C1166.43 158.288 1177.03 158.445 1177.03 146.721C1177.03 132.263 1177 130.272 1172.21 120.696C1168.36 112.985 1162.57 104.31 1162.57 104.31C1162.57 104.31 1190.76 116.422 1195.35 137.082C1199.68 156.614 1186.67 171.783 1186.67 193.952C1186.67 204.579 1189.52 213.017 1195.35 221.906C1200.4 229.617 1207.88 230.581 1212.7 229.617V1451.33H509.05V222.87Z" fill="#FF9FB7" stroke="#FF9FB7" stroke-width="3.8556" stroke-linecap="round" stroke-linejoin="round"/>
<path d="M189.527 1108.87V1084.28H194.405V1085.26H192.34V1107.89H194.405V1108.87H189.527ZM206.911 1098.08V1093.88C208.373 1093.38 209.457 1092.71 210.163 1091.86C210.868 1091.02 211.221 1090.03 211.221 1088.9C211.221 1088.12 211.083 1087.45 210.808 1086.88C210.55 1086.32 210.154 1085.88 209.621 1085.57C209.104 1085.26 208.468 1085.1 207.711 1085.1C207.074 1085.1 206.524 1085.21 206.059 1085.41C205.612 1085.6 205.388 1085.86 205.388 1086.19C205.388 1086.36 205.449 1086.54 205.569 1086.73C205.707 1086.92 205.836 1087.12 205.956 1087.32C206.094 1087.53 206.163 1087.78 206.163 1088.07C206.163 1088.45 206.033 1088.75 205.775 1088.97C205.535 1089.18 205.19 1089.28 204.743 1089.28C204.227 1089.28 203.797 1089.11 203.453 1088.77C203.126 1088.42 202.963 1087.97 202.963 1087.4C202.963 1086.73 203.186 1086.14 203.633 1085.64C204.081 1085.15 204.7 1084.75 205.492 1084.46C206.283 1084.16 207.186 1084.02 208.201 1084.02C209.371 1084.02 210.395 1084.22 211.272 1084.61C212.15 1084.99 212.821 1085.53 213.285 1086.24C213.767 1086.93 214.008 1087.74 214.008 1088.69C214.008 1090.05 213.483 1091.22 212.433 1092.2C211.401 1093.16 209.887 1093.91 207.892 1094.44V1098.08H206.911ZM207.453 1104.56C206.816 1104.56 206.3 1104.38 205.904 1104.02C205.526 1103.64 205.337 1103.16 205.337 1102.57C205.337 1101.99 205.526 1101.52 205.904 1101.15C206.3 1100.78 206.816 1100.59 207.453 1100.59C208.072 1100.59 208.58 1100.78 208.975 1101.15C209.371 1101.52 209.569 1101.99 209.569 1102.57C209.569 1103.16 209.371 1103.64 208.975 1104.02C208.58 1104.38 208.072 1104.56 207.453 1104.56ZM227.351 1108.87H222.448V1107.89H224.538V1085.26H222.448V1084.28H227.351V1108.87Z" fill="black"/>
<line x1="54.3237" y1="1073.97" x2="50.2754" y2="1081.38" stroke="#D33871" stroke-width="2.76803" stroke-linecap="round"/>
<line x1="57.0847" y1="1073.96" x2="52.4586" y2="1083.13" stroke="#D33871" stroke-width="2.76803" stroke-linecap="round"/>
<line x1="59.6636" y1="1073.28" x2="54.4859" y2="1084.74" stroke="#D33871" stroke-width="2.76803" stroke-linecap="round"/>
<line x1="62.8385" y1="1072.42" x2="57.4459" y2="1084.7" stroke="#D33871" stroke-width="2.76803" stroke-linecap="round"/>
<line x1="66.4011" y1="1071.29" x2="58.95" y2="1086" stroke="#D33871" stroke-width="2.76803" stroke-linecap="round"/>
<line x1="72.3692" y1="1070.57" x2="63.4216" y2="1087.49" stroke="#D33871" stroke-width="2.76803" stroke-linecap="round"/>
<line x1="78.5927" y1="1066.31" x2="67.4067" y2="1088.28" stroke="#D33871" stroke-width="2.76803" stroke-linecap="round"/>
<line x1="82.8774" y1="1064.68" x2="70.094" y2="1089.51" stroke="#D33871" stroke-width="2.76803" stroke-linecap="round"/>
<line x1="87.5437" y1="1064.08" x2="73.1766" y2="1092.04" stroke="#D33871" stroke-width="2.76803" stroke-linecap="round"/>
<line x1="92.0132" y1="1064.32" x2="76.8381" y2="1093.58" stroke="#D33871" stroke-width="2.76803" stroke-linecap="round"/>
<line x1="94.8221" y1="1066.6" x2="79.915" y2="1096.09" stroke="#D33871" stroke-width="2.76803" stroke-linecap="round"/>
<line x1="99.7158" y1="1066.65" x2="87.0072" y2="1092.8" stroke="#D33871" stroke-width="2.76803" stroke-linecap="round"/>
<line x1="102.766" y1="1069.2" x2="88.8696" y2="1096.56" stroke="#D33871" stroke-width="2.76803" stroke-linecap="round"/>
<line x1="106.55" y1="1072.5" x2="91.3249" y2="1096.5" stroke="#D33871" stroke-width="2.76803" stroke-linecap="round"/>
<line x1="108.828" y1="1078.5" x2="92.1826" y2="1099.59" stroke="#D33871" stroke-width="2.76803" stroke-linecap="round"/>
<line x1="107.98" y1="1085.6" x2="95.6962" y2="1102.41" stroke="#D33871" stroke-width="2.76803" stroke-linecap="round"/>
<line x1="106.736" y1="1093.01" x2="100.05" y2="1101.39" stroke="#D33871" stroke-width="2.76803" stroke-linecap="round"/>
<line x1="107.465" y1="1096.58" x2="104.883" y2="1099.73" stroke="#D33871" stroke-width="2.76803" stroke-linecap="round"/>
<line x1="115.245" y1="1091.63" x2="103.638" y2="1106.29" stroke="#D33871" stroke-width="2.76803" stroke-linecap="round"/>
<line x1="123.638" y1="1086.76" x2="104.666" y2="1109.87" stroke="#D33871" stroke-width="2.76803" stroke-linecap="round"/>
<line x1="127.942" y1="1088.09" x2="106.906" y2="1113.44" stroke="#D33871" stroke-width="2.76803" stroke-linecap="round"/>
<line x1="132.507" y1="1091.95" x2="109.462" y2="1116.16" stroke="#D33871" stroke-width="2.76803" stroke-linecap="round"/>
<line x1="137.429" y1="1096.17" x2="111.752" y2="1117.77" stroke="#D33871" stroke-width="2.76803" stroke-linecap="round"/>
<line x1="139.914" y1="1100.49" x2="114.236" y2="1119.92" stroke="#D33871" stroke-width="2.76803" stroke-linecap="round"/>
<line x1="140.669" y1="1105.11" x2="118.79" y2="1119.84" stroke="#D33871" stroke-width="2.76803" stroke-linecap="round"/>
<line x1="140.755" y1="1108.61" x2="121.288" y2="1121.88" stroke="#D33871" stroke-width="2.76803" stroke-linecap="round"/>
<line x1="144.762" y1="1111.96" x2="124.201" y2="1124.39" stroke="#D33871" stroke-width="2.76803" stroke-linecap="round"/>
<line x1="145.733" y1="1117.24" x2="127.795" y2="1126.96" stroke="#D33871" stroke-width="2.76803" stroke-linecap="round"/>
<line x1="148.381" y1="1119.41" x2="133.007" y2="1127.8" stroke="#D33871" stroke-width="2.76803" stroke-linecap="round"/>
<line x1="152.103" y1="1122.51" x2="135.913" y2="1130.3" stroke="#D33871" stroke-width="2.76803" stroke-linecap="round"/>
<line x1="150.104" y1="1129.27" x2="138.527" y2="1134.06" stroke="#D33871" stroke-width="2.76803" stroke-linecap="round"/>
<line x1="150.878" y1="1131.93" x2="139.768" y2="1135.31" stroke="#D33871" stroke-width="2.76803" stroke-linecap="round"/>
<line x1="151.098" y1="1135.84" x2="141.021" y2="1136.84" stroke="#D33871" stroke-width="2.76803" stroke-linecap="round"/>
<line x1="47.2848" y1="1092.22" x2="43.3215" y2="1094.28" stroke="#D33871" stroke-width="2.76803" stroke-linecap="round"/>
<line x1="49.8451" y1="1094.2" x2="43.4083" y2="1098.51" stroke="#D33871" stroke-width="2.76803" stroke-linecap="round"/>
<line x1="54.9186" y1="1098.49" x2="41.9669" y2="1105.2" stroke="#D33871" stroke-width="2.76803" stroke-linecap="round"/>
<line x1="58.3041" y1="1100.98" x2="43.4821" y2="1113.79" stroke="#D33871" stroke-width="2.76803" stroke-linecap="round"/>
<line x1="59.252" y1="1106.16" x2="41.8407" y2="1121.75" stroke="#D33871" stroke-width="2.76803" stroke-linecap="round"/>
<line x1="63.2722" y1="1109.41" x2="46.3941" y2="1125.42" stroke="#D33871" stroke-width="2.76803" stroke-linecap="round"/>
<line x1="66.2229" y1="1111.82" x2="44.7929" y2="1132.45" stroke="#D33871" stroke-width="2.76803" stroke-linecap="round"/>
<line x1="68.3605" y1="1113.38" x2="47.0979" y2="1139.28" stroke="#D33871" stroke-width="2.76803" stroke-linecap="round"/>
<line x1="72.5684" y1="1119.17" x2="50.6298" y2="1142.32" stroke="#D33871" stroke-width="2.76803" stroke-linecap="round"/>
<line x1="76.1481" y1="1123.95" x2="56.9343" y2="1147.36" stroke="#D33871" stroke-width="2.76803" stroke-linecap="round"/>
<line x1="69.7712" y1="1116.75" x2="49.5932" y2="1141.33" stroke="#D33871" stroke-width="2.76803" stroke-linecap="round"/>
<line x1="79.7546" y1="1124.95" x2="58.3714" y2="1151" stroke="#D33871" stroke-width="2.76803" stroke-linecap="round"/>
<line x1="84.1144" y1="1126.13" x2="65.4208" y2="1154.16" stroke="#D33871" stroke-width="2.76803" stroke-linecap="round"/>
<line x1="87.7195" y1="1129" x2="71.0384" y2="1156.49" stroke="#D33871" stroke-width="2.76803" stroke-linecap="round"/>
<line x1="91.4953" y1="1132.15" x2="74.2777" y2="1159.18" stroke="#D33871" stroke-width="2.76803" stroke-linecap="round"/>
<line x1="94.8373" y1="1134.77" x2="79.0942" y2="1163.05" stroke="#D33871" stroke-width="2.76803" stroke-linecap="round"/>
<line x1="100.118" y1="1134.65" x2="85.1143" y2="1162.56" stroke="#D33871" stroke-width="2.76803" stroke-linecap="round"/>
<line x1="103.147" y1="1136.85" x2="91.4844" y2="1167.62" stroke="#D33871" stroke-width="2.76803" stroke-linecap="round"/>
<line x1="107.971" y1="1135.72" x2="95.7223" y2="1165.24" stroke="#D33871" stroke-width="2.76803" stroke-linecap="round"/>
<line x1="111.837" y1="1139.01" x2="99.2612" y2="1165.26" stroke="#D33871" stroke-width="2.76803" stroke-linecap="round"/>
<line x1="115.674" y1="1142.14" x2="104.92" y2="1165.23" stroke="#D33871" stroke-width="2.76803" stroke-linecap="round"/>
<line x1="118.167" y1="1144.35" x2="109.066" y2="1160.38" stroke="#D33871" stroke-width="2.76803" stroke-linecap="round"/>
<line x1="123.12" y1="1143.88" x2="109.611" y2="1164.38" stroke="#D33871" stroke-width="2.76803" stroke-linecap="round"/>
<line x1="128.612" y1="1143.08" x2="113.827" y2="1163.25" stroke="#D33871" stroke-width="2.76803" stroke-linecap="round"/>
<line x1="133.143" y1="1140.06" x2="119.291" y2="1161.25" stroke="#D33871" stroke-width="2.76803" stroke-linecap="round"/>
<line x1="132.407" y1="1145.91" x2="126.417" y2="1157.14" stroke="#D33871" stroke-width="2.76803" stroke-linecap="round"/>
<line x1="137.632" y1="1143.95" x2="132.518" y2="1150.18" stroke="#D33871" stroke-width="2.76803" stroke-linecap="round"/>
<line x1="140.07" y1="1145.72" x2="135.71" y2="1152.6" stroke="#D33871" stroke-width="2.76803" stroke-linecap="round"/>
<path d="M205.166 1153.47L195.798 1128.35H195.179V1147.66C195.179 1148.7 195.282 1149.5 195.489 1150.06C195.721 1150.63 196.172 1151.03 196.843 1151.26C197.54 1151.5 198.559 1151.64 199.901 1151.69V1153.2C199.385 1153.15 198.637 1153.12 197.656 1153.12C196.701 1153.1 195.656 1153.08 194.521 1153.08C193.359 1153.08 192.314 1153.1 191.385 1153.12C190.456 1153.12 189.721 1153.15 189.179 1153.2V1151.69C190.418 1151.64 191.347 1151.5 191.966 1151.26C192.611 1151.03 193.05 1150.64 193.282 1150.1C193.514 1149.53 193.63 1148.75 193.63 1147.74V1130.63C193.63 1129.68 193.527 1128.98 193.321 1128.54C193.114 1128.1 192.689 1127.79 192.043 1127.61C191.424 1127.43 190.469 1127.33 189.179 1127.3V1125.79C189.772 1125.82 190.534 1125.84 191.463 1125.87C192.418 1125.9 193.489 1125.91 194.676 1125.91C195.656 1125.91 196.572 1125.9 197.424 1125.87C198.301 1125.84 199.024 1125.82 199.592 1125.79L207.876 1148.28L206.676 1148.59L214.147 1125.79C215.024 1125.84 215.811 1125.88 216.508 1125.91C217.205 1125.91 217.914 1125.91 218.637 1125.91C219.85 1125.91 220.998 1125.9 222.082 1125.87C223.166 1125.84 224.018 1125.82 224.637 1125.79V1127.3C223.372 1127.33 222.418 1127.43 221.772 1127.61C221.153 1127.77 220.74 1128.08 220.534 1128.54C220.327 1128.98 220.224 1129.68 220.224 1130.63V1148.36C220.224 1149.29 220.327 1149.99 220.534 1150.45C220.766 1150.89 221.192 1151.2 221.811 1151.38C222.43 1151.53 223.372 1151.64 224.637 1151.69V1153.2C223.94 1153.15 223.024 1153.12 221.889 1153.12C220.753 1153.1 219.489 1153.08 218.095 1153.08C216.676 1153.08 215.424 1153.1 214.34 1153.12C213.256 1153.12 212.392 1153.15 211.747 1153.2V1151.69C212.934 1151.64 213.798 1151.53 214.34 1151.38C214.908 1151.2 215.282 1150.88 215.463 1150.41C215.643 1149.95 215.734 1149.26 215.734 1148.36V1127.77H215.114L206.598 1153.47H205.166ZM234.309 1153.74C232.58 1153.74 231.2 1153.29 230.167 1152.39C229.161 1151.48 228.658 1150.26 228.658 1148.71C228.658 1147.52 228.941 1146.55 229.509 1145.81C230.077 1145.06 230.812 1144.46 231.716 1144.03C232.645 1143.56 233.612 1143.19 234.619 1142.9C235.625 1142.59 236.58 1142.32 237.483 1142.09C238.387 1141.83 239.122 1141.52 239.69 1141.16C240.258 1140.8 240.541 1140.33 240.541 1139.77V1137.91C240.541 1136.7 240.193 1135.78 239.496 1135.16C238.825 1134.54 237.806 1134.23 236.438 1134.23C235.458 1134.23 234.632 1134.37 233.961 1134.66C233.316 1134.94 232.993 1135.29 232.993 1135.7C232.993 1135.96 233.083 1136.23 233.264 1136.52C233.445 1136.8 233.625 1137.11 233.806 1137.44C233.987 1137.78 234.077 1138.14 234.077 1138.53C234.077 1139.04 233.87 1139.47 233.458 1139.81C233.07 1140.12 232.554 1140.27 231.909 1140.27C231.161 1140.27 230.554 1140.04 230.09 1139.57C229.651 1139.11 229.432 1138.49 229.432 1137.72C229.432 1136.73 229.793 1135.87 230.516 1135.12C231.238 1134.37 232.232 1133.78 233.496 1133.34C234.761 1132.9 236.18 1132.68 237.754 1132.68C239.406 1132.68 240.748 1132.93 241.78 1133.42C242.812 1133.91 243.561 1134.68 244.025 1135.74C244.516 1136.77 244.761 1138.14 244.761 1139.84V1149.99C244.761 1150.61 244.864 1151.06 245.07 1151.34C245.277 1151.6 245.6 1151.73 246.038 1151.73C246.425 1151.73 246.825 1151.64 247.238 1151.46C247.651 1151.25 248.064 1150.99 248.477 1150.68L249.174 1151.92C248.503 1152.52 247.78 1152.97 247.006 1153.28C246.232 1153.59 245.354 1153.74 244.374 1153.74C241.845 1153.74 240.567 1152.63 240.541 1150.41C239.793 1151.52 238.903 1152.36 237.87 1152.93C236.838 1153.47 235.651 1153.74 234.309 1153.74ZM236.129 1151.23C236.98 1151.23 237.78 1151.02 238.529 1150.61C239.303 1150.19 239.974 1149.57 240.541 1148.75V1141.78C240.283 1142.19 239.858 1142.54 239.264 1142.83C238.696 1143.11 238.051 1143.39 237.329 1143.68C236.632 1143.93 235.948 1144.24 235.277 1144.61C234.606 1144.97 234.051 1145.43 233.612 1146C233.174 1146.54 232.954 1147.25 232.954 1148.13C232.954 1149.11 233.225 1149.87 233.767 1150.41C234.335 1150.95 235.122 1151.23 236.129 1151.23ZM266.342 1153.63V1128.23C266.342 1127.02 266.033 1126.15 265.413 1125.64C264.794 1125.12 263.723 1124.85 262.2 1124.83V1123.28C262.742 1123.3 263.284 1123.33 263.826 1123.35C264.368 1123.38 264.936 1123.39 265.529 1123.39C266.458 1123.39 267.349 1123.35 268.2 1123.28C269.052 1123.17 269.839 1123.03 270.562 1122.85V1148.28C270.562 1149.47 270.858 1150.33 271.452 1150.88C272.071 1151.39 273.155 1151.66 274.704 1151.69V1153.2C274.188 1153.15 273.658 1153.12 273.117 1153.12C272.575 1153.1 272.007 1153.08 271.413 1153.08C270.484 1153.08 269.594 1153.12 268.742 1153.2C267.891 1153.3 267.091 1153.44 266.342 1153.63ZM260.342 1153.74C258.691 1153.74 257.246 1153.33 256.007 1152.5C254.768 1151.68 253.813 1150.49 253.142 1148.94C252.497 1147.39 252.175 1145.55 252.175 1143.41C252.175 1141.19 252.536 1139.28 253.258 1137.68C254.007 1136.08 255.052 1134.85 256.394 1134C257.762 1133.12 259.375 1132.68 261.233 1132.68C262.678 1132.68 263.891 1132.99 264.871 1133.61C265.878 1134.21 266.536 1134.94 266.846 1135.82L266.575 1137.1C266.291 1136.35 265.762 1135.73 264.988 1135.24C264.213 1134.75 263.31 1134.5 262.278 1134.5C260.471 1134.5 259.078 1135.25 258.097 1136.75C257.142 1138.24 256.665 1140.4 256.665 1143.21C256.665 1145.92 257.117 1148.01 258.02 1149.48C258.923 1150.93 260.213 1151.65 261.891 1151.65C263.026 1151.65 264.007 1151.28 264.833 1150.53C265.658 1149.78 266.252 1148.72 266.613 1147.35L266.846 1148.79C266.458 1150.36 265.697 1151.59 264.562 1152.46C263.452 1153.32 262.046 1153.74 260.342 1153.74ZM287.246 1153.74C285.362 1153.74 283.724 1153.33 282.33 1152.5C280.936 1151.65 279.853 1150.44 279.078 1148.86C278.33 1147.29 277.956 1145.43 277.956 1143.29C277.956 1141.1 278.343 1139.21 279.117 1137.64C279.891 1136.04 281.001 1134.81 282.446 1133.96C283.891 1133.11 285.595 1132.68 287.556 1132.68C289.285 1132.68 290.769 1133.02 292.007 1133.69C293.246 1134.33 294.188 1135.35 294.833 1136.75C295.478 1138.14 295.775 1139.95 295.724 1142.17H280.859L280.82 1140.7H291.582C291.607 1139.46 291.478 1138.35 291.195 1137.37C290.911 1136.39 290.446 1135.61 289.801 1135.04C289.182 1134.48 288.382 1134.19 287.401 1134.19C286.162 1134.19 285.066 1134.75 284.111 1135.86C283.182 1136.94 282.627 1138.67 282.446 1141.04L282.524 1141.16C282.498 1141.42 282.472 1141.7 282.446 1142.01C282.446 1142.3 282.446 1142.62 282.446 1142.98C282.446 1145.64 282.962 1147.72 283.995 1149.21C285.053 1150.68 286.549 1151.42 288.485 1151.42C289.775 1151.42 290.911 1151.1 291.891 1150.45C292.898 1149.81 293.736 1148.81 294.407 1147.47L295.762 1148.28C295.066 1150.01 293.969 1151.35 292.472 1152.31C291.001 1153.26 289.259 1153.74 287.246 1153.74ZM321.632 1153.74C320.186 1153.74 318.948 1153.44 317.915 1152.85C316.883 1152.26 316.148 1151.56 315.709 1150.76L316.135 1149.41C316.47 1150.13 317.025 1150.73 317.799 1151.23C318.599 1151.69 319.515 1151.92 320.548 1151.92C322.354 1151.92 323.735 1151.17 324.69 1149.68C325.644 1148.18 326.122 1146 326.122 1143.13C326.122 1140.45 325.696 1138.39 324.844 1136.94C324.019 1135.5 322.806 1134.77 321.206 1134.77C320.122 1134.77 319.103 1135.12 318.148 1135.82C317.193 1136.49 316.548 1137.34 316.212 1138.37L315.941 1137.44C316.328 1136.03 317.141 1134.88 318.38 1134C319.619 1133.12 321.051 1132.68 322.677 1132.68C324.303 1132.68 325.709 1133.11 326.896 1133.96C328.083 1134.81 328.999 1136 329.644 1137.52C330.29 1139.04 330.612 1140.85 330.612 1142.94C330.612 1145.16 330.238 1147.08 329.49 1148.71C328.767 1150.31 327.722 1151.55 326.354 1152.43C325.012 1153.3 323.438 1153.74 321.632 1153.74ZM311.993 1153.82L310.948 1152.58C311.283 1152.24 311.541 1151.91 311.722 1151.57C311.928 1151.24 312.057 1150.84 312.109 1150.37C312.186 1149.91 312.225 1149.35 312.225 1148.71V1128.23C312.225 1127.02 311.928 1126.15 311.335 1125.64C310.741 1125.12 309.67 1124.85 308.122 1124.83V1123.28C308.586 1123.3 309.09 1123.33 309.632 1123.35C310.199 1123.38 310.741 1123.39 311.257 1123.39C312.29 1123.39 313.232 1123.35 314.083 1123.28C314.935 1123.17 315.735 1123.03 316.483 1122.85V1151.34C315.941 1151.47 315.399 1151.65 314.857 1151.88C314.315 1152.12 313.799 1152.4 313.309 1152.73C312.819 1153.07 312.38 1153.43 311.993 1153.82ZM344.417 1154.21L336.946 1137.29C336.559 1136.41 336.056 1135.78 335.437 1135.39C334.817 1134.98 334.017 1134.77 333.037 1134.77V1133.26C333.966 1133.29 334.843 1133.32 335.669 1133.34C336.521 1133.37 337.463 1133.38 338.495 1133.38C339.63 1133.38 340.624 1133.37 341.475 1133.34C342.327 1133.32 343.114 1133.29 343.837 1133.26V1134.77C342.572 1134.8 341.785 1135.04 341.475 1135.51C341.166 1135.97 341.256 1136.76 341.746 1137.87L346.624 1149.02L345.927 1149.29L349.488 1140.31C349.953 1139.12 350.172 1138.13 350.146 1137.33C350.146 1136.53 349.901 1135.92 349.411 1135.51C348.946 1135.07 348.25 1134.83 347.321 1134.77V1133.26C347.966 1133.29 348.533 1133.32 349.024 1133.34C349.514 1133.34 349.992 1133.34 350.456 1133.34C350.946 1133.34 351.463 1133.34 352.004 1133.34C352.701 1133.34 353.424 1133.34 354.172 1133.34C354.921 1133.32 355.566 1133.29 356.108 1133.26V1134.77C355.05 1134.88 354.159 1135.26 353.437 1135.93C352.714 1136.61 352.069 1137.68 351.501 1139.15L345.656 1154.21H344.417ZM338.959 1162.68C337.669 1162.68 336.624 1162.35 335.824 1161.68C335.05 1161.03 334.663 1160.18 334.663 1159.12C334.663 1158.27 334.921 1157.59 335.437 1157.07C335.953 1156.58 336.624 1156.33 337.45 1156.33C338.043 1156.33 338.521 1156.48 338.882 1156.76C339.243 1157.07 339.424 1157.48 339.424 1158C339.424 1158.36 339.359 1158.68 339.23 1158.97C339.101 1159.25 338.972 1159.51 338.843 1159.74C338.714 1160 338.65 1160.26 338.65 1160.52C338.65 1160.95 338.933 1161.17 339.501 1161.17C340.095 1161.17 340.624 1160.97 341.088 1160.55C341.553 1160.14 341.953 1159.52 342.288 1158.7L344.766 1152.5L346.043 1153.2L343.798 1158.85C343.437 1159.73 343.024 1160.45 342.559 1161.02C342.121 1161.59 341.604 1162 341.011 1162.26C340.443 1162.54 339.759 1162.68 338.959 1162.68ZM368.991 1153.2V1151.69C370.282 1151.64 371.236 1151.53 371.856 1151.38C372.501 1151.23 372.927 1150.92 373.133 1150.45C373.34 1149.99 373.443 1149.29 373.443 1148.36V1130.63C373.443 1129.7 373.34 1129.02 373.133 1128.58C372.927 1128.12 372.501 1127.79 371.856 1127.61C371.236 1127.43 370.282 1127.33 368.991 1127.3V1125.79C370.385 1125.82 372.191 1125.84 374.411 1125.87C376.63 1125.9 379.224 1125.91 382.191 1125.91C383.198 1125.91 384.178 1125.91 385.133 1125.91C386.114 1125.88 387.03 1125.87 387.882 1125.87C388.759 1125.84 389.559 1125.82 390.282 1125.79C390.307 1127.11 390.372 1128.41 390.475 1129.7C390.578 1130.99 390.733 1132.28 390.94 1133.57H389.353C389.017 1132.03 388.591 1130.8 388.075 1129.9C387.559 1128.99 386.914 1128.36 386.14 1128C385.366 1127.61 384.385 1127.42 383.198 1127.42H377.933V1148.55C377.933 1149.41 377.998 1150.05 378.127 1150.49C378.282 1150.93 378.591 1151.23 379.056 1151.38C379.52 1151.51 380.191 1151.57 381.069 1151.57H382.54C384.14 1151.57 385.443 1151.34 386.449 1150.88C387.482 1150.39 388.346 1149.56 389.043 1148.4C389.766 1147.24 390.424 1145.63 391.017 1143.56H392.566C392.385 1145.19 392.243 1146.8 392.14 1148.4C392.036 1149.97 391.985 1151.57 391.985 1153.2C390.772 1153.15 389.353 1153.12 387.727 1153.12C386.127 1153.1 384.256 1153.08 382.114 1153.08C379.172 1153.08 376.591 1153.1 374.372 1153.12C372.178 1153.12 370.385 1153.15 368.991 1153.2ZM376.695 1140.15V1138.68H383.546V1140.15H376.695ZM384.978 1145.15C384.875 1143.91 384.669 1142.93 384.359 1142.21C384.049 1141.48 383.598 1140.97 383.004 1140.66C382.436 1140.32 381.675 1140.15 380.72 1140.15V1138.68C382.036 1138.68 383.004 1138.3 383.624 1137.52C384.269 1136.75 384.682 1135.47 384.862 1133.69H386.256C386.153 1135.21 386.101 1136.39 386.101 1137.21C386.127 1138.01 386.14 1138.75 386.14 1139.42C386.14 1139.96 386.14 1140.5 386.14 1141.04C386.166 1141.56 386.191 1142.15 386.217 1142.83C386.269 1143.47 386.32 1144.24 386.372 1145.15H384.978ZM406.478 1153.74C405.343 1153.74 404.401 1153.61 403.652 1153.35C402.904 1153.12 402.284 1152.9 401.794 1152.7C401.304 1152.46 400.878 1152.35 400.517 1152.35C399.923 1152.35 399.484 1152.75 399.201 1153.55H397.73C397.781 1152.9 397.82 1152.22 397.846 1151.5C397.872 1150.75 397.884 1149.91 397.884 1148.98C397.91 1148.05 397.91 1146.99 397.884 1145.81H399.355C399.743 1147.95 400.478 1149.55 401.562 1150.61C402.672 1151.66 404.143 1152.19 405.975 1152.19C407.291 1152.19 408.297 1151.92 408.994 1151.38C409.717 1150.81 410.078 1150.03 410.078 1149.02C410.078 1148.04 409.704 1147.25 408.955 1146.66C408.207 1146.04 406.904 1145.46 405.046 1144.92C402.697 1144.24 400.981 1143.38 399.897 1142.32C398.814 1141.26 398.272 1139.93 398.272 1138.33C398.272 1136.63 398.839 1135.26 399.975 1134.23C401.11 1133.2 402.633 1132.68 404.543 1132.68C405.575 1132.68 406.439 1132.8 407.136 1133.03C407.833 1133.26 408.426 1133.51 408.917 1133.77C409.407 1134 409.846 1134.12 410.233 1134.12C410.491 1134.12 410.71 1134.03 410.891 1133.84C411.072 1133.64 411.226 1133.33 411.355 1132.92H412.865C412.814 1133.46 412.775 1134.04 412.749 1134.66C412.723 1135.25 412.697 1135.95 412.672 1136.75C412.672 1137.52 412.684 1138.49 412.71 1139.65H411.201C410.917 1137.95 410.22 1136.62 409.11 1135.66C408.001 1134.68 406.684 1134.19 405.162 1134.19C404.078 1134.19 403.226 1134.45 402.607 1134.97C402.014 1135.46 401.717 1136.17 401.717 1137.1C401.717 1138.08 402.117 1138.89 402.917 1139.53C403.743 1140.18 405.149 1140.79 407.136 1141.35C409.381 1141.97 411.007 1142.77 412.014 1143.75C413.02 1144.73 413.523 1146.04 413.523 1147.66C413.523 1149.55 412.891 1151.03 411.626 1152.12C410.388 1153.2 408.672 1153.74 406.478 1153.74ZM427.044 1153.74C425.057 1153.74 423.573 1153.19 422.592 1152.08C421.638 1150.94 421.16 1149.24 421.16 1146.97V1134.73H416.631V1133.26H421.16V1127.46C421.96 1127.43 422.709 1127.37 423.405 1127.26C424.102 1127.16 424.76 1127.02 425.38 1126.84V1133.26H431.844V1134.73H425.38V1148.13C425.38 1149.29 425.599 1150.15 426.038 1150.72C426.502 1151.26 427.212 1151.53 428.167 1151.53C429.044 1151.53 429.767 1151.25 430.334 1150.68C430.928 1150.12 431.392 1149.29 431.728 1148.21L432.889 1148.59C432.451 1150.37 431.754 1151.68 430.799 1152.5C429.87 1153.33 428.618 1153.74 427.044 1153.74ZM448.458 1153.2V1151.69C449.516 1151.66 450.239 1151.46 450.626 1151.07C451.039 1150.66 451.245 1149.93 451.245 1148.9V1139.65C451.245 1138.08 450.936 1136.89 450.316 1136.09C449.697 1135.29 448.768 1134.89 447.529 1134.89C446.523 1134.89 445.594 1135.17 444.742 1135.74C443.891 1136.28 443.142 1137.08 442.497 1138.14L442.536 1136.44C443.181 1135.25 444.084 1134.33 445.245 1133.69C446.433 1133.02 447.749 1132.68 449.194 1132.68C451.207 1132.68 452.755 1133.32 453.839 1134.58C454.949 1135.84 455.504 1137.65 455.504 1140V1148.9C455.504 1149.93 455.8 1150.66 456.394 1151.07C456.987 1151.46 458.071 1151.66 459.645 1151.69V1153.2C459.258 1153.17 458.716 1153.16 458.02 1153.16C457.349 1153.13 456.6 1153.11 455.775 1153.08C454.975 1153.06 454.2 1153.04 453.452 1153.04C452.471 1153.04 451.504 1153.07 450.549 1153.12C449.62 1153.15 448.923 1153.17 448.458 1153.2ZM434.368 1153.2V1151.69C435.942 1151.66 437.026 1151.46 437.62 1151.07C438.213 1150.66 438.51 1149.93 438.51 1148.9V1128.23C438.51 1127.02 438.2 1126.17 437.581 1125.68C436.962 1125.16 435.891 1124.88 434.368 1124.83V1123.32C434.91 1123.34 435.452 1123.37 435.994 1123.39C436.536 1123.42 437.091 1123.43 437.658 1123.43C438.587 1123.43 439.478 1123.39 440.329 1123.32C441.181 1123.21 441.981 1123.07 442.729 1122.89V1148.9C442.729 1149.93 442.923 1150.66 443.31 1151.07C443.723 1151.46 444.458 1151.66 445.516 1151.69V1153.2C445 1153.17 444.291 1153.15 443.387 1153.12C442.484 1153.07 441.555 1153.04 440.6 1153.04C439.491 1153.04 438.342 1153.07 437.155 1153.12C435.994 1153.15 435.065 1153.17 434.368 1153.2ZM472.027 1153.74C470.144 1153.74 468.505 1153.33 467.111 1152.5C465.718 1151.65 464.634 1150.44 463.86 1148.86C463.111 1147.29 462.737 1145.43 462.737 1143.29C462.737 1141.1 463.124 1139.21 463.898 1137.64C464.673 1136.04 465.782 1134.81 467.227 1133.96C468.673 1133.11 470.376 1132.68 472.337 1132.68C474.066 1132.68 475.55 1133.02 476.789 1133.69C478.027 1134.33 478.969 1135.35 479.615 1136.75C480.26 1138.14 480.556 1139.95 480.505 1142.17H465.64L465.602 1140.7H476.363C476.389 1139.46 476.26 1138.35 475.976 1137.37C475.692 1136.39 475.227 1135.61 474.582 1135.04C473.963 1134.48 473.163 1134.19 472.182 1134.19C470.944 1134.19 469.847 1134.75 468.892 1135.86C467.963 1136.94 467.408 1138.67 467.227 1141.04L467.305 1141.16C467.279 1141.42 467.253 1141.7 467.227 1142.01C467.227 1142.3 467.227 1142.62 467.227 1142.98C467.227 1145.64 467.744 1147.72 468.776 1149.21C469.834 1150.68 471.331 1151.42 473.266 1151.42C474.556 1151.42 475.692 1151.1 476.673 1150.45C477.679 1149.81 478.518 1148.81 479.189 1147.47L480.544 1148.28C479.847 1150.01 478.75 1151.35 477.253 1152.31C475.782 1153.26 474.04 1153.74 472.027 1153.74ZM484.327 1153.2V1151.69C485.901 1151.66 486.985 1151.46 487.578 1151.07C488.172 1150.66 488.468 1149.93 488.468 1148.9V1138.14C488.468 1136.93 488.146 1136.08 487.501 1135.59C486.881 1135.07 485.823 1134.79 484.327 1134.73V1133.23C484.92 1133.25 485.475 1133.28 485.991 1133.3C486.533 1133.33 487.101 1133.34 487.694 1133.34C489.527 1133.34 491.191 1133.16 492.688 1132.8V1148.67C492.688 1149.75 493.075 1150.53 493.849 1150.99C494.623 1151.43 495.965 1151.66 497.875 1151.69V1153.2C497.41 1153.17 496.778 1153.16 495.978 1153.16C495.178 1153.13 494.314 1153.11 493.385 1153.08C492.456 1153.06 491.539 1153.04 490.636 1153.04C489.372 1153.04 488.146 1153.07 486.959 1153.12C485.797 1153.15 484.92 1153.17 484.327 1153.2ZM499.772 1139.77C499.178 1139.77 498.701 1139.61 498.339 1139.3C497.978 1138.97 497.797 1138.54 497.797 1138.03C497.797 1137.66 497.862 1137.35 497.991 1137.1C498.146 1136.81 498.288 1136.54 498.417 1136.28C498.546 1136.03 498.61 1135.78 498.61 1135.55C498.61 1135.01 498.223 1134.73 497.449 1134.73C496.856 1134.73 496.223 1134.89 495.552 1135.2C494.907 1135.48 494.314 1135.88 493.772 1136.4C493.23 1136.89 492.83 1137.46 492.572 1138.1L492.456 1136.48C493.152 1135.29 494.043 1134.36 495.127 1133.69C496.21 1133.02 497.346 1132.68 498.533 1132.68C499.746 1132.68 500.701 1133.03 501.397 1133.73C502.12 1134.43 502.481 1135.35 502.481 1136.52C502.481 1137.5 502.223 1138.28 501.707 1138.88C501.217 1139.47 500.572 1139.77 499.772 1139.77Z" fill="#1E1D1B"/>
</g>
<defs>
<clipPath id="clip0_90_454">
<rect width="776.25" height="1207.5" fill="white"/>
</clipPath>
</defs>
</svg>
