<svg width="389" height="1208" viewBox="0 0 389 1208" fill="none" xmlns="http://www.w3.org/2000/svg">
<g clip-path="url(#clip0_90_312)">
<rect width="388.125" height="1207.5" fill="white"/>
<path d="M-190.25 224.866C-182.539 228.721 -176.755 241.252 -176.755 247.035C-176.755 263.422 -173.423 269.07 -161.333 270.169C-150.73 271.133 -138.046 263.113 -131.452 250.891C-125.721 240.269 -125.669 227.757 -129.524 220.046C-133.079 212.937 -147.258 202.146 -145.911 188.237C-145.017 179.022 -135.308 167.032 -135.308 167.032C-135.308 167.032 -134.881 181.669 -129.524 190.165C-123.943 199.018 -114.102 204.624 -110.246 209.443C-105.543 215.322 -99.6433 227.462 -96.7516 227.757C-89.0404 228.545 -86.1487 214.263 -87.1126 202.696C-88.3108 188.318 -97.3647 177.59 -96.7516 163.176C-95.835 141.624 -79.4014 132.331 -69.7624 118.836C-61.2183 106.875 -61.0873 82.2083 -61.0873 82.2083C-61.0873 82.2083 -48.6384 100.068 -47.5927 114.017C-46.1554 133.191 -65.9068 137.151 -65.9068 160.284C-65.9068 187.281 -56.0851 186.133 -48.5566 202.696C-43.7371 213.299 -43.7371 236.432 -26.3869 241.252C-9.03668 246.071 4.45793 231.638 4.45793 213.299C4.45793 196.912 -3.25328 184.382 -3.25328 184.382C-3.25328 184.382 15.7861 191.602 22.772 202.696C31.8782 217.157 23.7359 237.396 28.5554 247.999C32.271 256.174 39.8211 260.301 48.7974 260.53C55.2276 260.694 59.4431 258.091 64.2198 253.783C70.9402 247.722 71.931 243.18 70.0032 233.541C68.1576 224.313 65.9407 217.932 70.0032 209.443C74.2932 200.479 90.2451 194.021 90.2451 194.021C90.2451 194.021 80.6061 208.479 81.57 220.046C82.0903 226.289 90.4329 234.132 98.9202 237.396C111.451 242.216 117.234 250.891 119.162 270.169C136.512 264.386 150.007 220.046 148.079 202.696C158.094 211.215 163.502 221.01 161.574 233.541C158.059 256.385 165.45 283.672 188.563 283.664C200.853 283.659 211.448 281.238 218.444 271.133C227.119 258.602 215.528 239.965 227.119 227.757C233.614 220.917 244.479 224.804 248.325 216.19C252.5 206.84 247.357 198.835 240.614 191.129C233.866 183.418 227.119 177.634 227.119 177.634C227.119 177.634 252.528 181.38 261.819 194.021C272.228 208.182 266.639 221.974 269.531 238.36C271.533 249.707 279.484 253.414 289.773 258.602C287.845 212.335 325.437 203.66 325.437 203.66C325.437 203.66 309.051 228.721 331.22 245.108C344.715 248.963 353.53 242.732 363.029 233.541C376.028 220.963 365.22 200.816 374.596 187.274C383.271 174.743 402.549 173.779 402.549 173.779C402.549 173.779 384.235 190.165 388.09 205.588C392.133 221.759 409.217 231.321 425.682 228.721C443.997 225.83 447.852 212.335 446.888 195.949C446.174 183.807 449.31 179.887 457.491 170.887C467.13 160.284 477.733 160.441 477.733 148.717C477.733 134.259 477.702 132.268 472.914 122.692C469.058 114.981 463.275 106.306 463.275 106.306C463.275 106.306 491.459 118.418 496.047 139.079C500.385 158.61 487.372 173.779 487.372 195.949C487.372 206.576 490.223 215.013 496.047 223.902C501.1 231.613 508.578 232.577 513.397 231.613V1453.32H-190.25V224.866Z" fill="#FF9FB7" stroke="#FF9FB7" stroke-width="3.8556" stroke-linecap="round" stroke-linejoin="round"/>
<line x1="0.88793" y1="608.335" x2="-10.0015" y2="631.752" stroke="#D33871" stroke-width="6" stroke-linecap="round"/>
<line x1="7.68455" y1="613.752" x2="-5.63892" y2="631.923" stroke="#D33871" stroke-width="6" stroke-linecap="round"/>
<line x1="-13.6583" y1="661.538" x2="-2.23417" y2="715.809" stroke="#D33871" stroke-width="6" stroke-linecap="round"/>
<line x1="-11.9419" y1="649.616" x2="2.55642" y2="703.865" stroke="#D33871" stroke-width="6" stroke-linecap="round"/>
<line x1="-3.39417" y1="659.476" x2="6.31058" y2="686.052" stroke="#D33871" stroke-width="6" stroke-linecap="round"/>
<line x1="1.10021" y1="647.956" x2="3.83247" y2="665.705" stroke="#D33871" stroke-width="6" stroke-linecap="round"/>
<line x1="7.61193" y1="646.561" x2="12.5362" y2="664.019" stroke="#D33871" stroke-width="6" stroke-linecap="round"/>
<path d="M-441.129 713.093L-812.25 732.626C-812.25 732.626 -499.727 706.582 -499.727 653.41C-499.727 611.827 -581.358 575.553 -616.942 561.716C-626.998 558.171 -633.2 555.746 -633.2 555.746C-633.2 555.746 -626.86 557.86 -616.942 561.716C-578.492 575.271 -483.701 605.201 -463.917 578.535C-438.958 544.895 -542.048 338.716 -542.048 338.716C-542.048 338.716 -432.447 539.134 -386.871 527.533C-341.295 515.931 -333.699 179.199 -333.699 179.199C-333.699 179.199 -328.273 518.55 -285.952 531.873C-243.631 545.196 -127.52 284.459 -127.52 284.459C-127.52 284.459 -236.423 548.15 -209.991 583.96C-185.12 617.658 -56.197 552.383 -41.072 544.564C-40.1285 544.067 -39.6228 543.81 -39.6228 543.81C-39.6228 543.81 -40.1237 544.074 -41.072 544.564C-54.3568 551.562 -154.433 606.006 -151.393 656.665C-148.138 710.923 232.75 713.093 232.75 713.093H-229.524C-229.524 713.093 -236.035 595.897 -333.699 595.897C-441.227 595.897 -441.129 713.093 -441.129 713.093Z" fill="#EB75A0"/>
<path d="M-812.25 732.626L-441.128 713.093C-441.128 713.093 -441.227 595.897 -333.699 595.897C-236.035 595.897 -229.524 713.093 -229.524 713.093H232.75C232.75 713.093 -148.138 710.923 -151.393 656.665C-154.649 602.408 -39.6228 543.81 -39.6228 543.81C-39.6228 543.81 -183.56 619.77 -209.991 583.96C-236.423 548.15 -127.52 284.459 -127.52 284.459C-127.52 284.459 -243.631 545.196 -285.952 531.873C-328.273 518.55 -333.699 179.199 -333.699 179.199C-333.699 179.199 -341.295 515.931 -386.871 527.533C-432.447 539.134 -542.048 338.716 -542.048 338.716C-542.048 338.716 -438.958 544.895 -463.917 578.535C-488.875 612.174 -633.2 555.746 -633.2 555.746C-633.2 555.746 -499.727 600.238 -499.727 653.41C-499.727 706.582 -812.25 732.626 -812.25 732.626Z" stroke="#EB75A0" stroke-width="6.5109" stroke-linejoin="round"/>
</g>
<defs>
<clipPath id="clip0_90_312">
<rect width="388.125" height="1207.5" fill="white"/>
</clipPath>
</defs>
</svg>
