<svg width="777" height="1208" viewBox="0 0 777 1208" fill="none" xmlns="http://www.w3.org/2000/svg">
<g clip-path="url(#clip0_90_2)">
<rect width="776.25" height="1207.5" fill="white"/>
<path d="M140.822 1124.11C138.219 1124.11 135.717 1123.81 133.314 1123.21C128.31 1122.01 124.606 1120.01 122.204 1117.2C119.802 1114.4 118.601 1111.4 118.601 1108.2C118.601 1104.79 119.702 1101.69 121.904 1098.89C124.306 1095.88 127.509 1093.78 131.513 1092.58C133.715 1091.78 136.417 1091.38 139.62 1091.38C146.026 1091.38 152.533 1092.58 159.139 1094.98C165.745 1097.39 171.25 1099.39 175.654 1100.99C183.862 1093.58 191.269 1084.67 197.875 1074.26C204.682 1063.65 210.888 1052.74 216.493 1041.53C222.299 1030.32 227.804 1019.91 233.009 1010.3C244.219 989.484 255.13 972.568 265.74 959.556C276.35 946.544 285.658 936.634 293.666 929.828C288.661 927.826 283.456 926.425 278.051 925.624C272.646 924.623 267.041 924.122 261.235 924.122C248.223 924.122 235.111 926.324 221.898 930.729C208.686 935.133 196.574 941.239 185.564 949.046C174.754 956.853 166.045 965.862 159.439 976.072C151.031 989.484 146.827 1001.9 146.827 1013.31C146.827 1019.31 148.128 1024.42 150.731 1028.62C153.534 1032.62 157.738 1035.23 163.343 1036.43C163.943 1036.63 164.744 1036.73 165.745 1036.73C169.749 1036.73 174.754 1035.43 180.759 1032.83C186.765 1030.22 192.671 1026.42 198.476 1021.41C204.482 1016.41 209.386 1010.4 213.19 1003.4C217.794 994.789 220.096 986.982 220.096 979.975C220.096 974.17 218.795 969.766 216.193 966.763C213.59 963.56 210.387 961.958 206.584 961.958C202.18 961.958 197.075 963.76 191.269 967.363C185.664 970.967 182.061 976.472 180.459 983.879C180.259 984.479 180.159 984.98 180.159 985.38C180.159 985.781 180.159 986.181 180.159 986.581C180.159 988.583 180.659 989.885 181.66 990.485C182.661 990.886 183.762 991.086 184.963 991.086C185.764 991.086 186.465 991.086 187.065 991.086C187.666 990.886 188.066 990.785 188.266 990.785C189.468 990.986 190.068 991.486 190.068 992.287C190.068 992.887 189.468 993.588 188.266 994.389C187.265 994.989 185.964 995.29 184.363 995.29C181.16 995.29 178.457 994.089 176.255 991.686C174.253 989.084 173.653 985.881 174.453 982.077C175.855 974.47 179.558 968.564 185.564 964.36C191.77 959.956 198.376 957.754 205.383 957.754C206.384 957.754 207.284 957.854 208.085 958.054C209.086 958.054 209.987 958.155 210.788 958.355C217.194 959.556 221.898 962.359 224.901 966.763C227.904 970.967 229.405 975.971 229.405 981.777C229.405 987.983 227.904 994.489 224.901 1001.3C221.898 1008.1 217.494 1014.51 211.689 1020.51C206.083 1026.52 199.277 1031.42 191.269 1035.23C183.262 1039.03 174.253 1040.93 164.244 1040.93C154.434 1040.93 146.727 1037.63 141.122 1031.02C135.717 1024.42 133.014 1016.21 133.014 1006.4C133.014 1000.79 133.915 994.989 135.717 988.984C137.518 982.778 140.321 976.572 144.125 970.366C150.931 959.356 160.34 950.147 172.351 942.74C184.363 935.133 197.675 929.427 212.289 925.624C227.103 921.62 241.717 919.618 256.131 919.618C263.538 919.618 270.744 920.219 277.751 921.42C284.758 922.421 291.364 924.022 297.57 926.224C302.174 922.821 307.879 920.019 314.686 917.816C321.492 915.414 327.998 914.213 334.204 914.213C335.205 914.213 336.206 914.213 337.207 914.213C338.208 914.213 339.109 914.313 339.91 914.513C343.914 915.114 345.915 916.315 345.915 918.117C345.915 919.318 344.514 919.918 341.711 919.918C340.31 919.918 339.009 919.818 337.808 919.618C336.807 919.418 335.606 919.318 334.204 919.318C330.601 919.318 326.998 920.119 323.394 921.72C319.791 923.121 315.687 925.724 311.082 929.528C324.495 935.934 334.004 943.14 339.609 951.148C345.415 959.156 348.318 967.263 348.318 975.471C348.318 984.079 345.715 992.487 340.51 1000.69C335.305 1008.9 328.299 1016.31 319.49 1022.92C310.682 1029.32 300.873 1034.43 290.063 1038.23C279.252 1042.03 268.342 1043.94 257.332 1043.94C251.726 1043.94 246.221 1043.34 240.816 1042.13C235.011 1053.34 228.504 1064.46 221.298 1075.47C214.091 1086.28 204.181 1095.98 191.57 1104.59C199.777 1107 207.885 1109.4 215.893 1111.8C224.1 1114.2 232.208 1115.4 240.216 1115.4C242.418 1115.4 244.72 1115.3 247.122 1115.1C249.524 1114.9 251.826 1114.5 254.029 1113.9H254.929C256.731 1113.9 257.632 1114.7 257.632 1116.3C257.632 1117.3 256.631 1118.11 254.629 1118.71C250.425 1119.51 246.321 1120.11 242.317 1120.51C238.314 1120.91 234.41 1121.11 230.606 1121.11C220.797 1121.11 211.789 1120.11 203.581 1118.11C195.373 1116.1 187.866 1113.8 181.06 1111.2C175.054 1114.4 168.448 1117.3 161.241 1119.91C154.234 1122.71 147.428 1124.11 140.822 1124.11ZM251.026 1037.63C260.635 1037.63 270.144 1035.63 279.553 1031.62C288.962 1027.62 297.57 1022.32 305.377 1015.71C313.184 1009.1 319.39 1001.8 323.995 993.788C328.799 985.58 331.201 977.373 331.201 969.165C331.201 962.759 329.3 956.553 325.496 950.547C321.893 944.342 315.887 938.836 307.479 934.032C301.473 940.037 294.166 948.946 285.558 960.757C277.15 972.568 268.042 987.883 258.233 1006.7C255.63 1011.3 253.128 1016.21 250.725 1021.41C248.323 1026.62 245.821 1031.82 243.218 1037.03C244.62 1037.23 245.921 1037.43 247.122 1037.63C248.323 1037.63 249.624 1037.63 251.026 1037.63ZM139.32 1118.71C144.525 1118.71 149.23 1117.61 153.433 1115.4C157.637 1113.4 161.942 1110.8 166.346 1107.6C161.541 1105.79 156.036 1103.99 149.83 1102.19C143.624 1100.39 137.919 1099.69 132.714 1100.09C130.111 1100.29 128.11 1101.29 126.708 1103.09C125.307 1104.89 124.606 1106.9 124.606 1109.1C124.606 1111.1 125.407 1113 127.009 1114.8C128.61 1116.8 131.012 1118.01 134.215 1118.41C135.216 1118.61 136.117 1118.71 136.918 1118.71C137.719 1118.71 138.519 1118.71 139.32 1118.71Z" fill="#1E1D1B"/>
<path d="M274.082 1116.44V1111.85C278.866 1111.77 282.159 1111.14 283.963 1109.97C285.766 1108.71 286.668 1106.52 286.668 1103.38V1070.68C286.668 1066.99 285.688 1064.4 283.728 1062.91C281.846 1061.35 278.63 1060.48 274.082 1060.33V1055.74C275.886 1055.82 277.572 1055.9 279.14 1055.97C280.787 1056.05 282.512 1056.09 284.316 1056.09C289.883 1056.09 294.941 1055.54 299.49 1054.45V1102.67C299.49 1105.97 300.666 1108.32 303.019 1109.73C305.371 1111.06 309.449 1111.77 315.252 1111.85V1116.44C313.84 1116.36 311.919 1116.32 309.488 1116.32C307.057 1116.24 304.43 1116.16 301.607 1116.08C298.784 1116 296 1115.97 293.255 1115.97C289.413 1115.97 285.688 1116.04 282.081 1116.2C278.552 1116.28 275.886 1116.36 274.082 1116.44ZM321.016 1075.62C319.212 1075.62 317.761 1075.15 316.663 1074.21C315.565 1073.19 315.017 1071.89 315.017 1070.33C315.017 1069.23 315.213 1068.29 315.605 1067.5C316.075 1066.64 316.507 1065.82 316.899 1065.03C317.291 1064.25 317.487 1063.5 317.487 1062.8C317.487 1061.15 316.31 1060.33 313.958 1060.33C312.154 1060.33 310.233 1060.8 308.194 1061.74C306.234 1062.6 304.43 1063.82 302.783 1065.39C301.136 1066.87 299.921 1068.6 299.137 1070.56L298.784 1065.62C300.901 1062.01 303.607 1059.19 306.9 1057.15C310.194 1055.11 313.644 1054.09 317.251 1054.09C320.937 1054.09 323.839 1055.15 325.956 1057.27C328.152 1059.39 329.25 1062.21 329.25 1065.74C329.25 1068.72 328.465 1071.11 326.897 1072.91C325.407 1074.72 323.447 1075.62 321.016 1075.62ZM337.041 1116.44V1111.85C341.667 1111.77 344.922 1111.14 346.804 1109.97C348.686 1108.79 349.627 1106.59 349.627 1103.38V1070.68C349.627 1067.07 348.686 1064.48 346.804 1062.91C345 1061.35 341.746 1060.48 337.041 1060.33V1055.74C338.609 1055.82 340.217 1055.9 341.863 1055.97C343.51 1056.05 345.196 1056.09 346.921 1056.09C349.823 1056.09 352.567 1055.97 355.155 1055.74C357.821 1055.43 360.252 1054.99 362.448 1054.45V1103.38C362.448 1106.59 363.35 1108.79 365.154 1109.97C367.036 1111.14 370.329 1111.77 375.034 1111.85V1116.44C373.858 1116.36 372.211 1116.32 370.094 1116.32C368.055 1116.24 365.781 1116.16 363.272 1116.08C360.841 1116 358.449 1115.97 356.096 1115.97C352.489 1115.97 348.843 1116.04 345.157 1116.2C341.55 1116.28 338.844 1116.36 337.041 1116.44ZM355.626 1042.45C353.352 1042.45 351.352 1041.66 349.627 1040.1C347.98 1038.53 347.157 1036.53 347.157 1034.1C347.157 1031.67 347.98 1029.67 349.627 1028.1C351.352 1026.53 353.352 1025.74 355.626 1025.74C357.978 1025.74 359.978 1026.53 361.625 1028.1C363.35 1029.67 364.213 1031.67 364.213 1034.1C364.213 1036.53 363.35 1038.53 361.625 1040.1C359.978 1041.66 357.978 1042.45 355.626 1042.45ZM424.868 1116.44V1111.85C428.162 1111.77 430.397 1111.14 431.573 1109.97C432.828 1108.71 433.455 1106.52 433.455 1103.38V1075.27C433.455 1070.48 432.475 1066.87 430.514 1064.44C428.632 1062.01 425.809 1060.8 422.045 1060.8C418.987 1060.8 416.164 1061.66 413.576 1063.39C410.988 1065.03 408.714 1067.46 406.753 1070.68L406.871 1065.5C408.832 1061.97 411.576 1059.19 415.105 1057.15C418.634 1055.11 422.633 1054.09 427.103 1054.09C433.22 1054.09 437.925 1056.01 441.218 1059.86C444.59 1063.7 446.276 1069.19 446.276 1076.32V1103.38C446.276 1106.52 447.178 1108.71 448.982 1109.97C450.785 1111.14 454.079 1111.77 458.863 1111.85V1116.44C457.686 1116.36 456.04 1116.32 453.922 1116.32C451.883 1116.24 449.609 1116.16 447.1 1116.08C444.669 1116 442.316 1115.97 440.042 1115.97C437.062 1115.97 434.122 1116.04 431.22 1116.2C428.397 1116.28 426.28 1116.36 424.868 1116.44ZM382.052 1116.44V1111.85C386.757 1111.77 390.011 1111.14 391.815 1109.97C393.697 1108.71 394.638 1106.52 394.638 1103.38V1070.68C394.638 1066.99 393.697 1064.4 391.815 1062.91C389.933 1061.35 386.678 1060.48 382.052 1060.33V1055.74C383.62 1055.82 385.228 1055.9 386.874 1055.97C388.521 1056.05 390.246 1056.09 392.05 1056.09C394.951 1056.09 397.657 1055.97 400.166 1055.74C402.754 1055.43 405.185 1054.99 407.459 1054.45V1103.38C407.459 1106.52 408.047 1108.71 409.224 1109.97C410.478 1111.14 412.752 1111.77 416.046 1111.85V1116.44C414.242 1116.36 412.008 1116.28 409.341 1116.2C406.675 1116.04 403.891 1115.97 400.99 1115.97C397.696 1115.97 394.285 1116.04 390.756 1116.2C387.227 1116.28 384.326 1116.36 382.052 1116.44ZM495.609 1118.08C492.159 1118.08 489.297 1117.69 487.023 1116.91C484.748 1116.2 482.866 1115.53 481.376 1114.91C479.886 1114.2 478.593 1113.85 477.495 1113.85C475.691 1113.85 474.358 1115.06 473.495 1117.49H469.025C469.182 1115.53 469.3 1113.46 469.378 1111.26C469.457 1108.99 469.496 1106.44 469.496 1103.61C469.574 1100.79 469.574 1097.58 469.496 1093.97H473.966C475.142 1100.48 477.377 1105.34 480.671 1108.55C484.043 1111.77 488.513 1113.38 494.08 1113.38C498.08 1113.38 501.138 1112.55 503.255 1110.91C505.451 1109.18 506.549 1106.79 506.549 1103.73C506.549 1100.75 505.412 1098.36 503.138 1096.56C500.863 1094.67 496.903 1092.91 491.257 1091.26C484.121 1089.22 478.906 1086.6 475.613 1083.38C472.319 1080.17 470.672 1076.13 470.672 1071.27C470.672 1066.09 472.397 1061.93 475.848 1058.8C479.298 1055.66 483.925 1054.09 489.728 1054.09C492.865 1054.09 495.492 1054.45 497.609 1055.15C499.726 1055.86 501.53 1056.6 503.02 1057.39C504.51 1058.09 505.843 1058.44 507.019 1058.44C507.803 1058.44 508.47 1058.17 509.019 1057.62C509.568 1056.99 510.038 1056.05 510.43 1054.8H515.018C514.861 1056.45 514.744 1058.21 514.665 1060.09C514.587 1061.9 514.508 1064.01 514.43 1066.44C514.43 1068.8 514.469 1071.74 514.547 1075.27H509.96C509.097 1070.09 506.98 1066.05 503.608 1063.15C500.236 1060.17 496.237 1058.68 491.61 1058.68C488.316 1058.68 485.729 1059.46 483.847 1061.03C482.043 1062.52 481.141 1064.68 481.141 1067.5C481.141 1070.48 482.357 1072.95 484.788 1074.91C487.297 1076.87 491.571 1078.72 497.609 1080.44C504.431 1082.32 509.372 1084.75 512.43 1087.73C515.488 1090.71 517.018 1094.67 517.018 1099.61C517.018 1105.34 515.096 1109.85 511.254 1113.14C507.49 1116.44 502.275 1118.08 495.609 1118.08ZM560.76 1118.08C555.035 1118.08 550.055 1116.83 545.821 1114.32C541.586 1111.73 538.293 1108.04 535.94 1103.26C533.666 1098.48 532.529 1092.83 532.529 1086.32C532.529 1079.66 533.705 1073.93 536.058 1069.15C538.41 1064.29 541.782 1060.56 546.174 1057.97C550.565 1055.39 555.741 1054.09 561.701 1054.09C566.955 1054.09 571.464 1055.11 575.228 1057.15C578.992 1059.11 581.854 1062.21 583.815 1066.44C585.775 1070.68 586.677 1076.17 586.52 1082.91H541.351L541.233 1078.44H573.934C574.012 1074.68 573.62 1071.31 572.758 1068.33C571.895 1065.35 570.484 1062.99 568.523 1061.27C566.641 1059.54 564.21 1058.68 561.23 1058.68C557.466 1058.68 554.133 1060.37 551.232 1063.74C548.409 1067.03 546.723 1072.29 546.174 1079.5L546.409 1079.85C546.331 1080.64 546.252 1081.5 546.174 1082.44C546.174 1083.3 546.174 1084.28 546.174 1085.38C546.174 1093.46 547.742 1099.77 550.879 1104.32C554.094 1108.79 558.642 1111.02 564.524 1111.02C568.445 1111.02 571.895 1110.04 574.875 1108.08C577.933 1106.12 580.482 1103.1 582.521 1099.03L586.638 1101.5C584.52 1106.75 581.188 1110.83 576.639 1113.73C572.17 1116.63 566.876 1118.08 560.76 1118.08ZM628.079 1118.08C624.628 1118.08 621.766 1117.69 619.492 1116.91C617.218 1116.2 615.336 1115.53 613.846 1114.91C612.356 1114.2 611.062 1113.85 609.964 1113.85C608.16 1113.85 606.827 1115.06 605.965 1117.49H601.495C601.652 1115.53 601.769 1113.46 601.848 1111.26C601.926 1108.99 601.965 1106.44 601.965 1103.61C602.044 1100.79 602.044 1097.58 601.965 1093.97H606.435C607.611 1100.48 609.846 1105.34 613.14 1108.55C616.512 1111.77 620.982 1113.38 626.549 1113.38C630.549 1113.38 633.607 1112.55 635.724 1110.91C637.92 1109.18 639.018 1106.79 639.018 1103.73C639.018 1100.75 637.881 1098.36 635.607 1096.56C633.333 1094.67 629.373 1092.91 623.726 1091.26C616.59 1089.22 611.375 1086.6 608.082 1083.38C604.788 1080.17 603.141 1076.13 603.141 1071.27C603.141 1066.09 604.867 1061.93 608.317 1058.8C611.768 1055.66 616.394 1054.09 622.197 1054.09C625.334 1054.09 627.961 1054.45 630.078 1055.15C632.196 1055.86 633.999 1056.6 635.489 1057.39C636.979 1058.09 638.312 1058.44 639.489 1058.44C640.273 1058.44 640.939 1058.17 641.488 1057.62C642.037 1056.99 642.508 1056.05 642.9 1054.8H647.487C647.33 1056.45 647.213 1058.21 647.134 1060.09C647.056 1061.9 646.977 1064.01 646.899 1066.44C646.899 1068.8 646.938 1071.74 647.017 1075.27H642.429C641.567 1070.09 639.449 1066.05 636.077 1063.15C632.705 1060.17 628.706 1058.68 624.079 1058.68C620.786 1058.68 618.198 1059.46 616.316 1061.03C614.512 1062.52 613.61 1064.68 613.61 1067.5C613.61 1070.48 614.826 1072.95 617.257 1074.91C619.766 1076.87 624.04 1078.72 630.078 1080.44C636.901 1082.32 641.841 1084.75 644.899 1087.73C647.958 1090.71 649.487 1094.67 649.487 1099.61C649.487 1105.34 647.566 1109.85 643.723 1113.14C639.959 1116.44 634.744 1118.08 628.079 1118.08Z" fill="#1E1D1B"/>
<path d="M-184 205.856C-176.289 209.711 -170.505 222.242 -170.505 228.026C-170.505 244.412 -167.173 250.06 -155.083 251.159C-144.48 252.123 -131.796 244.103 -125.202 231.881C-119.471 221.259 -119.419 208.748 -123.274 201.036C-126.829 193.927 -141.008 183.136 -139.661 169.228C-138.767 160.012 -129.058 148.022 -129.058 148.022C-129.058 148.022 -128.631 162.659 -123.274 171.155C-117.693 180.009 -107.852 185.614 -103.996 190.433C-99.2934 196.312 -93.3933 208.452 -90.5016 208.748C-82.7904 209.535 -79.8987 195.253 -80.8626 183.686C-82.0608 169.308 -91.1147 158.581 -90.5016 144.166C-89.585 122.614 -73.1514 113.321 -63.5124 99.8267C-54.9683 87.8649 -54.8373 63.1986 -54.8373 63.1986C-54.8373 63.1986 -42.3884 81.0578 -41.3427 95.0073C-39.9054 114.181 -59.6568 118.141 -59.6568 141.275C-59.6568 168.272 -49.8351 167.123 -42.3066 183.686C-37.4871 194.289 -37.4871 217.423 -20.1369 222.242C-2.78668 227.062 10.7079 212.628 10.7079 194.289C10.7079 177.903 2.99672 165.372 2.99672 165.372C2.99672 165.372 22.0361 172.592 29.022 183.686C38.1282 198.147 29.9859 218.387 34.8054 228.989C38.521 237.164 46.0711 241.291 55.0474 241.52C61.4776 241.685 65.6931 239.081 70.4698 234.773C77.1902 228.712 78.181 224.17 76.2532 214.531C74.4076 205.303 72.1907 198.922 76.2532 190.433C80.5432 181.469 96.4951 175.011 96.4951 175.011C96.4951 175.011 86.8561 189.47 87.82 201.036C88.3403 207.28 96.6829 215.122 105.17 218.386C117.701 223.206 123.484 231.881 125.412 251.159C142.762 245.376 156.257 201.036 154.329 183.686C164.344 192.205 169.752 202 167.824 214.531C164.309 237.375 171.7 264.662 194.813 264.654C207.103 264.649 217.698 262.228 224.694 252.123C233.369 239.592 221.778 220.956 233.369 208.748C239.864 201.907 250.729 205.794 254.575 197.181C258.75 187.831 253.607 179.826 246.864 172.119C240.116 164.408 233.369 158.625 233.369 158.625C233.369 158.625 258.778 162.37 268.069 175.011C278.478 189.173 272.889 202.964 275.781 219.35C277.783 230.698 285.734 234.404 296.023 239.592C294.095 193.325 331.687 184.65 331.687 184.65C331.687 184.65 315.301 209.712 337.47 226.098C350.965 229.953 359.78 223.722 369.279 214.531C382.278 201.953 371.47 181.806 380.846 168.264C389.521 155.733 408.799 154.769 408.799 154.769C408.799 154.769 390.485 171.155 394.34 186.578C398.383 202.749 415.467 212.311 431.932 209.711C450.247 206.82 454.102 193.325 453.138 176.939C452.424 164.797 455.56 160.877 463.741 151.877C473.38 141.274 483.983 141.431 483.983 129.708C483.983 115.249 483.952 113.259 479.164 103.682C475.308 95.9712 469.525 87.2961 469.525 87.2961C469.525 87.2961 497.709 99.4083 502.297 120.069C506.635 139.6 493.622 154.769 493.622 176.939C493.622 187.566 496.473 196.003 502.297 204.892C507.35 212.603 514.828 213.567 519.647 212.603V1434.31H-184V205.856Z" fill="#FF9FB7" stroke="#FF9FB7" stroke-width="3.8556" stroke-linecap="round" stroke-linejoin="round"/>
<path d="M520 212.862C527.711 216.717 533.495 229.248 533.495 235.031C533.495 251.418 536.827 257.066 548.917 258.165C559.52 259.129 572.204 251.109 578.798 238.887C584.529 228.265 584.581 215.753 580.726 208.042C577.171 200.933 562.992 190.142 564.339 176.233C565.233 167.018 574.942 155.028 574.942 155.028C574.942 155.028 575.369 169.665 580.726 178.161C586.307 187.014 596.148 192.62 600.004 197.439C604.707 203.318 610.607 215.458 613.498 215.753C621.21 216.541 624.101 202.259 623.137 190.692C621.939 176.314 612.885 165.587 613.498 151.172C614.415 129.62 630.849 120.327 640.488 106.833C649.032 94.8708 649.163 70.2044 649.163 70.2044C649.163 70.2044 661.612 88.0636 662.657 102.013C664.095 121.187 644.343 125.147 644.343 148.28C644.343 175.278 654.165 174.129 661.693 190.692C666.513 201.295 666.513 224.428 683.863 229.248C701.213 234.068 714.708 219.634 714.708 201.295C714.708 184.909 706.997 172.378 706.997 172.378C706.997 172.378 726.036 179.598 733.022 190.692C742.128 205.153 733.986 225.392 738.805 235.995C742.521 244.17 750.071 248.297 759.047 248.526C765.478 248.69 769.693 246.087 774.47 241.779C781.19 235.718 782.181 231.176 780.253 221.537C778.408 212.309 776.191 205.928 780.253 197.439C784.543 188.475 800.495 182.017 800.495 182.017C800.495 182.017 790.856 196.475 791.82 208.042C792.34 214.286 800.683 222.128 809.17 225.392C821.701 230.212 827.484 238.887 829.412 258.165C846.762 252.382 860.257 208.042 858.329 190.692C868.344 199.211 873.752 209.006 871.824 221.537C868.309 244.381 875.7 271.668 898.813 271.66C911.103 271.655 921.698 269.234 928.694 259.129C937.369 246.598 925.778 227.961 937.369 215.753C943.864 208.913 954.729 212.8 958.575 204.187C962.75 194.836 957.607 186.831 950.864 179.125C944.116 171.414 937.369 165.631 937.369 165.631C937.369 165.631 962.778 169.376 972.069 182.017C982.478 196.179 976.889 209.97 979.781 226.356C981.783 237.704 989.734 241.41 1000.02 246.598C998.095 200.331 1035.69 191.656 1035.69 191.656C1035.69 191.656 1019.3 216.717 1041.47 233.104C1054.96 236.959 1063.78 230.728 1073.28 221.537C1086.28 208.959 1075.47 188.812 1084.85 175.27C1093.52 162.739 1112.8 161.775 1112.8 161.775C1112.8 161.775 1094.48 178.161 1098.34 193.584C1102.38 209.755 1119.47 219.317 1135.93 216.717C1154.25 213.826 1158.1 200.331 1157.14 183.945C1156.42 171.803 1159.56 167.883 1167.74 158.883C1177.38 148.28 1187.98 148.437 1187.98 136.714C1187.98 122.255 1187.95 120.265 1183.16 110.688C1179.31 102.977 1173.52 94.302 1173.52 94.302C1173.52 94.302 1201.71 106.414 1206.3 127.075C1210.63 146.606 1197.62 161.775 1197.62 183.945C1197.62 194.572 1200.47 203.009 1206.3 211.898C1211.35 219.609 1218.83 220.573 1223.65 219.609V1441.32H520V212.862Z" fill="#FF9FB7" stroke="#FF9FB7" stroke-width="3.8556" stroke-linecap="round" stroke-linejoin="round"/>
<path d="M263.778 711.53L-157 733.676C-157 733.676 197.34 704.148 197.34 643.861C197.34 596.714 104.786 555.586 64.4405 539.898C53.0394 535.879 46.0071 533.129 46.0071 533.129C46.0071 533.129 53.1962 535.526 64.4405 539.898C108.036 555.267 215.51 589.201 237.941 558.967C266.239 520.826 149.356 287.06 149.356 287.06C149.356 287.06 273.621 514.294 325.296 501.14C376.97 487.987 385.583 106.199 385.583 106.199C385.583 106.199 391.734 490.956 439.718 506.062C487.701 521.168 619.349 225.543 619.349 225.543C619.349 225.543 495.875 524.517 525.842 565.118C554.042 603.325 700.215 529.316 717.364 520.451C718.433 519.888 719.007 519.596 719.007 519.596C719.007 519.596 718.439 519.895 717.364 520.451C702.301 528.385 588.835 590.113 592.281 647.552C595.972 709.069 1027.82 711.53 1027.82 711.53H503.696C503.696 711.53 496.314 578.652 385.583 578.652C263.667 578.652 263.778 711.53 263.778 711.53Z" fill="#EB75A0"/>
<path d="M-157 733.676L263.778 711.53C263.778 711.53 263.667 578.652 385.583 578.652C496.314 578.652 503.696 711.53 503.696 711.53H1027.82C1027.82 711.53 595.972 709.069 592.281 647.552C588.59 586.034 719.007 519.596 719.007 519.596C719.007 519.596 555.81 605.72 525.842 565.118C495.874 524.517 619.349 225.543 619.349 225.543C619.349 225.543 487.701 521.168 439.718 506.062C391.734 490.956 385.583 106.199 385.583 106.199C385.583 106.199 376.97 487.987 325.296 501.14C273.621 514.294 149.356 287.06 149.356 287.06C149.356 287.06 266.239 520.826 237.941 558.967C209.643 597.107 46.0071 533.129 46.0071 533.129C46.0071 533.129 197.34 583.574 197.34 643.861C197.34 704.148 -157 733.676 -157 733.676Z" stroke="#EB75A0" stroke-width="7.38208" stroke-linejoin="round"/>
<path d="M436.815 826.697C434.341 857.157 407.64 879.843 377.184 877.369C346.727 874.895 324.037 848.198 326.511 817.738C328.985 787.278 355.683 764.591 386.143 767.065C416.603 769.539 439.289 796.24 436.815 826.697Z" fill="#EB75A0" stroke="#EB75A0" stroke-width="5.27244"/>
<path d="M396.088 753.178C396.028 753.918 395.878 754.631 395.647 755.304C394.381 759.029 390.714 761.559 386.617 761.226C382.519 760.894 379.309 757.805 378.66 753.925C378.541 753.223 378.509 752.495 378.569 751.756C378.962 746.918 383.199 743.314 388.04 743.708C392.88 744.101 396.481 748.341 396.088 753.178Z" fill="#EB75A0" stroke="#EB75A0" stroke-width="5.27244"/>
<path d="M348.361 757.793C348.055 761.556 344.755 764.358 340.995 764.052C337.235 763.747 334.43 760.449 334.735 756.686C335.041 752.923 338.338 750.121 342.101 750.426C345.865 750.732 348.666 754.033 348.361 757.793Z" fill="#EB75A0" stroke="#EB75A0" stroke-width="5.27244"/>
<path d="M345.066 746.095C344.949 747.529 343.69 748.596 342.26 748.48C340.829 748.363 339.759 747.107 339.875 745.674C339.992 744.24 341.247 743.172 342.681 743.289C344.115 743.405 345.182 744.664 345.066 746.095Z" fill="#EB75A0" stroke="#EB75A0" stroke-width="5.27244"/>
<path d="M339.215 765.867C339.098 767.301 337.839 768.367 336.409 768.251C334.978 768.135 333.908 766.879 334.024 765.445C334.141 764.011 335.396 762.944 336.83 763.06C338.264 763.177 339.331 764.436 339.215 765.867Z" fill="#EB75A0" stroke="#EB75A0" stroke-width="5.27244"/>
<path d="M437.839 773.876C437.722 775.31 436.463 776.377 435.033 776.261C433.602 776.145 432.532 774.889 432.648 773.455C432.765 772.021 434.02 770.954 435.454 771.07C436.888 771.187 437.955 772.446 437.839 773.876Z" fill="#EB75A0" stroke="#EB75A0" stroke-width="5.27244"/>
<path d="M435.255 753.419C435.139 754.853 433.88 755.92 432.449 755.804C431.018 755.688 429.948 754.432 430.065 752.998C430.181 751.564 431.437 750.497 432.871 750.613C434.305 750.73 435.372 751.989 435.255 753.419Z" fill="#EB75A0" stroke="#EB75A0" stroke-width="5.27244"/>
<path d="M438.55 765.117C438.245 768.88 434.944 771.682 431.184 771.376C427.424 771.071 424.619 767.773 424.925 764.01C425.23 760.247 428.528 757.445 432.291 757.751C436.054 758.056 438.856 761.357 438.55 765.117Z" fill="#EB75A0" stroke="#EB75A0" stroke-width="5.27244"/>
<path d="M379.148 744.618C378.85 748.29 377.377 751.587 375.13 754.167C371.784 758.007 366.722 760.263 361.259 759.82C359.549 759.681 357.925 759.288 356.413 758.685C349.842 756.045 345.453 749.363 346.057 741.93C346.571 735.607 350.566 730.4 356.006 728.04C358.426 726.989 361.13 726.5 363.946 726.729C373.082 727.471 379.89 735.482 379.148 744.618Z" fill="#EB75A0" stroke="#EB75A0" stroke-width="5.27244"/>
<path d="M430.083 748.755C429.473 756.262 423.959 762.192 416.946 763.66C415.421 763.98 413.825 764.089 412.193 763.956C406.756 763.515 402.148 760.502 399.459 756.211C397.63 753.287 396.691 749.769 396.992 746.067C397.734 736.931 405.742 730.123 414.881 730.865C417.499 731.078 419.928 731.889 422.04 733.151C427.3 736.292 430.612 742.237 430.083 748.755Z" fill="#EB75A0" stroke="#EB75A0" stroke-width="5.27244"/>
<path d="M416.946 763.659C415.421 763.979 413.825 764.088 412.193 763.956C406.756 763.514 402.148 760.501 399.459 756.211C398.204 755.87 396.932 755.568 395.647 755.303C394.381 759.028 390.714 761.558 386.617 761.225C382.519 760.892 379.308 757.804 378.66 753.924C377.477 753.971 376.298 754.055 375.13 754.166C371.784 758.006 366.722 760.262 361.259 759.819C359.549 759.68 357.926 759.287 356.413 758.684C333.04 767.993 315.709 789.905 313.534 816.683C310.478 854.31 338.503 887.289 376.13 890.345C413.756 893.401 446.736 865.376 449.792 827.75C451.963 801.021 438.448 776.633 416.946 763.659ZM377.184 877.368C346.723 874.894 324.037 848.197 326.511 817.737C328.985 787.277 355.682 764.591 386.142 767.065C416.602 769.539 439.288 796.239 436.815 826.696C434.341 857.153 407.64 879.842 377.184 877.368Z" fill="#EB75A0" stroke="#EB75A0" stroke-width="5.27244"/>
<path d="M436.815 826.697C434.341 857.157 407.64 879.843 377.184 877.369C346.727 874.895 324.037 848.198 326.511 817.738C328.985 787.278 355.683 764.591 386.143 767.065C416.603 769.539 439.289 796.24 436.815 826.697Z" fill="#EB75A0" stroke="#EB75A0" stroke-width="5.27244"/>
<path d="M422.04 733.151C419.928 731.889 417.499 731.078 414.881 730.865C405.742 730.123 397.733 736.931 396.991 746.067C396.691 749.768 397.63 753.287 399.459 756.211C398.204 755.871 396.932 755.568 395.647 755.304C395.878 754.63 396.027 753.917 396.087 753.178C396.48 748.341 392.877 744.1 388.039 743.707C383.202 743.314 378.961 746.918 378.569 751.755C378.509 752.494 378.541 753.222 378.66 753.924C377.477 753.972 376.298 754.056 375.13 754.166C377.377 751.586 378.85 748.29 379.148 744.617C379.89 735.482 373.082 727.47 363.947 726.728C361.131 726.499 358.426 726.988 356.006 728.039C341.37 713.719 335.121 695.166 340.733 680.505C341.608 678.219 345.202 671.003 352.898 665.743C375.829 650.073 395.585 674.925 395.585 674.925C409.792 665.414 426.377 664.674 437.248 672.594C445.591 678.673 447.672 687.744 448.028 689.432C451.213 704.579 440.937 722.345 422.04 733.151Z" fill="#EB75A0" stroke="#EB75A0" stroke-width="5.27244"/>
<path d="M422.04 733.151C421.913 733.225 421.786 733.3 421.656 733.371Z" fill="#EB75A0"/>
<path d="M422.04 733.151C421.913 733.225 421.786 733.3 421.656 733.371" stroke="#EB75A0" stroke-width="5.27244"/>
<path d="M387.793 690.885C383.175 687.512 378.557 684.143 373.939 680.77C369.14 682.643 364.341 684.516 359.539 686.389C360.854 693.55 362.167 700.713 363.482 707.874C369.338 713.343 375.193 718.811 381.048 724.277C387.303 725.151 393.56 726.028 399.815 726.902C406.508 723.226 413.2 719.55 419.893 715.875C422.686 708.581 425.48 701.284 428.277 693.99C424.438 690.958 420.602 687.93 416.766 684.898C411.297 687.295 405.832 689.692 400.363 692.089C396.176 691.687 391.99 691.288 387.803 690.886L387.793 690.885Z" fill="#EB75A0" stroke="#EB75A0" stroke-width="5.27244"/>
<path d="M387.857 681.631L395.71 675.411L402.456 682.816L411.034 667.675L419.003 672.077L430.175 669.229L430.991 677.46L443.238 679.271L442.118 693.059L448.005 703.007L437.898 708.703L436.429 721.334L424.709 724.464L425.129 731.356L414.141 731.947L405.777 732.397L398.077 740.752L393.167 744.925L389.717 737.134L382.706 745.055L378.52 740.307L378.612 739.171L373.335 729.762L365.013 727.686L357.811 725.889L355.12 718.812L344.639 713.879L345.294 699.074L338.175 688.209L346.98 678.311L347.715 677.806L350.309 667.478L359.95 669.404L362.962 662.464L374.386 670.576L385.404 665.593L387.857 681.631Z" fill="#EB75A0"/>
<path d="M374.386 670.576L373.583 680.471L359.95 669.404M374.386 670.576L387.857 681.631M374.386 670.576L385.404 665.593L387.857 681.631M374.386 670.576L362.962 662.464L359.95 669.404M387.857 681.631L388.417 690.82L400.096 691.768L402.456 682.816M387.857 681.631L395.71 675.411L402.456 682.816M402.456 682.816L419.003 672.077M402.456 682.816L411.034 667.675L419.003 672.077M419.003 672.077L415.924 685.87L431.072 678.283M405.777 732.397L414.141 731.947L425.129 731.356L424.709 724.464L436.429 721.334L437.934 708.394L428.159 694.048L431.072 678.283L430.991 677.46L430.175 669.229L419.003 672.077M437.934 708.394L437.433 708.964M423.898 724.398L420.747 716.958L414.537 727.067M437.433 708.964L423.898 724.398L414.537 727.067M414.537 727.067L409.729 721.941L405.777 732.397M414.537 727.067L414.141 731.947M345.294 699.074L358.579 686.274L359.95 669.404M345.294 699.074L338.175 688.209L346.98 678.311L359.95 669.404M359.95 669.404L350.309 667.478L347.498 678.666M346.98 678.311L347.498 678.666L358.579 686.274M345.294 699.074L355.12 718.812M345.294 699.074L344.639 713.879L355.12 718.812M355.12 718.812L363.219 707.551L365.598 720.48M355.12 718.812L365.598 720.48M355.12 718.812L357.811 725.889L365.013 727.686M365.598 720.48L372.32 716.127L373.335 729.762M365.598 720.48L365.013 727.686M427.186 693.969L442.118 693.059M442.118 693.059L430.991 677.46M442.118 693.059L448.005 703.007L437.433 708.964M442.118 693.059L443.238 679.271L430.991 677.46M389.717 737.134L380.96 724.34L373.335 729.762M389.717 737.134L400.319 727.219L405.777 732.397M389.717 737.134L378.612 739.171M389.717 737.134L398.077 740.752M405.777 732.397L398.077 740.752L393.167 744.925L389.717 737.134M389.717 737.134L382.706 745.055L378.52 740.307L378.612 739.171M373.335 729.762L378.612 739.171M373.335 729.762L365.013 727.686" stroke="#EB75A0" stroke-width="2.63622"/>
<path d="M373 657.055L385.5 668.055H389L396 666.555L406 663.055L414.5 661.555L424.5 666.555L432.5 674.055L436.5 679.055V687.055V697.555L432.5 709.055L424.5 719.555L414.5 729.055L410.5 727.555H401L393.5 729.055L389 734.555L385.5 740.555H382.5H378H373L368.5 734.555V731.055L361 722.055L355 719.555L348 722.055L344.5 719.555L338.5 711.555L331 697.555L329 687.055L332.5 672.555L342 661.555L356.5 654.055L373 657.055Z" fill="#FFD3DE"/>
<path d="M426.814 821.697C424.34 852.157 397.64 874.843 367.183 872.369C336.726 869.895 314.037 843.198 316.511 812.738C318.985 782.278 345.682 759.591 376.142 762.065C406.602 764.539 429.288 791.24 426.814 821.697Z" stroke="#D33871" stroke-width="5.27244"/>
<path d="M386.087 748.178C386.027 748.918 385.878 749.631 385.647 750.304C384.381 754.029 380.714 756.559 376.616 756.226C372.519 755.894 369.308 752.805 368.66 748.925C368.541 748.223 368.508 747.495 368.568 746.756C368.961 741.918 373.199 738.314 378.039 738.708C382.88 739.101 386.48 743.341 386.087 748.178Z" stroke="#D33871" stroke-width="5.27244"/>
<path d="M338.36 752.793C338.055 756.556 334.754 759.358 330.994 759.052C327.234 758.747 324.429 755.449 324.735 751.686C325.04 747.923 328.338 745.121 332.101 745.426C335.864 745.732 338.666 749.033 338.36 752.793Z" stroke="#D33871" stroke-width="5.27244"/>
<path d="M335.065 741.095C334.949 742.529 333.69 743.596 332.259 743.48C330.829 743.363 329.758 742.107 329.875 740.674C329.991 739.24 331.247 738.172 332.681 738.289C334.115 738.405 335.182 739.664 335.065 741.095Z" stroke="#D33871" stroke-width="5.27244"/>
<path d="M329.214 760.867C329.098 762.301 327.839 763.367 326.408 763.251C324.977 763.135 323.907 761.879 324.024 760.445C324.14 759.011 325.396 757.944 326.83 758.06C328.264 758.177 329.331 759.436 329.214 760.867Z" stroke="#D33871" stroke-width="5.27244"/>
<path d="M427.838 768.876C427.722 770.31 426.463 771.377 425.032 771.261C423.601 771.145 422.531 769.889 422.648 768.455C422.764 767.021 424.02 765.954 425.454 766.07C426.888 766.187 427.955 767.446 427.838 768.876Z" stroke="#D33871" stroke-width="5.27244"/>
<path d="M425.255 748.419C425.138 749.853 423.879 750.92 422.449 750.804C421.018 750.688 419.948 749.432 420.064 747.998C420.181 746.564 421.436 745.497 422.87 745.613C424.304 745.73 425.371 746.989 425.255 748.419Z" stroke="#D33871" stroke-width="5.27244"/>
<path d="M428.55 760.117C428.244 763.88 424.944 766.682 421.184 766.376C417.424 766.071 414.619 762.773 414.924 759.01C415.23 755.247 418.527 752.445 422.29 752.751C426.054 753.056 428.855 756.357 428.55 760.117Z" stroke="#D33871" stroke-width="5.27244"/>
<path d="M369.148 739.618C368.849 743.29 367.377 746.587 365.129 749.167C361.784 753.007 356.722 755.263 351.258 754.82C349.549 754.681 347.925 754.288 346.413 753.685C339.841 751.045 335.453 744.363 336.057 736.93C336.57 730.607 340.566 725.4 346.005 723.04C348.425 721.989 351.13 721.5 353.946 721.729C363.082 722.471 369.89 730.482 369.148 739.618Z" stroke="#D33871" stroke-width="5.27244"/>
<path d="M420.082 743.755C419.472 751.262 413.959 757.192 406.946 758.66C405.421 758.98 403.825 759.089 402.193 758.956C396.756 758.515 392.148 755.502 389.459 751.211C387.629 748.287 386.69 744.769 386.991 741.067C387.733 731.931 395.742 725.123 404.88 725.865C407.499 726.078 409.928 726.889 412.039 728.151C417.3 731.292 420.612 737.237 420.082 743.755Z" stroke="#D33871" stroke-width="5.27244"/>
<path d="M406.945 758.659C405.421 758.979 403.825 759.088 402.193 758.956C396.755 758.514 392.147 755.501 389.459 751.211C388.203 750.87 386.931 750.568 385.646 750.303C384.381 754.028 380.714 756.558 376.616 756.225C372.519 755.892 369.308 752.804 368.66 748.924C367.477 748.971 366.298 749.055 365.129 749.166C361.784 753.006 356.722 755.262 351.258 754.819C349.549 754.68 347.925 754.287 346.413 753.684C323.039 762.993 305.709 784.905 303.534 811.683C300.478 849.31 328.503 882.289 366.129 885.345C403.756 888.401 436.735 860.376 439.791 822.75C441.962 796.021 428.447 771.633 406.945 758.659ZM367.183 872.368C336.723 869.894 314.037 843.197 316.511 812.737C318.985 782.277 345.682 759.591 376.142 762.065C406.602 764.539 429.288 791.239 426.814 821.696C424.341 852.153 397.64 874.842 367.183 872.368Z" stroke="#D33871" stroke-width="5.27244"/>
<path d="M426.814 821.697C424.34 852.157 397.64 874.843 367.183 872.369C336.726 869.895 314.037 843.198 316.511 812.738C318.985 782.278 345.682 759.591 376.142 762.065C406.602 764.539 429.288 791.24 426.814 821.697Z" stroke="#D33871" stroke-width="5.27244"/>
<path d="M412.039 728.151C409.927 726.889 407.498 726.078 404.88 725.865C395.741 725.123 387.733 731.931 386.991 741.067C386.69 744.768 387.629 748.287 389.459 751.211C388.203 750.871 386.931 750.568 385.646 750.304C385.877 749.63 386.027 748.917 386.087 748.178C386.48 743.341 382.876 739.1 378.039 738.707C373.202 738.314 368.961 741.918 368.568 746.755C368.508 747.494 368.54 748.222 368.66 748.924C367.477 748.972 366.298 749.056 365.129 749.166C367.377 746.586 368.85 743.29 369.148 739.617C369.89 730.482 363.082 722.47 353.946 721.728C351.13 721.499 348.426 721.988 346.005 723.039C331.369 708.719 325.12 690.166 330.733 675.505C331.607 673.219 335.201 666.003 342.898 660.743C365.828 645.073 385.585 669.925 385.585 669.925C399.792 660.414 416.376 659.674 427.247 667.594C435.591 673.673 437.672 682.744 438.028 684.432C441.213 699.579 430.936 717.345 412.039 728.151Z" stroke="#D33871" stroke-width="5.27244"/>
<path d="M412.039 728.151C411.912 728.225 411.785 728.3 411.655 728.371" stroke="#D33871" stroke-width="5.27244"/>
<line x1="538.979" y1="679.903" x2="545.256" y2="697.639" stroke="#D33871" stroke-width="6" stroke-linecap="round"/>
<line x1="543.031" y1="675.335" x2="551.361" y2="696.623" stroke="#D33871" stroke-width="6" stroke-linecap="round"/>
<line x1="545.721" y1="670.086" x2="557.01" y2="695.658" stroke="#D33871" stroke-width="6" stroke-linecap="round"/>
<line x1="548.995" y1="663.589" x2="561.314" y2="690.72" stroke="#D33871" stroke-width="6" stroke-linecap="round"/>
<line x1="552.391" y1="656.039" x2="565.684" y2="690.169" stroke="#D33871" stroke-width="6" stroke-linecap="round"/>
<line x1="560.028" y1="645.145" x2="574.732" y2="684.989" stroke="#D33871" stroke-width="6" stroke-linecap="round"/>
<line x1="562.195" y1="628.596" x2="581.925" y2="679.594" stroke="#D33871" stroke-width="6" stroke-linecap="round"/>
<line x1="565.83" y1="619.121" x2="587.918" y2="676.98" stroke="#D33871" stroke-width="6" stroke-linecap="round"/>
<line x1="571.742" y1="610.554" x2="596.64" y2="675.637" stroke="#D33871" stroke-width="6" stroke-linecap="round"/>
<line x1="578.734" y1="603.538" x2="604.579" y2="671.871" stroke="#D33871" stroke-width="6" stroke-linecap="round"/>
<line x1="586.644" y1="602.283" x2="613.263" y2="670.511" stroke="#D33871" stroke-width="6" stroke-linecap="round"/>
<line x1="593.956" y1="594.296" x2="618.314" y2="653.963" stroke="#D33871" stroke-width="6" stroke-linecap="round"/>
<line x1="602.651" y1="593.02" x2="627.266" y2="656.451" stroke="#D33871" stroke-width="6" stroke-linecap="round"/>
<line x1="613.687" y1="591.655" x2="630.792" y2="652.317" stroke="#D33871" stroke-width="6" stroke-linecap="round"/>
<line x1="626.941" y1="596.753" x2="637.136" y2="655.457" stroke="#D33871" stroke-width="6" stroke-linecap="round"/>
<line x1="637.384" y1="608.636" x2="646.976" y2="653.833" stroke="#D33871" stroke-width="6" stroke-linecap="round"/>
<line x1="647.766" y1="621.633" x2="651.721" y2="645.149" stroke="#D33871" stroke-width="6" stroke-linecap="round"/>
<line x1="654.73" y1="625.706" x2="656.119" y2="634.731" stroke="#D33871" stroke-width="6" stroke-linecap="round"/>
<line x1="658.064" y1="605.575" x2="665.103" y2="646.478" stroke="#D33871" stroke-width="6" stroke-linecap="round"/>
<line x1="662.428" y1="584.544" x2="672.515" y2="650.068" stroke="#D33871" stroke-width="6" stroke-linecap="round"/>
<line x1="670.979" y1="579.417" x2="681.705" y2="651.648" stroke="#D33871" stroke-width="6" stroke-linecap="round"/>
<line x1="684.093" y1="577.597" x2="689.952" y2="651.443" stroke="#D33871" stroke-width="6" stroke-linecap="round"/>
<line x1="698.309" y1="575.698" x2="695.98" y2="650.041" stroke="#D33871" stroke-width="6" stroke-linecap="round"/>
<line x1="709.107" y1="577.985" x2="703.188" y2="649.118" stroke="#D33871" stroke-width="6" stroke-linecap="round"/>
<line x1="717.841" y1="583.562" x2="709.789" y2="641.502" stroke="#D33871" stroke-width="6" stroke-linecap="round"/>
<line x1="723.74" y1="588.597" x2="716.836" y2="640.396" stroke="#D33871" stroke-width="6" stroke-linecap="round"/>
<line x1="735.186" y1="586.941" x2="725.281" y2="639.304" stroke="#D33871" stroke-width="6" stroke-linecap="round"/>
<line x1="745.309" y1="593.119" x2="734.816" y2="637.168" stroke="#D33871" stroke-width="6" stroke-linecap="round"/>
<line x1="752.796" y1="591.963" x2="743.885" y2="629.809" stroke="#D33871" stroke-width="6" stroke-linecap="round"/>
<line x1="763.411" y1="590.41" x2="752.303" y2="628.717" stroke="#D33871" stroke-width="6" stroke-linecap="round"/>
<line x1="771.603" y1="603.684" x2="762.351" y2="629.95" stroke="#D33871" stroke-width="6" stroke-linecap="round"/>
<line x1="777.138" y1="606.335" x2="766.248" y2="629.752" stroke="#D33871" stroke-width="6" stroke-linecap="round"/>
<line x1="783.935" y1="611.752" x2="770.611" y2="629.923" stroke="#D33871" stroke-width="6" stroke-linecap="round"/>
<line x1="558.689" y1="718.415" x2="556.193" y2="728.104" stroke="#D33871" stroke-width="6" stroke-linecap="round"/>
<line x1="565.73" y1="717.131" x2="563.312" y2="734.231" stroke="#D33871" stroke-width="6" stroke-linecap="round"/>
<line x1="580.292" y1="715.091" x2="572.205" y2="746.479" stroke="#D33871" stroke-width="6" stroke-linecap="round"/>
<line x1="589.389" y1="713.212" x2="588.607" y2="756.682" stroke="#D33871" stroke-width="6" stroke-linecap="round"/>
<line x1="599.318" y1="719.294" x2="599.294" y2="771.136" stroke="#D33871" stroke-width="6" stroke-linecap="round"/>
<line x1="610.62" y1="717.48" x2="612.085" y2="769.069" stroke="#D33871" stroke-width="6" stroke-linecap="round"/>
<line x1="618.95" y1="716.178" x2="621.299" y2="782.085" stroke="#D33871" stroke-width="6" stroke-linecap="round"/>
<line x1="624.667" y1="714.964" x2="635.968" y2="788.381" stroke="#D33871" stroke-width="6" stroke-linecap="round"/>
<line x1="640.426" y1="716.574" x2="646.176" y2="787.034" stroke="#D33871" stroke-width="6" stroke-linecap="round"/>
<line x1="653.588" y1="717.743" x2="663.802" y2="784.098" stroke="#D33871" stroke-width="6" stroke-linecap="round"/>
<line x1="632.305" y1="717.616" x2="643.031" y2="787.295" stroke="#D33871" stroke-width="6" stroke-linecap="round"/>
<line x1="660.554" y1="713.268" x2="671.919" y2="787.101" stroke="#D33871" stroke-width="6" stroke-linecap="round"/>
<line x1="668.934" y1="707.835" x2="687.546" y2="780.157" stroke="#D33871" stroke-width="6" stroke-linecap="round"/>
<line x1="678.993" y1="706.142" x2="699.691" y2="774.347" stroke="#D33871" stroke-width="6" stroke-linecap="round"/>
<line x1="689.751" y1="704.56" x2="708.911" y2="772.985" stroke="#D33871" stroke-width="6" stroke-linecap="round"/>
<line x1="699.007" y1="702.93" x2="722.398" y2="770.757" stroke="#D33871" stroke-width="6" stroke-linecap="round"/>
<line x1="706.606" y1="694.053" x2="730.49" y2="760.12" stroke="#D33871" stroke-width="6" stroke-linecap="round"/>
<line x1="714.702" y1="692.321" x2="748.252" y2="757.104" stroke="#D33871" stroke-width="6" stroke-linecap="round"/>
<line x1="719.964" y1="682.7" x2="750.581" y2="746.601" stroke="#D33871" stroke-width="6" stroke-linecap="round"/>
<line x1="731.1" y1="681.183" x2="755.841" y2="740.799" stroke="#D33871" stroke-width="6" stroke-linecap="round"/>
<line x1="741.919" y1="679.479" x2="764.138" y2="731.418" stroke="#D33871" stroke-width="6" stroke-linecap="round"/>
<line x1="749.257" y1="678.64" x2="762.276" y2="717.434" stroke="#D33871" stroke-width="6" stroke-linecap="round"/>
<line x1="755.801" y1="669.779" x2="769.651" y2="722.424" stroke="#D33871" stroke-width="6" stroke-linecap="round"/>
<line x1="762.592" y1="659.54" x2="774.016" y2="713.811" stroke="#D33871" stroke-width="6" stroke-linecap="round"/>
<line x1="764.308" y1="647.618" x2="778.806" y2="701.867" stroke="#D33871" stroke-width="6" stroke-linecap="round"/>
<line x1="772.856" y1="657.476" x2="782.561" y2="684.052" stroke="#D33871" stroke-width="6" stroke-linecap="round"/>
<line x1="777.35" y1="645.956" x2="780.082" y2="663.705" stroke="#D33871" stroke-width="6" stroke-linecap="round"/>
<line x1="87.2218" y1="1003.6" x2="80.6405" y2="1015.65" stroke="#D33871" stroke-width="4.5" stroke-linecap="round"/>
<line x1="91.7101" y1="1003.58" x2="84.1895" y2="1018.49" stroke="#D33871" stroke-width="4.5" stroke-linecap="round"/>
<line x1="95.9031" y1="1002.47" x2="87.4857" y2="1021.1" stroke="#D33871" stroke-width="4.5" stroke-linecap="round"/>
<line x1="101.064" y1="1001.08" x2="92.2971" y2="1021.04" stroke="#D33871" stroke-width="4.5" stroke-linecap="round"/>
<line x1="106.856" y1="999.235" x2="94.7425" y2="1023.16" stroke="#D33871" stroke-width="4.5" stroke-linecap="round"/>
<line x1="116.559" y1="998.074" x2="102.013" y2="1025.57" stroke="#D33871" stroke-width="4.5" stroke-linecap="round"/>
<line x1="126.676" y1="991.145" x2="108.491" y2="1026.86" stroke="#D33871" stroke-width="4.5" stroke-linecap="round"/>
<line x1="133.641" y1="988.487" x2="112.859" y2="1028.86" stroke="#D33871" stroke-width="4.5" stroke-linecap="round"/>
<line x1="141.228" y1="987.522" x2="117.871" y2="1032.97" stroke="#D33871" stroke-width="4.5" stroke-linecap="round"/>
<line x1="148.494" y1="987.906" x2="123.824" y2="1035.47" stroke="#D33871" stroke-width="4.5" stroke-linecap="round"/>
<line x1="153.06" y1="991.619" x2="128.826" y2="1039.55" stroke="#D33871" stroke-width="4.5" stroke-linecap="round"/>
<line x1="161.015" y1="991.703" x2="140.355" y2="1034.2" stroke="#D33871" stroke-width="4.5" stroke-linecap="round"/>
<line x1="165.975" y1="995.835" x2="143.383" y2="1040.32" stroke="#D33871" stroke-width="4.5" stroke-linecap="round"/>
<line x1="172.127" y1="1001.2" x2="147.375" y2="1040.23" stroke="#D33871" stroke-width="4.5" stroke-linecap="round"/>
<line x1="175.83" y1="1010.96" x2="148.769" y2="1045.25" stroke="#D33871" stroke-width="4.5" stroke-linecap="round"/>
<line x1="174.451" y1="1022.5" x2="154.481" y2="1049.83" stroke="#D33871" stroke-width="4.5" stroke-linecap="round"/>
<line x1="172.429" y1="1034.55" x2="161.56" y2="1048.17" stroke="#D33871" stroke-width="4.5" stroke-linecap="round"/>
<line x1="173.614" y1="1040.36" x2="169.416" y2="1045.47" stroke="#D33871" stroke-width="4.5" stroke-linecap="round"/>
<line x1="186.262" y1="1032.31" x2="167.393" y2="1056.14" stroke="#D33871" stroke-width="4.5" stroke-linecap="round"/>
<line x1="199.907" y1="1024.39" x2="169.063" y2="1061.96" stroke="#D33871" stroke-width="4.5" stroke-linecap="round"/>
<line x1="206.904" y1="1026.55" x2="172.705" y2="1067.76" stroke="#D33871" stroke-width="4.5" stroke-linecap="round"/>
<line x1="214.325" y1="1032.83" x2="176.861" y2="1072.18" stroke="#D33871" stroke-width="4.5" stroke-linecap="round"/>
<line x1="222.327" y1="1039.68" x2="180.583" y2="1074.8" stroke="#D33871" stroke-width="4.5" stroke-linecap="round"/>
<line x1="226.368" y1="1046.71" x2="184.622" y2="1078.29" stroke="#D33871" stroke-width="4.5" stroke-linecap="round"/>
<line x1="227.595" y1="1054.22" x2="192.024" y2="1078.17" stroke="#D33871" stroke-width="4.5" stroke-linecap="round"/>
<line x1="227.733" y1="1059.92" x2="196.085" y2="1081.48" stroke="#D33871" stroke-width="4.5" stroke-linecap="round"/>
<line x1="234.247" y1="1065.36" x2="200.822" y2="1085.57" stroke="#D33871" stroke-width="4.5" stroke-linecap="round"/>
<line x1="235.827" y1="1073.93" x2="206.664" y2="1089.75" stroke="#D33871" stroke-width="4.5" stroke-linecap="round"/>
<line x1="240.131" y1="1077.46" x2="215.138" y2="1091.1" stroke="#D33871" stroke-width="4.5" stroke-linecap="round"/>
<line x1="246.182" y1="1082.51" x2="219.861" y2="1095.17" stroke="#D33871" stroke-width="4.5" stroke-linecap="round"/>
<line x1="242.933" y1="1093.5" x2="224.111" y2="1101.28" stroke="#D33871" stroke-width="4.5" stroke-linecap="round"/>
<line x1="244.191" y1="1097.82" x2="226.128" y2="1103.32" stroke="#D33871" stroke-width="4.5" stroke-linecap="round"/>
<line x1="244.549" y1="1104.19" x2="228.167" y2="1105.8" stroke="#D33871" stroke-width="4.5" stroke-linecap="round"/>
<line x1="75.7779" y1="1033.26" x2="69.3348" y2="1036.61" stroke="#D33871" stroke-width="4.5" stroke-linecap="round"/>
<line x1="79.9406" y1="1036.49" x2="69.4763" y2="1043.5" stroke="#D33871" stroke-width="4.5" stroke-linecap="round"/>
<line x1="88.1888" y1="1043.45" x2="67.1331" y2="1054.38" stroke="#D33871" stroke-width="4.5" stroke-linecap="round"/>
<line x1="93.6925" y1="1047.51" x2="69.5962" y2="1068.34" stroke="#D33871" stroke-width="4.5" stroke-linecap="round"/>
<line x1="95.2335" y1="1055.93" x2="66.9279" y2="1081.27" stroke="#D33871" stroke-width="4.5" stroke-linecap="round"/>
<line x1="101.769" y1="1061.22" x2="74.3304" y2="1087.25" stroke="#D33871" stroke-width="4.5" stroke-linecap="round"/>
<line x1="106.566" y1="1065.14" x2="71.7268" y2="1098.67" stroke="#D33871" stroke-width="4.5" stroke-linecap="round"/>
<line x1="110.041" y1="1067.67" x2="75.4739" y2="1109.78" stroke="#D33871" stroke-width="4.5" stroke-linecap="round"/>
<line x1="116.882" y1="1077.08" x2="81.2162" y2="1114.71" stroke="#D33871" stroke-width="4.5" stroke-linecap="round"/>
<line x1="122.701" y1="1084.86" x2="91.465" y2="1122.91" stroke="#D33871" stroke-width="4.5" stroke-linecap="round"/>
<line x1="112.335" y1="1073.15" x2="79.5314" y2="1113.11" stroke="#D33871" stroke-width="4.5" stroke-linecap="round"/>
<line x1="128.565" y1="1086.47" x2="93.8019" y2="1128.82" stroke="#D33871" stroke-width="4.5" stroke-linecap="round"/>
<line x1="135.652" y1="1088.39" x2="105.262" y2="1133.96" stroke="#D33871" stroke-width="4.5" stroke-linecap="round"/>
<line x1="141.513" y1="1093.07" x2="114.394" y2="1137.75" stroke="#D33871" stroke-width="4.5" stroke-linecap="round"/>
<line x1="147.652" y1="1098.17" x2="119.661" y2="1142.13" stroke="#D33871" stroke-width="4.5" stroke-linecap="round"/>
<line x1="153.085" y1="1102.44" x2="127.491" y2="1148.41" stroke="#D33871" stroke-width="4.5" stroke-linecap="round"/>
<line x1="161.669" y1="1102.24" x2="137.278" y2="1147.62" stroke="#D33871" stroke-width="4.5" stroke-linecap="round"/>
<line x1="166.594" y1="1105.82" x2="147.634" y2="1155.85" stroke="#D33871" stroke-width="4.5" stroke-linecap="round"/>
<line x1="174.436" y1="1103.98" x2="154.523" y2="1151.98" stroke="#D33871" stroke-width="4.5" stroke-linecap="round"/>
<line x1="180.721" y1="1109.34" x2="160.276" y2="1152.02" stroke="#D33871" stroke-width="4.5" stroke-linecap="round"/>
<line x1="186.959" y1="1114.42" x2="169.477" y2="1151.96" stroke="#D33871" stroke-width="4.5" stroke-linecap="round"/>
<line x1="191.012" y1="1118.02" x2="176.216" y2="1144.08" stroke="#D33871" stroke-width="4.5" stroke-linecap="round"/>
<line x1="199.063" y1="1117.26" x2="177.103" y2="1150.57" stroke="#D33871" stroke-width="4.5" stroke-linecap="round"/>
<line x1="207.991" y1="1115.95" x2="183.956" y2="1148.74" stroke="#D33871" stroke-width="4.5" stroke-linecap="round"/>
<line x1="215.359" y1="1111.05" x2="192.838" y2="1145.5" stroke="#D33871" stroke-width="4.5" stroke-linecap="round"/>
<line x1="214.162" y1="1120.56" x2="204.424" y2="1138.81" stroke="#D33871" stroke-width="4.5" stroke-linecap="round"/>
<line x1="222.656" y1="1117.37" x2="214.343" y2="1127.5" stroke="#D33871" stroke-width="4.5" stroke-linecap="round"/>
<line x1="226.619" y1="1120.25" x2="219.532" y2="1131.42" stroke="#D33871" stroke-width="4.5" stroke-linecap="round"/>
<line x1="87.2218" y1="1003.6" x2="80.6405" y2="1015.65" stroke="#D33871" stroke-width="4.5" stroke-linecap="round"/>
<line x1="91.7101" y1="1003.57" x2="84.1895" y2="1018.49" stroke="#D33871" stroke-width="4.5" stroke-linecap="round"/>
<line x1="95.9031" y1="1002.47" x2="87.4857" y2="1021.1" stroke="#D33871" stroke-width="4.5" stroke-linecap="round"/>
<line x1="101.064" y1="1001.08" x2="92.2971" y2="1021.04" stroke="#D33871" stroke-width="4.5" stroke-linecap="round"/>
<line x1="106.856" y1="999.235" x2="94.7425" y2="1023.16" stroke="#D33871" stroke-width="4.5" stroke-linecap="round"/>
<line x1="116.559" y1="998.072" x2="102.013" y2="1025.57" stroke="#D33871" stroke-width="4.5" stroke-linecap="round"/>
<line x1="126.676" y1="991.145" x2="108.491" y2="1026.86" stroke="#D33871" stroke-width="4.5" stroke-linecap="round"/>
<line x1="133.641" y1="988.487" x2="112.859" y2="1028.86" stroke="#D33871" stroke-width="4.5" stroke-linecap="round"/>
<line x1="141.228" y1="987.522" x2="117.871" y2="1032.97" stroke="#D33871" stroke-width="4.5" stroke-linecap="round"/>
<line x1="148.494" y1="987.906" x2="123.824" y2="1035.47" stroke="#D33871" stroke-width="4.5" stroke-linecap="round"/>
<line x1="153.06" y1="991.619" x2="128.826" y2="1039.55" stroke="#D33871" stroke-width="4.5" stroke-linecap="round"/>
<line x1="161.015" y1="991.703" x2="140.355" y2="1034.2" stroke="#D33871" stroke-width="4.5" stroke-linecap="round"/>
<line x1="165.975" y1="995.835" x2="143.383" y2="1040.32" stroke="#D33871" stroke-width="4.5" stroke-linecap="round"/>
<line x1="172.127" y1="1001.2" x2="147.375" y2="1040.23" stroke="#D33871" stroke-width="4.5" stroke-linecap="round"/>
<line x1="175.83" y1="1010.96" x2="148.769" y2="1045.25" stroke="#D33871" stroke-width="4.5" stroke-linecap="round"/>
<line x1="174.451" y1="1022.5" x2="154.481" y2="1049.83" stroke="#D33871" stroke-width="4.5" stroke-linecap="round"/>
<line x1="172.429" y1="1034.55" x2="161.56" y2="1048.17" stroke="#D33871" stroke-width="4.5" stroke-linecap="round"/>
<line x1="173.614" y1="1040.36" x2="169.416" y2="1045.47" stroke="#D33871" stroke-width="4.5" stroke-linecap="round"/>
<line x1="186.262" y1="1032.31" x2="167.393" y2="1056.14" stroke="#D33871" stroke-width="4.5" stroke-linecap="round"/>
<line x1="199.907" y1="1024.39" x2="169.063" y2="1061.96" stroke="#D33871" stroke-width="4.5" stroke-linecap="round"/>
<line x1="206.904" y1="1026.55" x2="172.705" y2="1067.76" stroke="#D33871" stroke-width="4.5" stroke-linecap="round"/>
<line x1="214.325" y1="1032.83" x2="176.861" y2="1072.18" stroke="#D33871" stroke-width="4.5" stroke-linecap="round"/>
<line x1="222.327" y1="1039.68" x2="180.583" y2="1074.79" stroke="#D33871" stroke-width="4.5" stroke-linecap="round"/>
<line x1="226.368" y1="1046.71" x2="184.622" y2="1078.29" stroke="#D33871" stroke-width="4.5" stroke-linecap="round"/>
<line x1="227.595" y1="1054.22" x2="192.024" y2="1078.17" stroke="#D33871" stroke-width="4.5" stroke-linecap="round"/>
<line x1="227.733" y1="1059.92" x2="196.085" y2="1081.48" stroke="#D33871" stroke-width="4.5" stroke-linecap="round"/>
<line x1="234.247" y1="1065.36" x2="200.822" y2="1085.57" stroke="#D33871" stroke-width="4.5" stroke-linecap="round"/>
<line x1="235.827" y1="1073.93" x2="206.664" y2="1089.74" stroke="#D33871" stroke-width="4.5" stroke-linecap="round"/>
<line x1="240.131" y1="1077.46" x2="215.138" y2="1091.1" stroke="#D33871" stroke-width="4.5" stroke-linecap="round"/>
<line x1="246.182" y1="1082.51" x2="219.861" y2="1095.17" stroke="#D33871" stroke-width="4.5" stroke-linecap="round"/>
<line x1="242.933" y1="1093.5" x2="224.111" y2="1101.28" stroke="#D33871" stroke-width="4.5" stroke-linecap="round"/>
<line x1="244.191" y1="1097.82" x2="226.128" y2="1103.32" stroke="#D33871" stroke-width="4.5" stroke-linecap="round"/>
<line x1="244.549" y1="1104.19" x2="228.167" y2="1105.8" stroke="#D33871" stroke-width="4.5" stroke-linecap="round"/>
<line x1="75.7779" y1="1033.27" x2="69.3348" y2="1036.61" stroke="#D33871" stroke-width="4.5" stroke-linecap="round"/>
<line x1="79.9406" y1="1036.49" x2="69.4763" y2="1043.5" stroke="#D33871" stroke-width="4.5" stroke-linecap="round"/>
<line x1="88.1888" y1="1043.45" x2="67.1331" y2="1054.38" stroke="#D33871" stroke-width="4.5" stroke-linecap="round"/>
<line x1="93.6925" y1="1047.51" x2="69.5962" y2="1068.34" stroke="#D33871" stroke-width="4.5" stroke-linecap="round"/>
<line x1="95.2335" y1="1055.93" x2="66.9279" y2="1081.27" stroke="#D33871" stroke-width="4.5" stroke-linecap="round"/>
<line x1="101.77" y1="1061.22" x2="74.3306" y2="1087.25" stroke="#D33871" stroke-width="4.5" stroke-linecap="round"/>
<line x1="106.566" y1="1065.14" x2="71.7271" y2="1098.68" stroke="#D33871" stroke-width="4.5" stroke-linecap="round"/>
<line x1="110.041" y1="1067.67" x2="75.4741" y2="1109.78" stroke="#D33871" stroke-width="4.5" stroke-linecap="round"/>
<line x1="116.882" y1="1077.08" x2="81.2162" y2="1114.71" stroke="#D33871" stroke-width="4.5" stroke-linecap="round"/>
<line x1="122.701" y1="1084.86" x2="91.465" y2="1122.91" stroke="#D33871" stroke-width="4.5" stroke-linecap="round"/>
<line x1="112.335" y1="1073.15" x2="79.5314" y2="1113.11" stroke="#D33871" stroke-width="4.5" stroke-linecap="round"/>
<line x1="128.565" y1="1086.47" x2="93.8019" y2="1128.82" stroke="#D33871" stroke-width="4.5" stroke-linecap="round"/>
<line x1="135.652" y1="1088.39" x2="105.262" y2="1133.96" stroke="#D33871" stroke-width="4.5" stroke-linecap="round"/>
<line x1="141.513" y1="1093.07" x2="114.394" y2="1137.75" stroke="#D33871" stroke-width="4.5" stroke-linecap="round"/>
<line x1="147.652" y1="1098.18" x2="119.661" y2="1142.13" stroke="#D33871" stroke-width="4.5" stroke-linecap="round"/>
<line x1="153.085" y1="1102.44" x2="127.491" y2="1148.41" stroke="#D33871" stroke-width="4.5" stroke-linecap="round"/>
<line x1="161.669" y1="1102.25" x2="137.278" y2="1147.62" stroke="#D33871" stroke-width="4.5" stroke-linecap="round"/>
<line x1="166.594" y1="1105.82" x2="147.634" y2="1155.85" stroke="#D33871" stroke-width="4.5" stroke-linecap="round"/>
<line x1="174.436" y1="1103.99" x2="154.523" y2="1151.98" stroke="#D33871" stroke-width="4.5" stroke-linecap="round"/>
<line x1="180.721" y1="1109.34" x2="160.276" y2="1152.02" stroke="#D33871" stroke-width="4.5" stroke-linecap="round"/>
<line x1="186.96" y1="1114.42" x2="169.477" y2="1151.96" stroke="#D33871" stroke-width="4.5" stroke-linecap="round"/>
<line x1="191.012" y1="1118.02" x2="176.216" y2="1144.09" stroke="#D33871" stroke-width="4.5" stroke-linecap="round"/>
<line x1="199.063" y1="1117.26" x2="177.103" y2="1150.57" stroke="#D33871" stroke-width="4.5" stroke-linecap="round"/>
<line x1="207.992" y1="1115.96" x2="183.956" y2="1148.74" stroke="#D33871" stroke-width="4.5" stroke-linecap="round"/>
<line x1="215.359" y1="1111.05" x2="192.838" y2="1145.5" stroke="#D33871" stroke-width="4.5" stroke-linecap="round"/>
<line x1="214.162" y1="1120.56" x2="204.424" y2="1138.82" stroke="#D33871" stroke-width="4.5" stroke-linecap="round"/>
<line x1="222.656" y1="1117.37" x2="214.343" y2="1127.5" stroke="#D33871" stroke-width="4.5" stroke-linecap="round"/>
<line x1="226.619" y1="1120.25" x2="219.532" y2="1131.42" stroke="#D33871" stroke-width="4.5" stroke-linecap="round"/>
<line x1="-2.12248" y1="738.616" x2="-13.6504" y2="779.783" stroke="#D33871" stroke-width="5.5" stroke-linecap="round"/>
<line x1="9.28081" y1="726.537" x2="-4.69735" y2="779.634" stroke="#D33871" stroke-width="5.5" stroke-linecap="round"/>
<line x1="17.7431" y1="721.019" x2="1.6599" y2="781.024" stroke="#D33871" stroke-width="5.5" stroke-linecap="round"/>
<line x1="27.5115" y1="717.562" x2="9.47732" y2="785.032" stroke="#D33871" stroke-width="5.5" stroke-linecap="round"/>
<line x1="37.2459" y1="715.984" x2="18.0767" y2="786.628" stroke="#D33871" stroke-width="5.5" stroke-linecap="round"/>
<line x1="44.3545" y1="719.59" x2="25.8748" y2="790.602" stroke="#D33871" stroke-width="5.5" stroke-linecap="round"/>
<line x1="54.9076" y1="717.422" x2="39.6094" y2="780.212" stroke="#D33871" stroke-width="5.5" stroke-linecap="round"/>
<line x1="62.668" y1="721.465" x2="45.372" y2="787.438" stroke="#D33871" stroke-width="5.5" stroke-linecap="round"/>
<line x1="72.3922" y1="726.793" x2="50.613" y2="786.136" stroke="#D33871" stroke-width="5.5" stroke-linecap="round"/>
<line x1="80.1357" y1="738.626" x2="53.8837" y2="792.338" stroke="#D33871" stroke-width="5.5" stroke-linecap="round"/>
<line x1="81.6087" y1="754.308" x2="62.7702" y2="796.784" stroke="#D33871" stroke-width="5.5" stroke-linecap="round"/>
<line x1="82.408" y1="770.843" x2="71.661" y2="792.538" stroke="#D33871" stroke-width="5.5" stroke-linecap="round"/>
<line x1="85.6507" y1="778.192" x2="81.2871" y2="786.701" stroke="#D33871" stroke-width="5.5" stroke-linecap="round"/>
<line x1="100.083" y1="763.907" x2="81.6761" y2="801.423" stroke="#D33871" stroke-width="5.5" stroke-linecap="round"/>
<line x1="115.884" y1="749.495" x2="85.5547" y2="808.639" stroke="#D33871" stroke-width="5.5" stroke-linecap="round"/>
<line x1="125.773" y1="750.349" x2="92.0431" y2="815.273" stroke="#D33871" stroke-width="5.5" stroke-linecap="round"/>
<line x1="137.432" y1="756.531" x2="98.8062" y2="819.902" stroke="#D33871" stroke-width="5.5" stroke-linecap="round"/>
<line x1="150.041" y1="763.291" x2="104.479" y2="822.252" stroke="#D33871" stroke-width="5.5" stroke-linecap="round"/>
<line x1="157.43" y1="771.435" x2="110.829" y2="825.697" stroke="#D33871" stroke-width="5.5" stroke-linecap="round"/>
<line x1="161.236" y1="781.031" x2="120.596" y2="823.392" stroke="#D33871" stroke-width="5.5" stroke-linecap="round"/>
<line x1="163.052" y1="788.532" x2="126.924" y2="826.614" stroke="#D33871" stroke-width="5.5" stroke-linecap="round"/>
<line x1="173.265" y1="793.88" x2="134.37" y2="830.646" stroke="#D33871" stroke-width="5.5" stroke-linecap="round"/>
<line x1="177.837" y1="804.771" x2="143.306" y2="834.473" stroke="#D33871" stroke-width="5.5" stroke-linecap="round"/>
<line x1="184.549" y1="808.209" x2="154.915" y2="833.834" stroke="#D33871" stroke-width="5.5" stroke-linecap="round"/>
<line x1="194.032" y1="813.154" x2="162.342" y2="837.851" stroke="#D33871" stroke-width="5.5" stroke-linecap="round"/>
<line x1="192.909" y1="828.643" x2="169.727" y2="844.692" stroke="#D33871" stroke-width="5.5" stroke-linecap="round"/>
<line x1="195.855" y1="834.019" x2="172.993" y2="846.776" stroke="#D33871" stroke-width="5.5" stroke-linecap="round"/>
<line x1="198.236" y1="842.377" x2="176.435" y2="849.397" stroke="#D33871" stroke-width="5.5" stroke-linecap="round"/>
<line x1="-3.44683" y1="826.434" x2="-32.6445" y2="869.279" stroke="#D33871" stroke-width="5.5" stroke-linecap="round"/>
<line x1="4.02713" y1="830.247" x2="-32.8119" y2="885.156" stroke="#D33871" stroke-width="5.5" stroke-linecap="round"/>
<line x1="9.30791" y1="832.616" x2="-24.6488" y2="898.834" stroke="#D33871" stroke-width="5.5" stroke-linecap="round"/>
<line x1="21.0988" y1="843.106" x2="-15.6375" y2="903.682" stroke="#D33871" stroke-width="5.5" stroke-linecap="round"/>
<line x1="31.0074" y1="851.737" x2="0.296362" y2="911.626" stroke="#D33871" stroke-width="5.5" stroke-linecap="round"/>
<line x1="13.9188" y1="839.212" x2="-18.3197" y2="902.079" stroke="#D33871" stroke-width="5.5" stroke-linecap="round"/>
<line x1="39.2366" y1="852.196" x2="5.08899" y2="918.787" stroke="#D33871" stroke-width="5.5" stroke-linecap="round"/>
<line x1="49.1338" y1="852.718" x2="21.7544" y2="922.34" stroke="#D33871" stroke-width="5.5" stroke-linecap="round"/>
<line x1="58.2206" y1="857.23" x2="34.9451" y2="924.756" stroke="#D33871" stroke-width="5.5" stroke-linecap="round"/>
<line x1="67.8251" y1="862.229" x2="43.1722" y2="929.031" stroke="#D33871" stroke-width="5.5" stroke-linecap="round"/>
<line x1="76.2217" y1="866.328" x2="55.3563" y2="935.127" stroke="#D33871" stroke-width="5.5" stroke-linecap="round"/>
<line x1="87.5273" y1="863.609" x2="68.0923" y2="931.278" stroke="#D33871" stroke-width="5.5" stroke-linecap="round"/>
<line x1="95.0297" y1="866.961" x2="84.1993" y2="939.25" stroke="#D33871" stroke-width="5.5" stroke-linecap="round"/>
<line x1="104.898" y1="862.268" x2="92.2024" y2="932.131" stroke="#D33871" stroke-width="5.5" stroke-linecap="round"/>
<line x1="114.776" y1="867.536" x2="99.8195" y2="930.509" stroke="#D33871" stroke-width="5.5" stroke-linecap="round"/>
<line x1="124.493" y1="872.478" x2="111.988" y2="927.791" stroke="#D33871" stroke-width="5.5" stroke-linecap="round"/>
<line x1="130.923" y1="876.07" x2="118.636" y2="915.403" stroke="#D33871" stroke-width="5.5" stroke-linecap="round"/>
<line x1="141.392" y1="872.735" x2="121.66" y2="923.711" stroke="#D33871" stroke-width="5.5" stroke-linecap="round"/>
<line x1="152.859" y1="868.438" x2="130.201" y2="919.299" stroke="#D33871" stroke-width="5.5" stroke-linecap="round"/>
<line x1="161.186" y1="859.832" x2="141.043" y2="912.481" stroke="#D33871" stroke-width="5.5" stroke-linecap="round"/>
<line x1="162.297" y1="872.785" x2="154.481" y2="900.334" stroke="#D33871" stroke-width="5.5" stroke-linecap="round"/>
<line x1="172.707" y1="866.092" x2="164.334" y2="882.42" stroke="#D33871" stroke-width="5.5" stroke-linecap="round"/>
<line x1="178.734" y1="868.783" x2="172.352" y2="886.178" stroke="#D33871" stroke-width="5.5" stroke-linecap="round"/>
<path d="M365.839 1126.2V1124.19C367.559 1124.12 368.832 1123.98 369.658 1123.77C370.518 1123.57 371.086 1123.15 371.361 1122.53C371.637 1121.92 371.774 1120.99 371.774 1119.75V1096.11C371.774 1094.87 371.637 1093.96 371.361 1093.37C371.086 1092.75 370.518 1092.32 369.658 1092.08C368.832 1091.84 367.559 1091.7 365.839 1091.67V1089.66C366.596 1089.69 367.697 1089.73 369.142 1089.76C370.587 1089.76 372.342 1089.76 374.406 1089.76C376.333 1089.76 378.054 1089.74 379.568 1089.71C381.082 1089.67 382.183 1089.66 382.871 1089.66C386.759 1089.66 389.735 1090.4 391.8 1091.88C393.899 1093.32 394.948 1095.4 394.948 1098.12C394.948 1100.32 394.174 1102.18 392.626 1103.7C391.112 1105.18 388.927 1106.21 386.071 1106.79V1106.9C389.925 1107.24 392.849 1108.19 394.845 1109.73C396.841 1111.28 397.839 1113.4 397.839 1116.08C397.839 1119.21 396.6 1121.69 394.123 1123.52C391.68 1125.3 388.325 1126.2 384.058 1126.2C383.473 1126.2 382.733 1126.18 381.839 1126.15C380.944 1126.11 379.877 1126.1 378.639 1126.1C377.434 1126.06 376.041 1126.04 374.458 1126.04C372.359 1126.04 370.57 1126.06 369.09 1126.1C367.645 1126.1 366.561 1126.13 365.839 1126.2ZM381.942 1124.08C385.108 1124.08 387.482 1123.39 389.065 1122.02C390.647 1120.64 391.439 1118.61 391.439 1115.93C391.439 1113.35 390.665 1111.42 389.116 1110.15C387.568 1108.84 385.245 1108.19 382.148 1108.19H376.419V1106.28H381.271C383.817 1106.28 385.744 1105.64 387.052 1104.37C388.359 1103.06 389.013 1101.17 389.013 1098.69C389.013 1096.32 388.411 1094.54 387.206 1093.37C386.037 1092.2 384.196 1091.64 381.684 1091.67H377.761V1119.8C377.761 1120.97 377.865 1121.86 378.071 1122.48C378.277 1123.1 378.673 1123.53 379.258 1123.77C379.877 1123.98 380.772 1124.08 381.942 1124.08ZM415.886 1127.54L405.925 1104.99C405.408 1103.82 404.737 1102.97 403.912 1102.46C403.086 1101.91 402.019 1101.63 400.712 1101.63V1099.62C401.95 1099.65 403.12 1099.69 404.221 1099.72C405.357 1099.76 406.613 1099.77 407.989 1099.77C409.503 1099.77 410.828 1099.76 411.963 1099.72C413.099 1099.69 414.148 1099.65 415.112 1099.62V1101.63C413.426 1101.67 412.376 1101.99 411.963 1102.61C411.55 1103.23 411.671 1104.28 412.325 1105.76L418.828 1120.63L417.899 1120.99L422.647 1109.01C423.267 1107.43 423.559 1106.1 423.525 1105.04C423.525 1103.97 423.198 1103.16 422.544 1102.61C421.925 1102.03 420.996 1101.7 419.757 1101.63V1099.62C420.617 1099.65 421.374 1099.69 422.028 1099.72C422.682 1099.72 423.318 1099.72 423.938 1099.72C424.591 1099.72 425.279 1099.72 426.002 1099.72C426.931 1099.72 427.894 1099.72 428.892 1099.72C429.89 1099.69 430.75 1099.65 431.473 1099.62V1101.63C430.062 1101.77 428.875 1102.29 427.912 1103.18C426.948 1104.07 426.088 1105.5 425.331 1107.46L417.538 1127.54H415.886ZM408.608 1138.84C406.888 1138.84 405.494 1138.4 404.428 1137.5C403.396 1136.64 402.879 1135.51 402.879 1134.1C402.879 1132.96 403.224 1132.05 403.912 1131.36C404.6 1130.71 405.494 1130.38 406.596 1130.38C407.387 1130.38 408.024 1130.57 408.505 1130.95C408.987 1131.36 409.228 1131.91 409.228 1132.6C409.228 1133.08 409.142 1133.51 408.97 1133.89C408.798 1134.27 408.626 1134.61 408.454 1134.92C408.282 1135.27 408.196 1135.61 408.196 1135.95C408.196 1136.54 408.574 1136.83 409.331 1136.83C410.122 1136.83 410.828 1136.56 411.447 1136.01C412.067 1135.46 412.6 1134.63 413.047 1133.53L416.35 1125.27L418.054 1126.2L415.06 1133.73C414.578 1134.9 414.028 1135.87 413.408 1136.63C412.824 1137.38 412.135 1137.93 411.344 1138.28C410.587 1138.66 409.675 1138.84 408.608 1138.84ZM467.18 1126.92C463.567 1126.92 460.419 1126.16 457.735 1124.65C455.051 1123.14 452.969 1120.99 451.49 1118.2C450.01 1115.38 449.271 1112.02 449.271 1108.13C449.271 1104.32 450.028 1100.98 451.542 1098.12C453.056 1095.23 455.154 1092.98 457.838 1091.36C460.522 1089.74 463.653 1088.93 467.232 1088.93C470.81 1088.93 473.942 1089.69 476.625 1091.21C479.344 1092.72 481.443 1094.89 482.922 1097.71C484.402 1100.5 485.142 1103.83 485.142 1107.72C485.142 1111.54 484.385 1114.9 482.871 1117.79C481.357 1120.64 479.24 1122.88 476.522 1124.5C473.838 1126.11 470.724 1126.92 467.18 1126.92ZM467.283 1125.01C469.589 1125.01 471.602 1124.29 473.322 1122.84C475.043 1121.4 476.367 1119.4 477.296 1116.86C478.26 1114.28 478.742 1111.28 478.742 1107.88C478.742 1104.4 478.225 1101.39 477.193 1098.84C476.195 1096.3 474.802 1094.34 473.012 1092.96C471.258 1091.55 469.279 1090.84 467.077 1090.84C464.806 1090.84 462.81 1091.57 461.09 1093.01C459.369 1094.46 458.028 1096.47 457.064 1099.05C456.101 1101.6 455.619 1104.57 455.619 1107.98C455.619 1111.46 456.135 1114.47 457.167 1117.01C458.2 1119.56 459.593 1121.54 461.348 1122.95C463.137 1124.32 465.116 1125.01 467.283 1125.01ZM503.305 1126.92C500.69 1126.92 498.66 1126.08 497.215 1124.39C495.804 1122.71 495.098 1120.32 495.098 1117.22V1106.12C495.098 1104.5 494.685 1103.37 493.86 1102.72C493.034 1102.03 491.606 1101.65 489.576 1101.58V1099.57C490.195 1099.6 490.866 1099.64 491.589 1099.67C492.346 1099.7 493.12 1099.72 493.911 1099.72C495.15 1099.72 496.32 1099.67 497.421 1099.57C498.556 1099.43 499.658 1099.24 500.724 1099V1117.79C500.724 1119.85 501.12 1121.42 501.911 1122.48C502.737 1123.52 503.941 1124.03 505.524 1124.03C506.797 1124.03 507.984 1123.67 509.085 1122.95C510.187 1122.19 511.133 1121.09 511.924 1119.64L511.873 1121.92C511.081 1123.5 509.928 1124.74 508.415 1125.63C506.935 1126.49 505.232 1126.92 503.305 1126.92ZM511.666 1126.77V1106.12C511.666 1104.5 511.305 1103.37 510.582 1102.72C509.894 1102.03 508.69 1101.65 506.969 1101.58V1099.57C507.589 1099.6 508.225 1099.64 508.879 1099.67C509.533 1099.7 510.204 1099.72 510.892 1099.72C512.096 1099.72 513.215 1099.67 514.247 1099.57C515.313 1099.43 516.328 1099.24 517.292 1099V1119.64C517.292 1121.26 517.705 1122.41 518.531 1123.1C519.356 1123.79 520.784 1124.15 522.815 1124.19V1126.2C522.161 1126.13 521.455 1126.1 520.698 1126.1C519.976 1126.06 519.253 1126.04 518.531 1126.04C517.258 1126.04 516.053 1126.1 514.918 1126.2C513.817 1126.34 512.733 1126.53 511.666 1126.77ZM525.994 1126.2V1124.19C528.093 1124.15 529.538 1123.88 530.329 1123.36C531.121 1122.81 531.517 1121.85 531.517 1120.47V1106.12C531.517 1104.5 531.086 1103.37 530.226 1102.72C529.4 1102.03 527.99 1101.65 525.994 1101.58V1099.57C526.785 1099.6 527.525 1099.64 528.213 1099.67C528.936 1099.7 529.693 1099.72 530.484 1099.72C532.927 1099.72 535.147 1099.48 537.142 1099V1120.16C537.142 1121.61 537.658 1122.64 538.691 1123.26C539.723 1123.84 541.512 1124.15 544.058 1124.19V1126.2C543.439 1126.16 542.596 1126.15 541.529 1126.15C540.463 1126.11 539.31 1126.08 538.071 1126.04C536.833 1126.01 535.611 1125.99 534.407 1125.99C532.721 1125.99 531.086 1126.03 529.504 1126.1C527.955 1126.13 526.785 1126.16 525.994 1126.2ZM546.587 1108.29C545.796 1108.29 545.16 1108.08 544.678 1107.67C544.196 1107.22 543.955 1106.66 543.955 1105.97C543.955 1105.49 544.041 1105.07 544.213 1104.73C544.42 1104.35 544.609 1103.99 544.781 1103.64C544.953 1103.3 545.039 1102.97 545.039 1102.66C545.039 1101.94 544.523 1101.58 543.491 1101.58C542.699 1101.58 541.856 1101.79 540.962 1102.2C540.101 1102.58 539.31 1103.11 538.587 1103.8C537.865 1104.45 537.332 1105.21 536.988 1106.07L536.833 1103.9C537.762 1102.32 538.949 1101.08 540.394 1100.19C541.839 1099.29 543.353 1098.84 544.936 1098.84C546.553 1098.84 547.826 1099.31 548.755 1100.24C549.719 1101.17 550.2 1102.41 550.2 1103.95C550.2 1105.26 549.856 1106.31 549.168 1107.1C548.514 1107.89 547.654 1108.29 546.587 1108.29ZM567.901 1126.2V1124.19C569.622 1124.12 570.895 1123.98 571.721 1123.77C572.581 1123.53 573.149 1123.1 573.424 1122.48C573.699 1121.86 573.837 1120.95 573.837 1119.75V1096.11C573.837 1094.87 573.699 1093.96 573.424 1093.37C573.149 1092.75 572.581 1092.32 571.721 1092.08C570.895 1091.84 569.622 1091.7 567.901 1091.67V1089.66C568.658 1089.69 569.725 1089.73 571.101 1089.76C572.512 1089.76 574.215 1089.76 576.211 1089.76C577.243 1089.76 578.189 1089.76 579.05 1089.76C579.944 1089.76 580.753 1089.76 581.475 1089.76C582.232 1089.73 582.903 1089.71 583.488 1089.71C584.073 1089.67 584.555 1089.66 584.933 1089.66C589.269 1089.66 592.624 1090.47 594.998 1092.08C597.372 1093.7 598.559 1095.97 598.559 1098.9C598.559 1100.93 597.957 1102.68 596.753 1104.16C595.549 1105.64 593.845 1106.79 591.643 1107.62C589.441 1108.41 586.826 1108.81 583.798 1108.81H577.088V1107.36H583.695C586.654 1107.36 588.839 1106.71 590.25 1105.4C591.695 1104.09 592.417 1102.11 592.417 1099.46C592.417 1096.85 591.712 1094.9 590.301 1093.63C588.89 1092.32 586.757 1091.67 583.901 1091.67H579.824V1119.75C579.824 1120.95 579.961 1121.86 580.237 1122.48C580.512 1123.1 581.062 1123.53 581.888 1123.77C582.749 1123.98 584.022 1124.12 585.708 1124.19V1126.2C584.09 1126.1 581.131 1126.04 576.83 1126.04C572.564 1126.04 569.587 1126.1 567.901 1126.2ZM598.404 1126.92C596.581 1126.92 595.153 1126.46 594.121 1125.53C593.123 1124.56 592.4 1123.02 591.953 1120.88L590.611 1115.1C590.301 1113.62 589.888 1112.47 589.372 1111.64C588.856 1110.78 588.168 1110.18 587.308 1109.84C586.447 1109.49 585.312 1109.32 583.901 1109.32H577.398V1107.98H583.385C586.447 1107.98 588.873 1108.22 590.663 1108.7C592.486 1109.18 593.88 1110.03 594.843 1111.23C595.807 1112.44 596.546 1114.14 597.062 1116.34L597.992 1120.16C598.301 1121.47 598.68 1122.4 599.127 1122.95C599.609 1123.46 600.228 1123.72 600.985 1123.72C601.432 1123.69 601.828 1123.58 602.172 1123.41C602.551 1123.21 602.964 1122.86 603.411 1122.38L604.495 1123.77C603.669 1124.87 602.774 1125.68 601.811 1126.2C600.847 1126.68 599.712 1126.92 598.404 1126.92ZM618.305 1126.92C615.69 1126.92 613.66 1126.08 612.215 1124.39C610.804 1122.71 610.098 1120.32 610.098 1117.22V1106.12C610.098 1104.5 609.685 1103.37 608.86 1102.72C608.034 1102.03 606.606 1101.65 604.576 1101.58V1099.57C605.195 1099.6 605.866 1099.64 606.589 1099.67C607.346 1099.7 608.12 1099.72 608.911 1099.72C610.15 1099.72 611.32 1099.67 612.421 1099.57C613.556 1099.43 614.658 1099.24 615.724 1099V1117.79C615.724 1119.85 616.12 1121.42 616.911 1122.48C617.737 1123.52 618.941 1124.03 620.524 1124.03C621.797 1124.03 622.984 1123.67 624.085 1122.95C625.187 1122.19 626.133 1121.09 626.924 1119.64L626.873 1121.92C626.081 1123.5 624.928 1124.74 623.415 1125.63C621.935 1126.49 620.232 1126.92 618.305 1126.92ZM626.666 1126.77V1106.12C626.666 1104.5 626.305 1103.37 625.582 1102.72C624.894 1102.03 623.69 1101.65 621.969 1101.58V1099.57C622.589 1099.6 623.225 1099.64 623.879 1099.67C624.533 1099.7 625.204 1099.72 625.892 1099.72C627.096 1099.72 628.215 1099.67 629.247 1099.57C630.313 1099.43 631.328 1099.24 632.292 1099V1119.64C632.292 1121.26 632.705 1122.41 633.531 1123.1C634.356 1123.79 635.784 1124.15 637.815 1124.19V1126.2C637.161 1126.13 636.455 1126.1 635.698 1126.1C634.976 1126.06 634.253 1126.04 633.531 1126.04C632.258 1126.04 631.053 1126.1 629.918 1126.2C628.817 1126.34 627.733 1126.53 626.666 1126.77ZM640.57 1126.2V1124.19C642.6 1124.15 644.028 1123.88 644.854 1123.36C645.68 1122.84 646.093 1121.88 646.093 1120.47V1092.91C646.093 1091.33 645.68 1090.19 644.854 1089.5C644.063 1088.78 642.635 1088.4 640.57 1088.37V1086.3C641.258 1086.34 641.964 1086.37 642.686 1086.41C643.443 1086.44 644.183 1086.46 644.906 1086.46C646.179 1086.46 647.383 1086.41 648.519 1086.3C649.688 1086.16 650.755 1085.98 651.719 1085.73V1120.47C651.719 1121.88 652.114 1122.84 652.906 1123.36C653.731 1123.88 655.159 1124.15 657.19 1124.19V1126.2C656.673 1126.16 655.968 1126.15 655.073 1126.15C654.179 1126.11 653.181 1126.08 652.08 1126.04C651.013 1126.01 649.964 1125.99 648.931 1125.99C647.349 1125.99 645.749 1126.03 644.131 1126.1C642.549 1126.13 641.362 1126.16 640.57 1126.2ZM673.908 1126.92C671.396 1126.92 669.211 1126.37 667.353 1125.27C665.495 1124.13 664.05 1122.52 663.017 1120.42C662.019 1118.32 661.521 1115.84 661.521 1112.99C661.521 1110.06 662.037 1107.55 663.069 1105.45C664.101 1103.32 665.581 1101.68 667.508 1100.55C669.435 1099.41 671.706 1098.84 674.321 1098.84C676.626 1098.84 678.604 1099.29 680.256 1100.19C681.908 1101.05 683.164 1102.41 684.024 1104.26C684.884 1106.12 685.28 1108.53 685.211 1111.49H665.392L665.34 1109.53H679.688C679.723 1107.88 679.551 1106.4 679.172 1105.09C678.794 1103.78 678.174 1102.75 677.314 1101.99C676.488 1101.24 675.422 1100.86 674.114 1100.86C672.462 1100.86 671 1101.6 669.727 1103.08C668.488 1104.52 667.749 1106.83 667.508 1109.99L667.611 1110.15C667.576 1110.49 667.542 1110.87 667.508 1111.28C667.508 1111.66 667.508 1112.09 667.508 1112.57C667.508 1116.12 668.196 1118.89 669.572 1120.88C670.983 1122.84 672.979 1123.83 675.559 1123.83C677.28 1123.83 678.794 1123.39 680.101 1122.53C681.443 1121.67 682.561 1120.35 683.456 1118.56L685.262 1119.64C684.333 1121.95 682.871 1123.74 680.875 1125.01C678.914 1126.29 676.592 1126.92 673.908 1126.92ZM703.446 1126.92C701.932 1126.92 700.676 1126.75 699.678 1126.41C698.68 1126.1 697.855 1125.8 697.201 1125.53C696.547 1125.22 695.979 1125.06 695.498 1125.06C694.706 1125.06 694.121 1125.6 693.743 1126.66H691.781C691.85 1125.8 691.902 1124.89 691.936 1123.93C691.971 1122.93 691.988 1121.81 691.988 1120.57C692.022 1119.33 692.022 1117.92 691.988 1116.34H693.949C694.465 1119.2 695.446 1121.33 696.891 1122.74C698.371 1124.15 700.332 1124.86 702.775 1124.86C704.53 1124.86 705.872 1124.5 706.801 1123.77C707.764 1123.02 708.246 1121.97 708.246 1120.63C708.246 1119.32 707.747 1118.27 706.749 1117.48C705.751 1116.65 704.014 1115.88 701.536 1115.15C698.405 1114.26 696.117 1113.11 694.672 1111.7C693.227 1110.29 692.504 1108.51 692.504 1106.38C692.504 1104.11 693.261 1102.29 694.775 1100.91C696.289 1099.53 698.319 1098.84 700.865 1098.84C702.242 1098.84 703.394 1099 704.323 1099.31C705.252 1099.62 706.044 1099.95 706.698 1100.29C707.351 1100.6 707.936 1100.75 708.452 1100.75C708.797 1100.75 709.089 1100.63 709.33 1100.39C709.571 1100.12 709.777 1099.7 709.949 1099.15H711.962C711.893 1099.88 711.842 1100.65 711.807 1101.48C711.773 1102.27 711.738 1103.2 711.704 1104.26C711.704 1105.3 711.721 1106.59 711.756 1108.13H709.743C709.364 1105.86 708.435 1104.09 706.956 1102.82C705.476 1101.51 703.721 1100.86 701.691 1100.86C700.246 1100.86 699.11 1101.2 698.285 1101.89C697.493 1102.54 697.098 1103.49 697.098 1104.73C697.098 1106.04 697.631 1107.12 698.698 1107.98C699.799 1108.84 701.674 1109.65 704.323 1110.41C707.317 1111.23 709.485 1112.3 710.827 1113.61C712.169 1114.91 712.84 1116.65 712.84 1118.82C712.84 1121.33 711.997 1123.31 710.31 1124.75C708.659 1126.2 706.371 1126.92 703.446 1126.92Z" fill="#1E1D1B"/>
<path d="M437.517 1054.28C436.09 1054.28 434.717 1054.12 433.4 1053.79C430.655 1053.13 428.623 1052.03 427.306 1050.49C425.988 1048.96 425.329 1047.31 425.329 1045.55C425.329 1043.69 425.933 1041.98 427.141 1040.45C428.459 1038.8 430.215 1037.65 432.411 1036.99C433.619 1036.55 435.102 1036.33 436.858 1036.33C440.372 1036.33 443.94 1036.99 447.564 1038.31C451.187 1039.62 454.207 1040.72 456.622 1041.6C461.124 1037.54 465.186 1032.65 468.81 1026.94C472.543 1021.12 475.947 1015.14 479.021 1008.99C482.205 1002.84 485.225 997.131 488.08 991.86C494.228 980.441 500.212 971.163 506.032 964.026C511.851 956.889 516.957 951.454 521.349 947.721C518.604 946.623 515.749 945.855 512.784 945.415C509.82 944.866 506.745 944.592 503.561 944.592C496.424 944.592 489.232 945.8 481.986 948.215C474.739 950.631 468.096 953.98 462.057 958.262C456.128 962.544 451.352 967.485 447.728 973.085C443.117 980.441 440.811 987.249 440.811 993.507C440.811 996.801 441.525 999.601 442.952 1001.91C444.489 1004.1 446.795 1005.53 449.869 1006.19C450.199 1006.3 450.638 1006.35 451.187 1006.35C453.383 1006.35 456.128 1005.64 459.422 1004.21C462.716 1002.79 465.955 1000.7 469.139 997.954C472.433 995.209 475.123 991.915 477.209 988.072C479.735 983.351 480.998 979.069 480.998 975.226C480.998 972.042 480.284 969.626 478.856 967.979C477.429 966.222 475.672 965.344 473.586 965.344C471.171 965.344 468.371 966.332 465.186 968.309C462.112 970.285 460.136 973.304 459.257 977.367C459.148 977.696 459.093 977.971 459.093 978.191C459.093 978.41 459.093 978.63 459.093 978.849C459.093 979.947 459.367 980.661 459.916 980.99C460.465 981.21 461.069 981.32 461.728 981.32C462.167 981.32 462.551 981.32 462.881 981.32C463.21 981.21 463.43 981.155 463.539 981.155C464.198 981.265 464.528 981.539 464.528 981.979C464.528 982.308 464.198 982.692 463.539 983.131C462.99 983.461 462.277 983.626 461.398 983.626C459.642 983.626 458.159 982.967 456.952 981.649C455.854 980.222 455.524 978.465 455.963 976.379C456.732 972.206 458.763 968.967 462.057 966.662C465.461 964.246 469.084 963.038 472.927 963.038C473.476 963.038 473.97 963.093 474.41 963.203C474.959 963.203 475.453 963.258 475.892 963.368C479.405 964.026 481.986 965.564 483.633 967.979C485.28 970.285 486.103 973.03 486.103 976.214C486.103 979.618 485.28 983.186 483.633 986.92C481.986 990.653 479.57 994.166 476.386 997.46C473.312 1000.75 469.578 1003.44 465.186 1005.53C460.794 1007.62 455.854 1008.66 450.364 1008.66C444.983 1008.66 440.756 1006.85 437.682 1003.22C434.717 999.601 433.235 995.1 433.235 989.719C433.235 986.645 433.729 983.461 434.717 980.167C435.705 976.763 437.243 973.359 439.329 969.956C443.062 963.917 448.223 958.866 454.81 954.803C461.398 950.631 468.7 947.502 476.715 945.415C484.84 943.22 492.856 942.122 500.761 942.122C504.824 942.122 508.777 942.451 512.62 943.11C516.463 943.659 520.086 944.537 523.49 945.745C526.015 943.878 529.144 942.341 532.878 941.133C536.611 939.816 540.179 939.157 543.583 939.157C544.132 939.157 544.681 939.157 545.23 939.157C545.779 939.157 546.273 939.212 546.712 939.322C548.908 939.651 550.006 940.31 550.006 941.298C550.006 941.957 549.238 942.286 547.7 942.286C546.932 942.286 546.218 942.231 545.559 942.122C545.01 942.012 544.352 941.957 543.583 941.957C541.607 941.957 539.63 942.396 537.654 943.274C535.677 944.043 533.427 945.47 530.901 947.557C538.258 951.07 543.473 955.023 546.548 959.415C549.732 963.807 551.324 968.254 551.324 972.755C551.324 977.477 549.896 982.088 547.042 986.59C544.187 991.092 540.344 995.154 535.513 998.778C530.682 1002.29 525.301 1005.09 519.372 1007.18C513.443 1009.26 507.459 1010.31 501.42 1010.31C498.346 1010.31 495.326 1009.98 492.362 1009.32C489.178 1015.47 485.609 1021.56 481.656 1027.6C477.704 1033.53 472.268 1038.85 465.351 1043.58C469.853 1044.89 474.3 1046.21 478.692 1047.53C483.194 1048.85 487.64 1049.5 492.032 1049.5C493.24 1049.5 494.503 1049.45 495.82 1049.34C497.138 1049.23 498.401 1049.01 499.608 1048.68H500.103C501.091 1048.68 501.585 1049.12 501.585 1050C501.585 1050.55 501.036 1050.99 499.938 1051.32C497.632 1051.76 495.381 1052.09 493.185 1052.3C490.989 1052.52 488.848 1052.63 486.762 1052.63C481.382 1052.63 476.441 1052.09 471.939 1050.99C467.437 1049.89 463.32 1048.63 459.587 1047.2C456.293 1048.96 452.669 1050.55 448.717 1051.98C444.874 1053.51 441.14 1054.28 437.517 1054.28ZM497.961 1006.85C503.232 1006.85 508.447 1005.75 513.608 1003.55C518.768 1001.36 523.49 998.448 527.772 994.825C532.054 991.202 535.458 987.194 537.983 982.802C540.618 978.3 541.936 973.799 541.936 969.297C541.936 965.783 540.893 962.379 538.807 959.085C536.83 955.682 533.536 952.662 528.925 950.027C525.631 953.321 521.623 958.207 516.902 964.685C512.29 971.163 507.294 979.563 501.914 989.884C500.487 992.409 499.114 995.1 497.797 997.954C496.479 1000.81 495.107 1003.66 493.679 1006.52C494.448 1006.63 495.162 1006.74 495.82 1006.85C496.479 1006.85 497.193 1006.85 497.961 1006.85ZM436.694 1051.32C439.548 1051.32 442.129 1050.71 444.434 1049.5C446.74 1048.41 449.101 1046.98 451.516 1045.22C448.881 1044.23 445.862 1043.25 442.458 1042.26C439.054 1041.27 435.925 1040.89 433.07 1041.11C431.643 1041.22 430.545 1041.76 429.776 1042.75C429.008 1043.74 428.623 1044.84 428.623 1046.05C428.623 1047.14 429.063 1048.19 429.941 1049.18C430.819 1050.27 432.137 1050.93 433.894 1051.15C434.443 1051.26 434.937 1051.32 435.376 1051.32C435.815 1051.32 436.254 1051.32 436.694 1051.32Z" fill="#1E1D1B"/>
<path d="M510.607 1050.12V1047.6C513.231 1047.56 515.037 1047.21 516.027 1046.57C517.016 1045.88 517.51 1044.67 517.51 1042.95V1025.02C517.51 1023 516.973 1021.58 515.898 1020.76C514.865 1019.9 513.102 1019.43 510.607 1019.34V1016.82C511.596 1016.87 512.521 1016.91 513.381 1016.95C514.285 1017 515.231 1017.02 516.22 1017.02C519.274 1017.02 522.048 1016.72 524.543 1016.12V1042.57C524.543 1044.37 525.188 1045.66 526.478 1046.44C527.768 1047.17 530.005 1047.56 533.188 1047.6V1050.12C532.414 1050.07 531.36 1050.05 530.027 1050.05C528.693 1050.01 527.252 1049.96 525.704 1049.92C524.156 1049.88 522.629 1049.86 521.123 1049.86C519.016 1049.86 516.973 1049.9 514.994 1049.99C513.059 1050.03 511.596 1050.07 510.607 1050.12ZM536.349 1027.73C535.36 1027.73 534.564 1027.47 533.962 1026.95C533.36 1026.39 533.059 1025.69 533.059 1024.82C533.059 1024.22 533.166 1023.71 533.381 1023.28C533.639 1022.8 533.876 1022.35 534.091 1021.92C534.306 1021.49 534.414 1021.08 534.414 1020.7C534.414 1019.79 533.768 1019.34 532.478 1019.34C531.489 1019.34 530.435 1019.6 529.317 1020.12C528.242 1020.59 527.252 1021.26 526.349 1022.12C525.446 1022.93 524.779 1023.88 524.349 1024.95L524.156 1022.24C525.317 1020.27 526.801 1018.72 528.607 1017.6C530.414 1016.48 532.306 1015.92 534.285 1015.92C536.306 1015.92 537.898 1016.5 539.059 1017.66C540.263 1018.82 540.865 1020.37 540.865 1022.31C540.865 1023.94 540.435 1025.26 539.575 1026.24C538.758 1027.23 537.682 1027.73 536.349 1027.73ZM545.138 1050.12V1047.6C547.676 1047.56 549.461 1047.21 550.493 1046.57C551.526 1045.92 552.042 1044.72 552.042 1042.95V1025.02C552.042 1023.04 551.526 1021.62 550.493 1020.76C549.504 1019.9 547.719 1019.43 545.138 1019.34V1016.82C545.999 1016.87 546.88 1016.91 547.784 1016.95C548.687 1017 549.612 1017.02 550.558 1017.02C552.149 1017.02 553.655 1016.95 555.074 1016.82C556.536 1016.65 557.87 1016.42 559.074 1016.12V1042.95C559.074 1044.72 559.569 1045.92 560.558 1046.57C561.59 1047.21 563.396 1047.56 565.977 1047.6V1050.12C565.332 1050.07 564.429 1050.05 563.267 1050.05C562.149 1050.01 560.902 1049.96 559.526 1049.92C558.192 1049.88 556.88 1049.86 555.59 1049.86C553.612 1049.86 551.612 1049.9 549.59 1049.99C547.612 1050.03 546.128 1050.07 545.138 1050.12ZM555.332 1009.53C554.085 1009.53 552.988 1009.1 552.042 1008.24C551.138 1007.38 550.687 1006.29 550.687 1004.95C550.687 1003.62 551.138 1002.52 552.042 1001.66C552.988 1000.8 554.085 1000.37 555.332 1000.37C556.622 1000.37 557.719 1000.8 558.622 1001.66C559.569 1002.52 560.042 1003.62 560.042 1004.95C560.042 1006.29 559.569 1007.38 558.622 1008.24C557.719 1009.1 556.622 1009.53 555.332 1009.53ZM593.31 1050.12V1047.6C595.116 1047.56 596.342 1047.21 596.987 1046.57C597.675 1045.88 598.019 1044.67 598.019 1042.95V1027.53C598.019 1024.91 597.482 1022.93 596.407 1021.6C595.374 1020.27 593.826 1019.6 591.761 1019.6C590.084 1019.6 588.536 1020.07 587.116 1021.02C585.697 1021.92 584.45 1023.26 583.374 1025.02L583.439 1022.18C584.514 1020.24 586.019 1018.72 587.955 1017.6C589.89 1016.48 592.084 1015.92 594.536 1015.92C597.89 1015.92 600.471 1016.98 602.278 1019.08C604.127 1021.19 605.052 1024.2 605.052 1028.12V1042.95C605.052 1044.67 605.546 1045.88 606.536 1046.57C607.525 1047.21 609.331 1047.56 611.955 1047.6V1050.12C611.31 1050.07 610.407 1050.05 609.245 1050.05C608.127 1050.01 606.88 1049.96 605.503 1049.92C604.17 1049.88 602.88 1049.86 601.632 1049.86C599.998 1049.86 598.385 1049.9 596.794 1049.99C595.245 1050.03 594.084 1050.07 593.31 1050.12ZM569.826 1050.12V1047.6C572.407 1047.56 574.192 1047.21 575.181 1046.57C576.213 1045.88 576.729 1044.67 576.729 1042.95V1025.02C576.729 1023 576.213 1021.58 575.181 1020.76C574.149 1019.9 572.364 1019.43 569.826 1019.34V1016.82C570.686 1016.87 571.568 1016.91 572.471 1016.95C573.374 1017 574.321 1017.02 575.31 1017.02C576.901 1017.02 578.385 1016.95 579.761 1016.82C581.181 1016.65 582.514 1016.42 583.761 1016.12V1042.95C583.761 1044.67 584.084 1045.88 584.729 1046.57C585.417 1047.21 586.665 1047.56 588.471 1047.6V1050.12C587.482 1050.07 586.256 1050.03 584.794 1049.99C583.331 1049.9 581.804 1049.86 580.213 1049.86C578.407 1049.86 576.536 1049.9 574.6 1049.99C572.665 1050.03 571.073 1050.07 569.826 1050.12ZM632.11 1051.02C630.217 1051.02 628.647 1050.8 627.4 1050.37C626.153 1049.99 625.12 1049.62 624.303 1049.28C623.486 1048.89 622.776 1048.7 622.174 1048.7C621.185 1048.7 620.454 1049.36 619.981 1050.7H617.529C617.615 1049.62 617.68 1048.48 617.723 1047.28C617.766 1046.03 617.787 1044.63 617.787 1043.08C617.83 1041.53 617.83 1039.77 617.787 1037.79H620.239C620.884 1041.36 622.11 1044.03 623.916 1045.79C625.766 1047.56 628.217 1048.44 631.271 1048.44C633.465 1048.44 635.142 1047.99 636.303 1047.08C637.508 1046.14 638.11 1044.82 638.11 1043.15C638.11 1041.51 637.486 1040.2 636.239 1039.21C634.991 1038.18 632.819 1037.21 629.723 1036.31C625.809 1035.19 622.948 1033.75 621.142 1031.99C619.336 1030.22 618.432 1028.01 618.432 1025.34C618.432 1022.5 619.379 1020.22 621.271 1018.5C623.163 1016.78 625.701 1015.92 628.884 1015.92C630.604 1015.92 632.045 1016.12 633.206 1016.5C634.368 1016.89 635.357 1017.3 636.174 1017.73C636.991 1018.12 637.723 1018.31 638.368 1018.31C638.798 1018.31 639.163 1018.16 639.465 1017.86C639.766 1017.51 640.024 1017 640.239 1016.31H642.755C642.669 1017.21 642.604 1018.18 642.561 1019.21C642.518 1020.2 642.475 1021.36 642.432 1022.7C642.432 1023.99 642.454 1025.6 642.497 1027.53H639.981C639.508 1024.7 638.346 1022.48 636.497 1020.89C634.647 1019.26 632.454 1018.44 629.916 1018.44C628.11 1018.44 626.69 1018.87 625.658 1019.73C624.669 1020.55 624.174 1021.73 624.174 1023.28C624.174 1024.91 624.841 1026.27 626.174 1027.34C627.551 1028.42 629.895 1029.43 633.206 1030.37C636.948 1031.41 639.658 1032.74 641.336 1034.37C643.013 1036.01 643.852 1038.18 643.852 1040.89C643.852 1044.03 642.798 1046.5 640.69 1048.31C638.626 1050.12 635.766 1051.02 632.11 1051.02ZM667.843 1051.02C664.703 1051.02 661.972 1050.33 659.65 1048.95C657.327 1047.53 655.52 1045.51 654.23 1042.89C652.983 1040.27 652.359 1037.17 652.359 1033.6C652.359 1029.94 653.004 1026.8 654.295 1024.18C655.585 1021.51 657.434 1019.47 659.843 1018.05C662.252 1016.63 665.09 1015.92 668.359 1015.92C671.241 1015.92 673.714 1016.48 675.779 1017.6C677.843 1018.67 679.413 1020.37 680.488 1022.7C681.564 1025.02 682.058 1028.03 681.972 1031.73H657.198L657.133 1029.28H675.069C675.112 1027.21 674.897 1025.36 674.424 1023.73C673.951 1022.09 673.176 1020.8 672.101 1019.86C671.069 1018.91 669.736 1018.44 668.101 1018.44C666.037 1018.44 664.209 1019.36 662.617 1021.21C661.069 1023.02 660.144 1025.9 659.843 1029.86L659.972 1030.05C659.929 1030.48 659.886 1030.95 659.843 1031.47C659.843 1031.94 659.843 1032.48 659.843 1033.08C659.843 1037.51 660.703 1040.98 662.424 1043.47C664.187 1045.92 666.682 1047.15 669.908 1047.15C672.058 1047.15 673.951 1046.61 675.585 1045.53C677.262 1044.46 678.66 1042.8 679.779 1040.57L682.037 1041.92C680.875 1044.8 679.047 1047.04 676.553 1048.63C674.101 1050.22 671.198 1051.02 667.843 1051.02ZM704.766 1051.02C702.873 1051.02 701.304 1050.8 700.056 1050.37C698.809 1049.99 697.777 1049.62 696.96 1049.28C696.142 1048.89 695.433 1048.7 694.83 1048.7C693.841 1048.7 693.11 1049.36 692.637 1050.7H690.185C690.271 1049.62 690.336 1048.48 690.379 1047.28C690.422 1046.03 690.443 1044.63 690.443 1043.08C690.486 1041.53 690.486 1039.77 690.443 1037.79H692.895C693.54 1041.36 694.766 1044.03 696.572 1045.79C698.422 1047.56 700.873 1048.44 703.927 1048.44C706.121 1048.44 707.798 1047.99 708.96 1047.08C710.164 1046.14 710.766 1044.82 710.766 1043.15C710.766 1041.51 710.142 1040.2 708.895 1039.21C707.648 1038.18 705.476 1037.21 702.379 1036.31C698.465 1035.19 695.605 1033.75 693.798 1031.99C691.992 1030.22 691.089 1028.01 691.089 1025.34C691.089 1022.5 692.035 1020.22 693.927 1018.5C695.82 1016.78 698.357 1015.92 701.54 1015.92C703.261 1015.92 704.701 1016.12 705.863 1016.5C707.024 1016.89 708.013 1017.3 708.83 1017.73C709.648 1018.12 710.379 1018.31 711.024 1018.31C711.454 1018.31 711.82 1018.16 712.121 1017.86C712.422 1017.51 712.68 1017 712.895 1016.31H715.411C715.325 1017.21 715.261 1018.18 715.218 1019.21C715.175 1020.2 715.132 1021.36 715.089 1022.7C715.089 1023.99 715.11 1025.6 715.153 1027.53H712.637C712.164 1024.7 711.003 1022.48 709.153 1020.89C707.304 1019.26 705.11 1018.44 702.572 1018.44C700.766 1018.44 699.347 1018.87 698.314 1019.73C697.325 1020.55 696.83 1021.73 696.83 1023.28C696.83 1024.91 697.497 1026.27 698.83 1027.34C700.207 1028.42 702.551 1029.43 705.863 1030.37C709.605 1031.41 712.314 1032.74 713.992 1034.37C715.669 1036.01 716.508 1038.18 716.508 1040.89C716.508 1044.03 715.454 1046.5 713.347 1048.31C711.282 1050.12 708.422 1051.02 704.766 1051.02Z" fill="#1E1D1B"/>
<path d="M496.642 897.199C497.103 897.199 497.553 897.337 497.934 897.595C498.316 897.854 498.611 898.22 498.782 898.647C499.871 901.371 501.22 903.09 502.595 904.175C503.96 905.261 505.46 905.805 506.991 906.002C510.149 906.411 513.39 905.35 515.391 904.468L515.443 904.446C515.729 904.32 516.049 904.179 516.323 904.077H516.338C516.877 903.871 517.463 903.821 518.029 903.933C518.435 904.023 518.818 904.2 519.149 904.451C519.481 904.703 519.754 905.023 519.951 905.39C520.332 906.097 520.289 906.81 520.274 907.044V907.05C520.252 907.339 520.203 907.677 520.163 907.969L517.774 924.686L517.749 924.874C517.636 925.682 517.513 926.565 517.067 927.401C516.676 928.128 516.128 928.758 515.462 929.246C514.693 929.802 513.9 930.03 513.184 930.236L513.03 930.279C502.315 933.315 490.967 933.315 480.252 930.279L480.101 930.236C479.385 930.03 478.591 929.802 477.823 929.249C477.156 928.761 476.606 928.129 476.215 927.401C475.772 926.561 475.649 925.679 475.538 924.874L475.508 924.689L473.128 908.025L473.122 907.969C473.073 907.665 473.036 907.358 473.011 907.05V907.044C472.963 906.473 473.074 905.9 473.334 905.39C473.53 905.023 473.804 904.703 474.135 904.451C474.467 904.2 474.849 904.023 475.256 903.933C475.821 903.82 476.407 903.869 476.947 904.074L476.959 904.08C477.236 904.179 477.555 904.32 477.841 904.446L477.894 904.468C479.892 905.35 483.133 906.411 486.287 906.005C487.897 905.814 489.422 905.181 490.693 904.175C492.061 903.09 493.411 901.371 494.502 898.647C494.674 898.22 494.969 897.854 495.35 897.595C495.732 897.337 496.182 897.199 496.642 897.199ZM477.992 909.461L480.076 924.034C480.15 924.563 480.19 924.84 480.236 925.049L480.295 925.246L480.322 925.289C480.37 925.355 480.425 925.417 480.485 925.473L480.522 925.51C480.573 925.543 480.627 925.569 480.685 925.587C480.851 925.648 481.073 925.716 481.531 925.848C491.411 928.644 501.874 928.644 511.754 925.848C512.039 925.771 512.321 925.684 512.599 925.587C512.656 925.569 512.71 925.543 512.759 925.51L512.799 925.476C512.86 925.419 512.914 925.356 512.962 925.289L512.993 925.246L513.005 925.209L513.048 925.049C513.091 924.84 513.134 924.563 513.208 924.034L515.29 909.461C512.947 910.275 509.74 911.007 506.401 910.577C503.963 910.28 501.654 909.316 499.729 907.791C498.539 906.834 497.499 905.704 496.642 904.44C495.716 905.787 494.687 906.904 493.555 907.791C491.629 909.315 489.321 910.278 486.884 910.577C483.545 911.007 480.338 910.275 477.992 909.461Z" fill="#1E1D1B"/>
<path d="M477.992 909.461L480.076 924.034C480.15 924.563 480.19 924.84 480.236 925.049L480.295 925.246L480.322 925.289C480.37 925.355 480.425 925.417 480.485 925.473L480.522 925.51C480.573 925.543 480.627 925.569 480.685 925.587C480.851 925.648 481.073 925.716 481.531 925.848C491.411 928.644 501.874 928.644 511.754 925.848C512.039 925.771 512.321 925.684 512.599 925.587C512.656 925.569 512.71 925.543 512.759 925.51L512.799 925.476C512.86 925.419 512.914 925.356 512.962 925.289L512.993 925.246L513.005 925.209L513.048 925.049C513.091 924.84 513.134 924.563 513.208 924.034L515.29 909.461C512.947 910.275 509.74 911.007 506.401 910.577C503.963 910.28 501.654 909.316 499.729 907.791C498.539 906.834 497.499 905.704 496.642 904.44C495.716 905.787 494.687 906.904 493.555 907.791C491.629 909.315 489.321 910.278 486.884 910.577C483.545 911.007 480.338 910.275 477.992 909.461Z" fill="#1E1D1B"/>
</g>
<defs>
<clipPath id="clip0_90_2">
<rect width="776.25" height="1207.5" fill="white"/>
</clipPath>
</defs>
</svg>
