<svg width="389" height="1208" viewBox="0 0 389 1208" fill="none" xmlns="http://www.w3.org/2000/svg">
<g clip-path="url(#clip0_90_381)">
<rect width="388.125" height="1207.5" fill="white"/>
<path d="M-192.35 237.866C-184.639 241.721 -178.855 254.252 -178.855 260.035C-178.855 276.422 -175.523 282.07 -163.433 283.169C-152.83 284.133 -140.146 276.113 -133.552 263.891C-127.821 253.269 -127.769 240.757 -131.624 233.046C-135.179 225.937 -149.359 215.146 -148.011 201.237C-147.118 192.022 -137.408 180.032 -137.408 180.032C-137.408 180.032 -136.981 194.669 -131.624 203.165C-126.043 212.018 -116.202 217.624 -112.346 222.443C-107.643 228.322 -101.743 240.462 -98.8517 240.757C-91.1405 241.545 -88.2488 227.263 -89.2127 215.696C-90.4109 201.318 -99.4648 190.59 -98.8517 176.176C-97.9351 154.624 -81.5015 145.331 -71.8625 131.836C-63.3184 119.875 -63.1874 95.2083 -63.1874 95.2083C-63.1874 95.2083 -50.7385 113.068 -49.6928 127.017C-48.2555 146.191 -68.0069 150.151 -68.0069 173.284C-68.0069 200.281 -58.1852 199.133 -50.6567 215.696C-45.8372 226.299 -45.8372 249.432 -28.487 254.252C-11.1368 259.071 2.35783 244.638 2.35783 226.299C2.35783 209.912 -5.35338 197.382 -5.35338 197.382C-5.35338 197.382 13.686 204.602 20.6719 215.696C29.7781 230.157 21.6358 250.396 26.4553 260.999C30.1709 269.174 37.721 273.301 46.6973 273.53C53.1275 273.694 57.343 271.091 62.1197 266.783C68.8401 260.722 69.8309 256.18 67.9031 246.541C66.0575 237.313 63.8406 230.932 67.9031 222.443C72.1932 213.479 88.145 207.021 88.145 207.021C88.145 207.021 78.506 221.479 79.4699 233.046C79.9902 239.289 88.3328 247.132 96.8201 250.396C109.351 255.216 115.134 263.891 117.062 283.169C134.412 277.386 147.907 233.046 145.979 215.696C155.994 224.215 161.401 234.01 159.474 246.541C155.959 269.385 163.35 296.672 186.463 296.664C198.753 296.659 209.348 294.238 216.344 284.133C225.019 271.602 213.428 252.965 225.019 240.757C231.514 233.917 242.379 237.804 246.225 229.19C250.4 219.84 245.256 211.835 238.513 204.129C231.766 196.418 225.019 190.634 225.019 190.634C225.019 190.634 250.428 194.38 259.719 207.021C270.128 221.182 264.539 234.974 267.43 251.36C269.433 262.707 277.384 266.414 287.672 271.602C285.745 225.335 323.337 216.66 323.337 216.66C323.337 216.66 306.95 241.721 329.12 258.108C342.615 261.963 351.43 255.732 360.929 246.541C373.928 233.963 363.12 213.816 372.496 200.274C381.171 187.743 400.449 186.779 400.449 186.779C400.449 186.779 382.135 203.165 385.99 218.588C390.033 234.759 407.117 244.321 423.582 241.721C441.896 238.83 445.752 225.335 444.788 208.949C444.074 196.807 447.21 192.887 455.391 183.887C465.03 173.284 475.633 173.441 475.633 161.717C475.633 147.259 475.602 145.268 470.814 135.692C466.958 127.981 461.175 119.306 461.175 119.306C461.175 119.306 489.359 131.418 493.947 152.079C498.284 171.61 485.272 186.779 485.272 208.949C485.272 219.576 488.122 228.013 493.947 236.902C499 244.613 506.478 245.577 511.297 244.613V1466.32H-192.35V237.866Z" fill="#FF9FB7" stroke="#FF9FB7" stroke-width="3.8556" stroke-linecap="round" stroke-linejoin="round"/>
<path d="M637.692 711.679L241 732.558C241 732.558 575.056 704.72 575.056 647.884C575.056 603.435 487.8 564.662 449.764 549.872C439.016 546.083 432.386 543.491 432.386 543.491C432.386 543.491 439.164 545.75 449.764 549.872C490.864 564.361 592.186 596.353 613.333 567.849C640.011 531.892 529.819 311.508 529.819 311.508C529.819 311.508 646.971 525.734 695.687 513.333C744.404 500.933 752.523 141 752.523 141C752.523 141 758.323 503.732 803.56 517.973C848.796 532.214 972.908 253.512 972.908 253.512C972.908 253.512 856.502 535.372 884.754 573.649C911.339 609.668 1049.14 539.896 1065.31 531.539C1066.32 531.007 1066.86 530.732 1066.86 530.732C1066.86 530.732 1066.33 531.015 1065.31 531.539C1051.11 539.018 944.14 597.213 947.389 651.363C950.869 709.359 1358 711.679 1358 711.679H863.875C863.875 711.679 856.916 586.408 752.523 586.408C637.587 586.408 637.692 711.679 637.692 711.679Z" fill="#EB75A0"/>
<path d="M241 732.558L637.692 711.679C637.692 711.679 637.587 586.408 752.523 586.408C856.916 586.408 863.875 711.679 863.875 711.679H1358C1358 711.679 950.869 709.359 947.389 651.363C943.91 593.368 1066.86 530.732 1066.86 530.732C1066.86 530.732 913.006 611.926 884.754 573.649C856.502 535.372 972.908 253.512 972.908 253.512C972.908 253.512 848.796 532.214 803.56 517.973C758.323 503.732 752.523 141 752.523 141C752.523 141 744.404 500.933 695.687 513.333C646.971 525.734 529.819 311.508 529.819 311.508C529.819 311.508 640.011 531.892 613.333 567.849C586.655 603.807 432.386 543.491 432.386 543.491C432.386 543.491 575.056 591.048 575.056 647.884C575.056 704.72 241 732.558 241 732.558Z" stroke="#EB75A0" stroke-width="6.9595" stroke-linejoin="round"/>
<line x1="348.62" y1="754.155" x2="343.196" y2="772.574" stroke="#D33871" stroke-width="5.5" stroke-linecap="round"/>
<line x1="354.545" y1="752.842" x2="348.718" y2="775.327" stroke="#D33871" stroke-width="5.5" stroke-linecap="round"/>
<line x1="359.765" y1="750.186" x2="353.843" y2="777.858" stroke="#D33871" stroke-width="5.5" stroke-linecap="round"/>
<line x1="366.195" y1="746.861" x2="360.197" y2="776.393" stroke="#D33871" stroke-width="5.5" stroke-linecap="round"/>
<line x1="373.356" y1="742.744" x2="364.033" y2="778.482" stroke="#D33871" stroke-width="5.5" stroke-linecap="round"/>
<line x1="385.877" y1="738.417" x2="374.349" y2="779.584" stroke="#D33871" stroke-width="5.5" stroke-linecap="round"/>
<line x1="397.281" y1="726.338" x2="383.302" y2="779.435" stroke="#D33871" stroke-width="5.5" stroke-linecap="round"/>
<line x1="405.743" y1="720.819" x2="389.66" y2="780.824" stroke="#D33871" stroke-width="5.5" stroke-linecap="round"/>
<line x1="342.225" y1="796.673" x2="334.193" y2="803.33" stroke="#D33871" stroke-width="5.5" stroke-linecap="round"/>
<line x1="348.616" y1="799.746" x2="336.357" y2="812.464" stroke="#D33871" stroke-width="5.5" stroke-linecap="round"/>
<line x1="361.586" y1="806.601" x2="336.379" y2="827.492" stroke="#D33871" stroke-width="5.5" stroke-linecap="round"/>
<line x1="369.94" y1="810.397" x2="343.652" y2="845.371" stroke="#D33871" stroke-width="5.5" stroke-linecap="round"/>
<line x1="374.39" y1="821.098" x2="343.833" y2="863.27" stroke="#D33871" stroke-width="5.5" stroke-linecap="round"/>
<line x1="384.553" y1="826.235" x2="355.355" y2="869.08" stroke="#D33871" stroke-width="5.5" stroke-linecap="round"/>
<line x1="392.027" y1="830.048" x2="355.188" y2="884.956" stroke="#D33871" stroke-width="5.5" stroke-linecap="round"/>
<line x1="397.308" y1="832.417" x2="363.351" y2="898.635" stroke="#D33871" stroke-width="5.5" stroke-linecap="round"/>
<line x1="409.099" y1="842.906" x2="372.363" y2="903.483" stroke="#D33871" stroke-width="5.5" stroke-linecap="round"/>
<line x1="419.007" y1="851.538" x2="388.296" y2="911.427" stroke="#D33871" stroke-width="5.5" stroke-linecap="round"/>
<line x1="401.919" y1="839.012" x2="369.68" y2="901.88" stroke="#D33871" stroke-width="5.5" stroke-linecap="round"/>
</g>
<defs>
<clipPath id="clip0_90_381">
<rect width="388.125" height="1207.5" fill="white"/>
</clipPath>
</defs>
</svg>
