<svg width="203" height="155" viewBox="0 0 203 155" fill="none" xmlns="http://www.w3.org/2000/svg">
<path d="M62.23 9.01674C53.311 9.34334 34.6999 9.5288 28.1325 9.56666C24.2793 9.58887 20.9745 8.61443 17.9145 9.06926C16.6038 9.26408 15.9042 9.96606 14.4597 23.2117C13.0152 36.4574 10.8775 62.3739 9.84263 76.7413C8.66255 93.1242 8.95548 97.2862 9.05321 104.712C9.23793 118.75 10.7207 128.377 11.3055 131.413C12.4639 137.428 12.3951 142.189 13.5157 143.659C15.0659 145.692 18.5547 145.917 29.912 145.563C39.7363 145.257 57.7716 143.877 67.5834 143.365C77.3952 142.852 78.4283 143.04 79.4771 143.231C80.5258 143.421 81.559 143.609 84.1636 143.702" stroke="#FF9FB7" stroke-width="17.8976" stroke-linecap="round"/>
<path d="M140.86 144.026C149.643 143.705 167.971 143.522 174.438 143.485C178.233 143.463 181.487 144.423 184.501 143.975C185.791 143.783 186.48 143.092 187.903 130.048C189.325 117.004 191.43 91.4822 192.45 77.3337C193.612 61.2004 193.323 57.1018 193.227 49.7891C193.045 35.9655 191.585 26.4845 191.009 23.4947C189.868 17.5716 189.936 12.8832 188.832 11.4358C187.306 9.43349 183.87 9.2119 172.686 9.56068C163.011 9.86239 145.251 11.2209 135.589 11.7255C125.926 12.2302 124.909 12.0452 123.876 11.8574C122.843 11.6697 121.826 11.4847 119.261 11.3931" stroke="#FF9FB7" stroke-width="17.8976" stroke-linecap="round"/>
<path d="M86.3804 57.2451C86.3112 56.1851 86.3557 53.6124 87.5443 50.5342C88.6374 47.7031 90.1477 46.0708 91.7556 44.4656C94.7216 41.5045 96.7986 41.2372 98.7771 40.3588C102.633 38.647 106.752 39.4044 109.647 40.2302C113.892 41.4409 115.296 43.7742 116.835 45.1211C119.016 47.0314 119.245 53.2358 118.889 57.58C118.696 59.9237 115.899 62.4851 114.072 64.2253C112.04 66.1605 110.048 68.2378 106.557 72.1561C104.808 74.119 103.797 76.0428 102.455 79.2323C101.625 82.1891 101.362 84.7695 101.26 87.2976C101.278 88.4156 101.403 90.3179 101.53 92.2779" stroke="#FF9FB7" stroke-width="17.8976" stroke-linecap="round"/>
<path d="M102.567 117.938C102.581 118.149 102.82 118.561 103.383 119.007C103.665 119.23 104.136 119.122 104.344 118.949C104.551 118.776 104.531 118.459 104.256 118.313C103.981 118.167 103.452 118.201 103.191 118.378C102.929 118.554 102.949 118.871 103.224 119.017C103.499 119.163 104.028 119.129 104.289 118.952C104.551 118.776 104.531 118.459 104.358 118.253C104.185 118.047 103.861 117.962 103.528 117.875" stroke="#FF9FB7" stroke-width="17.8976" stroke-linecap="round"/>
</svg>
