<svg width="675" height="1050" viewBox="0 0 675 1050" fill="none" xmlns="http://www.w3.org/2000/svg">
<g clip-path="url(#clip0_90_677)">
<rect width="675" height="1050" rx="18.9" fill="white"/>
<path d="M5.70544 58.611C5.70895 59.8547 5.46579 61.0868 4.99005 62.2359C4.51432 63.385 3.81544 64.4283 2.93384 65.3056L-54.0708 122.316C-55.85 124.085 -58.2567 125.078 -60.7654 125.078C-63.2741 125.078 -65.6808 124.085 -67.46 122.316L-124.435 65.3056C-126.204 63.5264 -127.196 61.1197 -127.196 58.611C-127.196 56.1024 -126.204 53.6956 -124.435 51.9165L-67.4303 -5.09415C-65.6511 -6.86276 -63.2444 -7.85547 -60.7357 -7.85547C-58.2271 -7.85547 -55.8203 -6.86276 -54.0412 -5.09415L2.96352 51.9165C3.83975 52.7962 4.53317 53.8406 5.00377 54.9896C5.47436 56.1386 5.71284 57.3694 5.70544 58.611Z" fill="#1E1D1B"/>
<path d="M138.607 58.611C138.611 59.8547 138.368 61.0868 137.892 62.2359C137.416 63.385 136.717 64.4283 135.836 65.3056L78.831 122.316C77.0519 124.085 74.6451 125.078 72.1365 125.078C69.6278 125.078 67.2211 124.085 65.4419 122.316L8.46689 65.3056C6.69828 63.5264 5.70557 61.1197 5.70557 58.611C5.70557 56.1024 6.69828 53.6956 8.46689 51.9165L65.4716 -5.09415C67.2507 -6.86276 69.6575 -7.85547 72.1661 -7.85547C74.6748 -7.85547 77.0815 -6.86276 78.8607 -5.09415L135.865 51.9165C136.742 52.7962 137.435 53.8406 137.906 54.9896C138.376 56.1386 138.615 57.3694 138.607 58.611Z" fill="#1E1D1B"/>
<path d="M271.509 58.611C271.513 59.8547 271.27 61.0868 270.794 62.2359C270.318 63.385 269.619 64.4283 268.738 65.3056L211.733 122.316C209.954 124.085 207.547 125.078 205.038 125.078C202.53 125.078 200.123 124.085 198.344 122.316L141.369 65.3056C139.6 63.5264 138.607 61.1197 138.607 58.611C138.607 56.1024 139.6 53.6956 141.369 51.9165L198.373 -5.09415C200.153 -6.86276 202.559 -7.85547 205.068 -7.85547C207.577 -7.85547 209.983 -6.86276 211.763 -5.09415L268.767 51.9165C269.643 52.7962 270.337 53.8406 270.807 54.9896C271.278 56.1386 271.517 57.3694 271.509 58.611Z" fill="#1E1D1B"/>
<path d="M404.411 58.611C404.415 59.8547 404.172 61.0868 403.696 62.2359C403.22 63.385 402.521 64.4283 401.64 65.3056L344.635 122.316C342.856 124.085 340.449 125.078 337.941 125.078C335.432 125.078 333.025 124.085 331.246 122.316L274.271 65.3056C272.502 63.5264 271.51 61.1197 271.51 58.611C271.51 56.1024 272.502 53.6956 274.271 51.9165L331.276 -5.09415C333.055 -6.86276 335.462 -7.85547 337.97 -7.85547C340.479 -7.85547 342.886 -6.86276 344.665 -5.09415L401.67 51.9165C402.546 52.7962 403.239 53.8406 403.71 54.9896C404.18 56.1386 404.419 57.3694 404.411 58.611Z" fill="#1E1D1B"/>
<path d="M537.313 58.611C537.317 59.8547 537.074 61.0868 536.598 62.2359C536.122 63.385 535.423 64.4283 534.542 65.3056L477.537 122.316C475.758 124.085 473.351 125.078 470.843 125.078C468.334 125.078 465.927 124.085 464.148 122.316L407.173 65.3056C405.404 63.5264 404.412 61.1197 404.412 58.611C404.412 56.1024 405.404 53.6956 407.173 51.9165L464.178 -5.09415C465.957 -6.86276 468.364 -7.85547 470.872 -7.85547C473.381 -7.85547 475.788 -6.86276 477.567 -5.09415L534.571 51.9165C535.448 52.7962 536.141 53.8406 536.612 54.9896C537.082 56.1386 537.321 57.3694 537.313 58.611Z" fill="#1E1D1B"/>
<path d="M670.215 58.611C670.219 59.8547 669.976 61.0868 669.5 62.2359C669.024 63.385 668.325 64.4283 667.444 65.3056L610.439 122.316C608.66 124.085 606.253 125.078 603.744 125.078C601.236 125.078 598.829 124.085 597.05 122.316L540.075 65.3056C538.306 63.5264 537.313 61.1197 537.313 58.611C537.313 56.1024 538.306 53.6956 540.075 51.9165L597.079 -5.09415C598.859 -6.86276 601.265 -7.85547 603.774 -7.85547C606.283 -7.85547 608.689 -6.86276 610.469 -5.09415L667.473 51.9165C668.35 52.7962 669.043 53.8406 669.514 54.9896C669.984 56.1386 670.223 57.3694 670.215 58.611Z" fill="#1E1D1B"/>
<path d="M803.117 58.611C803.121 59.8547 802.877 61.0868 802.402 62.2359C801.926 63.385 801.227 64.4283 800.345 65.3056L743.341 122.316C741.562 124.085 739.155 125.078 736.646 125.078C734.138 125.078 731.731 124.085 729.952 122.316L672.977 65.3056C671.208 63.5264 670.215 61.1197 670.215 58.611C670.215 56.1024 671.208 53.6956 672.977 51.9165L729.981 -5.09415C731.76 -6.86276 734.167 -7.85547 736.676 -7.85547C739.185 -7.85547 741.591 -6.86276 743.37 -5.09415L800.375 51.9165C801.251 52.7962 801.945 53.8406 802.415 54.9896C802.886 56.1386 803.124 57.3694 803.117 58.611Z" fill="#1E1D1B"/>
<path d="M5.70544 191.545C5.70895 192.788 5.46579 194.02 4.99005 195.169C4.51432 196.319 3.81544 197.362 2.93384 198.239L-54.0708 255.25C-55.85 257.018 -58.2567 258.011 -60.7654 258.011C-63.2741 258.011 -65.6808 257.018 -67.46 255.25L-124.435 198.239C-126.204 196.46 -127.196 194.053 -127.196 191.545C-127.196 189.036 -126.204 186.629 -124.435 184.85L-67.4303 127.839C-65.6511 126.071 -63.2444 125.078 -60.7357 125.078C-58.2271 125.078 -55.8203 126.071 -54.0412 127.839L2.96352 184.85C3.83975 185.73 4.53317 186.774 5.00377 187.923C5.47436 189.072 5.71284 190.303 5.70544 191.545Z" fill="#1E1D1B"/>
<path d="M138.608 191.545C138.611 192.788 138.368 194.02 137.892 195.169C137.417 196.319 136.718 197.362 135.836 198.239L78.8315 255.25C77.0523 257.018 74.6456 258.011 72.1369 258.011C69.6283 258.011 67.2215 257.018 65.4424 255.25L8.46737 198.239C6.69877 196.46 5.70605 194.053 5.70605 191.545C5.70605 189.036 6.69877 186.629 8.46737 184.85L65.4721 127.839C67.2512 126.071 69.658 125.078 72.1666 125.078C74.6753 125.078 77.082 126.071 78.8612 127.839L135.866 184.85C136.742 185.73 137.436 186.774 137.906 187.923C138.377 189.072 138.615 190.303 138.608 191.545Z" fill="#1E1D1B"/>
<path d="M271.509 191.545C271.513 192.788 271.27 194.02 270.794 195.169C270.318 196.319 269.619 197.362 268.738 198.239L211.733 255.25C209.954 257.018 207.547 258.011 205.038 258.011C202.53 258.011 200.123 257.018 198.344 255.25L141.369 198.239C139.6 196.46 138.607 194.053 138.607 191.545C138.607 189.036 139.6 186.629 141.369 184.85L198.373 127.839C200.153 126.071 202.559 125.078 205.068 125.078C207.577 125.078 209.983 126.071 211.763 127.839L268.767 184.85C269.643 185.73 270.337 186.774 270.807 187.923C271.278 189.072 271.517 190.303 271.509 191.545Z" fill="#1E1D1B"/>
<path d="M404.411 191.545C404.415 192.788 404.172 194.02 403.696 195.169C403.22 196.319 402.521 197.362 401.64 198.239L344.635 255.25C342.856 257.018 340.449 258.011 337.941 258.011C335.432 258.011 333.025 257.018 331.246 255.25L274.271 198.239C272.502 196.46 271.51 194.053 271.51 191.545C271.51 189.036 272.502 186.629 274.271 184.85L331.276 127.839C333.055 126.071 335.462 125.078 337.97 125.078C340.479 125.078 342.886 126.071 344.665 127.839L401.67 184.85C402.546 185.73 403.239 186.774 403.71 187.923C404.18 189.072 404.419 190.303 404.411 191.545Z" fill="#1E1D1B"/>
<path d="M537.313 191.545C537.317 192.788 537.074 194.02 536.598 195.169C536.122 196.319 535.423 197.362 534.542 198.239L477.537 255.25C475.758 257.018 473.351 258.011 470.843 258.011C468.334 258.011 465.927 257.018 464.148 255.25L407.173 198.239C405.404 196.46 404.412 194.053 404.412 191.545C404.412 189.036 405.404 186.629 407.173 184.85L464.178 127.839C465.957 126.071 468.364 125.078 470.872 125.078C473.381 125.078 475.788 126.071 477.567 127.839L534.571 184.85C535.448 185.73 536.141 186.774 536.612 187.923C537.082 189.072 537.321 190.303 537.313 191.545Z" fill="#1E1D1B"/>
<path d="M670.215 191.545C670.219 192.788 669.976 194.02 669.5 195.169C669.024 196.319 668.325 197.362 667.444 198.239L610.439 255.25C608.66 257.018 606.253 258.011 603.744 258.011C601.236 258.011 598.829 257.018 597.05 255.25L540.075 198.239C538.306 196.46 537.313 194.053 537.313 191.545C537.313 189.036 538.306 186.629 540.075 184.85L597.079 127.839C598.859 126.071 601.265 125.078 603.774 125.078C606.283 125.078 608.689 126.071 610.469 127.839L667.473 184.85C668.35 185.73 669.043 186.774 669.514 187.923C669.984 189.072 670.223 190.303 670.215 191.545Z" fill="#1E1D1B"/>
<path d="M803.117 191.545C803.12 192.788 802.877 194.02 802.401 195.169C801.925 196.319 801.227 197.362 800.345 198.239L743.34 255.25C741.561 257.018 739.154 258.011 736.646 258.011C734.137 258.011 731.73 257.018 729.951 255.25L672.976 198.239C671.208 196.46 670.215 194.053 670.215 191.545C670.215 189.036 671.208 186.629 672.976 184.85L729.981 127.839C731.76 126.071 734.167 125.078 736.675 125.078C739.184 125.078 741.591 126.071 743.37 127.839L800.375 184.85C801.251 185.73 801.944 186.774 802.415 187.923C802.885 189.072 803.124 190.303 803.117 191.545Z" fill="#1E1D1B"/>
<path d="M5.70544 324.478C5.70895 325.722 5.46579 326.954 4.99005 328.103C4.51432 329.252 3.81544 330.296 2.93384 331.173L-54.0708 388.183C-55.85 389.952 -58.2567 390.945 -60.7654 390.945C-63.2741 390.945 -65.6808 389.952 -67.46 388.183L-124.435 331.173C-126.204 329.394 -127.196 326.987 -127.196 324.478C-127.196 321.97 -126.204 319.563 -124.435 317.784L-67.4303 260.773C-65.6511 259.004 -63.2444 258.012 -60.7357 258.012C-58.2271 258.012 -55.8203 259.004 -54.0412 260.773L2.96352 317.784C3.83975 318.663 4.53317 319.708 5.00377 320.857C5.47436 322.006 5.71284 323.237 5.70544 324.478Z" fill="#1E1D1B"/>
<path d="M138.607 324.478C138.611 325.722 138.368 326.954 137.892 328.103C137.416 329.252 136.717 330.296 135.836 331.173L78.831 388.183C77.0519 389.952 74.6451 390.945 72.1365 390.945C69.6278 390.945 67.2211 389.952 65.4419 388.183L8.46689 331.173C6.69828 329.394 5.70557 326.987 5.70557 324.478C5.70557 321.97 6.69828 319.563 8.46689 317.784L65.4716 260.773C67.2507 259.004 69.6575 258.012 72.1661 258.012C74.6748 258.012 77.0815 259.004 78.8607 260.773L135.865 317.784C136.742 318.663 137.435 319.708 137.906 320.857C138.376 322.006 138.615 323.237 138.607 324.478Z" fill="#1E1D1B"/>
<path d="M271.509 324.478C271.513 325.722 271.27 326.954 270.794 328.103C270.318 329.252 269.619 330.296 268.738 331.173L211.733 388.183C209.954 389.952 207.547 390.945 205.038 390.945C202.53 390.945 200.123 389.952 198.344 388.183L141.369 331.173C139.6 329.394 138.607 326.987 138.607 324.478C138.607 321.97 139.6 319.563 141.369 317.784L198.373 260.773C200.153 259.004 202.559 258.012 205.068 258.012C207.577 258.012 209.983 259.004 211.763 260.773L268.767 317.784C269.643 318.663 270.337 319.708 270.807 320.857C271.278 322.006 271.517 323.237 271.509 324.478Z" fill="#1E1D1B"/>
<path d="M404.411 324.478C404.415 325.722 404.172 326.954 403.696 328.103C403.22 329.252 402.521 330.296 401.64 331.173L344.635 388.183C342.856 389.952 340.449 390.945 337.941 390.945C335.432 390.945 333.025 389.952 331.246 388.183L274.271 331.173C272.502 329.394 271.51 326.987 271.51 324.478C271.51 321.97 272.502 319.563 274.271 317.784L331.276 260.773C333.055 259.004 335.462 258.012 337.97 258.012C340.479 258.012 342.886 259.004 344.665 260.773L401.67 317.784C402.546 318.663 403.239 319.708 403.71 320.857C404.18 322.006 404.419 323.237 404.411 324.478Z" fill="#1E1D1B"/>
<path d="M537.313 324.478C537.317 325.722 537.074 326.954 536.598 328.103C536.122 329.252 535.423 330.296 534.542 331.173L477.537 388.183C475.758 389.952 473.351 390.945 470.843 390.945C468.334 390.945 465.927 389.952 464.148 388.183L407.173 331.173C405.404 329.394 404.412 326.987 404.412 324.478C404.412 321.97 405.404 319.563 407.173 317.784L464.178 260.773C465.957 259.004 468.364 258.012 470.872 258.012C473.381 258.012 475.788 259.004 477.567 260.773L534.571 317.784C535.448 318.663 536.141 319.708 536.612 320.857C537.082 322.006 537.321 323.237 537.313 324.478Z" fill="#1E1D1B"/>
<path d="M670.215 324.478C670.219 325.722 669.976 326.954 669.5 328.103C669.024 329.252 668.325 330.296 667.444 331.173L610.439 388.183C608.66 389.952 606.253 390.945 603.744 390.945C601.236 390.945 598.829 389.952 597.05 388.183L540.075 331.173C538.306 329.394 537.313 326.987 537.313 324.478C537.313 321.97 538.306 319.563 540.075 317.784L597.079 260.773C598.859 259.004 601.265 258.012 603.774 258.012C606.283 258.012 608.689 259.004 610.469 260.773L667.473 317.784C668.35 318.663 669.043 319.708 669.514 320.857C669.984 322.006 670.223 323.237 670.215 324.478Z" fill="#1E1D1B"/>
<path d="M803.117 324.478C803.121 325.722 802.877 326.954 802.402 328.103C801.926 329.252 801.227 330.296 800.345 331.173L743.341 388.183C741.562 389.952 739.155 390.945 736.646 390.945C734.138 390.945 731.731 389.952 729.952 388.183L672.977 331.173C671.208 329.394 670.215 326.987 670.215 324.478C670.215 321.97 671.208 319.563 672.977 317.784L729.981 260.773C731.76 259.004 734.167 258.012 736.676 258.012C739.185 258.012 741.591 259.004 743.37 260.773L800.375 317.784C801.251 318.663 801.945 319.708 802.415 320.857C802.886 322.006 803.124 323.237 803.117 324.478Z" fill="#1E1D1B"/>
<path d="M5.70544 457.412C5.70895 458.656 5.46579 459.888 4.99005 461.037C4.51432 462.186 3.81544 463.229 2.93384 464.106L-54.0708 521.117C-55.85 522.886 -58.2567 523.878 -60.7654 523.878C-63.2741 523.878 -65.6808 522.886 -67.46 521.117L-124.435 464.106C-126.204 462.327 -127.196 459.92 -127.196 457.412C-127.196 454.903 -126.204 452.496 -124.435 450.717L-67.4303 393.707C-65.6511 391.938 -63.2444 390.945 -60.7357 390.945C-58.2271 390.945 -55.8203 391.938 -54.0412 393.707L2.96352 450.717C3.83975 451.597 4.53317 452.641 5.00377 453.79C5.47436 454.939 5.71284 456.17 5.70544 457.412Z" fill="#1E1D1B"/>
<path d="M138.608 457.412C138.611 458.656 138.368 459.888 137.892 461.037C137.417 462.186 136.718 463.229 135.836 464.106L78.8315 521.117C77.0523 522.886 74.6456 523.878 72.1369 523.878C69.6283 523.878 67.2215 522.886 65.4424 521.117L8.46737 464.106C6.69877 462.327 5.70605 459.92 5.70605 457.412C5.70605 454.903 6.69877 452.496 8.46737 450.717L65.4721 393.707C67.2512 391.938 69.658 390.945 72.1666 390.945C74.6753 390.945 77.082 391.938 78.8612 393.707L135.866 450.717C136.742 451.597 137.436 452.641 137.906 453.79C138.377 454.939 138.615 456.17 138.608 457.412Z" fill="#1E1D1B"/>
<path d="M271.509 457.412C271.513 458.656 271.27 459.888 270.794 461.037C270.318 462.186 269.619 463.229 268.738 464.106L211.733 521.117C209.954 522.886 207.547 523.878 205.038 523.878C202.53 523.878 200.123 522.886 198.344 521.117L141.369 464.106C139.6 462.327 138.607 459.92 138.607 457.412C138.607 454.903 139.6 452.496 141.369 450.717L198.373 393.707C200.153 391.938 202.559 390.945 205.068 390.945C207.577 390.945 209.983 391.938 211.763 393.707L268.767 450.717C269.643 451.597 270.337 452.641 270.807 453.79C271.278 454.939 271.517 456.17 271.509 457.412Z" fill="#1E1D1B"/>
<path d="M404.411 457.412C404.415 458.656 404.172 459.888 403.696 461.037C403.22 462.186 402.521 463.229 401.64 464.106L344.635 521.117C342.856 522.886 340.449 523.878 337.941 523.878C335.432 523.878 333.025 522.886 331.246 521.117L274.271 464.106C272.502 462.327 271.51 459.92 271.51 457.412C271.51 454.903 272.502 452.496 274.271 450.717L331.276 393.707C333.055 391.938 335.462 390.945 337.97 390.945C340.479 390.945 342.886 391.938 344.665 393.707L401.67 450.717C402.546 451.597 403.239 452.641 403.71 453.79C404.18 454.939 404.419 456.17 404.411 457.412Z" fill="#1E1D1B"/>
<path d="M537.313 457.412C537.317 458.656 537.074 459.888 536.598 461.037C536.122 462.186 535.423 463.229 534.542 464.106L477.537 521.117C475.758 522.886 473.351 523.878 470.843 523.878C468.334 523.878 465.927 522.886 464.148 521.117L407.173 464.106C405.404 462.327 404.412 459.92 404.412 457.412C404.412 454.903 405.404 452.496 407.173 450.717L464.178 393.707C465.957 391.938 468.364 390.945 470.872 390.945C473.381 390.945 475.788 391.938 477.567 393.707L534.571 450.717C535.448 451.597 536.141 452.641 536.612 453.79C537.082 454.939 537.321 456.17 537.313 457.412Z" fill="#1E1D1B"/>
<path d="M670.215 457.412C670.219 458.656 669.976 459.888 669.5 461.037C669.024 462.186 668.325 463.229 667.444 464.106L610.439 521.117C608.66 522.886 606.253 523.878 603.744 523.878C601.236 523.878 598.829 522.886 597.05 521.117L540.075 464.106C538.306 462.327 537.313 459.92 537.313 457.412C537.313 454.903 538.306 452.496 540.075 450.717L597.079 393.707C598.859 391.938 601.265 390.945 603.774 390.945C606.283 390.945 608.689 391.938 610.469 393.707L667.473 450.717C668.35 451.597 669.043 452.641 669.514 453.79C669.984 454.939 670.223 456.17 670.215 457.412Z" fill="#1E1D1B"/>
<path d="M803.117 457.412C803.12 458.656 802.877 459.888 802.401 461.037C801.925 462.186 801.227 463.229 800.345 464.106L743.34 521.117C741.561 522.886 739.154 523.878 736.646 523.878C734.137 523.878 731.73 522.886 729.951 521.117L672.976 464.106C671.208 462.327 670.215 459.92 670.215 457.412C670.215 454.903 671.208 452.496 672.976 450.717L729.981 393.707C731.76 391.938 734.167 390.945 736.675 390.945C739.184 390.945 741.591 391.938 743.37 393.707L800.375 450.717C801.251 451.597 801.944 452.641 802.415 453.79C802.885 454.939 803.124 456.17 803.117 457.412Z" fill="#1E1D1B"/>
<path d="M5.70544 590.343C5.70895 591.587 5.46579 592.819 4.99005 593.968C4.51432 595.117 3.81544 596.161 2.93384 597.038L-54.0708 654.049C-55.85 655.817 -58.2567 656.81 -60.7654 656.81C-63.2741 656.81 -65.6808 655.817 -67.46 654.049L-124.435 597.038C-126.204 595.259 -127.196 592.852 -127.196 590.343C-127.196 587.835 -126.204 585.428 -124.435 583.649L-67.4303 526.638C-65.6511 524.87 -63.2444 523.877 -60.7357 523.877C-58.2271 523.877 -55.8203 524.87 -54.0412 526.638L2.96352 583.649C3.83975 584.529 4.53317 585.573 5.00377 586.722C5.47436 587.871 5.71284 589.102 5.70544 590.343Z" fill="#1E1D1B"/>
<path d="M138.607 590.343C138.611 591.587 138.368 592.819 137.892 593.968C137.416 595.117 136.717 596.161 135.836 597.038L78.831 654.049C77.0519 655.817 74.6451 656.81 72.1365 656.81C69.6278 656.81 67.2211 655.817 65.4419 654.049L8.46689 597.038C6.69828 595.259 5.70557 592.852 5.70557 590.343C5.70557 587.835 6.69828 585.428 8.46689 583.649L65.4716 526.638C67.2507 524.87 69.6575 523.877 72.1661 523.877C74.6748 523.877 77.0815 524.87 78.8607 526.638L135.865 583.649C136.742 584.529 137.435 585.573 137.906 586.722C138.376 587.871 138.615 589.102 138.607 590.343Z" fill="#1E1D1B"/>
<path d="M271.509 590.343C271.513 591.587 271.27 592.819 270.794 593.968C270.318 595.117 269.619 596.161 268.738 597.038L211.733 654.049C209.954 655.817 207.547 656.81 205.038 656.81C202.53 656.81 200.123 655.817 198.344 654.049L141.369 597.038C139.6 595.259 138.607 592.852 138.607 590.343C138.607 587.835 139.6 585.428 141.369 583.649L198.373 526.638C200.153 524.87 202.559 523.877 205.068 523.877C207.577 523.877 209.983 524.87 211.763 526.638L268.767 583.649C269.643 584.529 270.337 585.573 270.807 586.722C271.278 587.871 271.517 589.102 271.509 590.343Z" fill="#1E1D1B"/>
<path d="M404.411 590.343C404.415 591.587 404.172 592.819 403.696 593.968C403.22 595.117 402.521 596.161 401.64 597.038L344.635 654.049C342.856 655.817 340.449 656.81 337.941 656.81C335.432 656.81 333.025 655.817 331.246 654.049L274.271 597.038C272.502 595.259 271.51 592.852 271.51 590.343C271.51 587.835 272.502 585.428 274.271 583.649L331.276 526.638C333.055 524.87 335.462 523.877 337.97 523.877C340.479 523.877 342.886 524.87 344.665 526.638L401.67 583.649C402.546 584.529 403.239 585.573 403.71 586.722C404.18 587.871 404.419 589.102 404.411 590.343Z" fill="#1E1D1B"/>
<path d="M537.313 590.343C537.317 591.587 537.074 592.819 536.598 593.968C536.122 595.117 535.423 596.161 534.542 597.038L477.537 654.049C475.758 655.817 473.351 656.81 470.843 656.81C468.334 656.81 465.927 655.817 464.148 654.049L407.173 597.038C405.404 595.259 404.412 592.852 404.412 590.343C404.412 587.835 405.404 585.428 407.173 583.649L464.178 526.638C465.957 524.87 468.364 523.877 470.872 523.877C473.381 523.877 475.788 524.87 477.567 526.638L534.571 583.649C535.448 584.529 536.141 585.573 536.612 586.722C537.082 587.871 537.321 589.102 537.313 590.343Z" fill="#1E1D1B"/>
<path d="M670.215 590.343C670.219 591.587 669.976 592.819 669.5 593.968C669.024 595.117 668.325 596.161 667.444 597.038L610.439 654.049C608.66 655.817 606.253 656.81 603.744 656.81C601.236 656.81 598.829 655.817 597.05 654.049L540.075 597.038C538.306 595.259 537.313 592.852 537.313 590.343C537.313 587.835 538.306 585.428 540.075 583.649L597.079 526.638C598.859 524.87 601.265 523.877 603.774 523.877C606.283 523.877 608.689 524.87 610.469 526.638L667.473 583.649C668.35 584.529 669.043 585.573 669.514 586.722C669.984 587.871 670.223 589.102 670.215 590.343Z" fill="#1E1D1B"/>
<path d="M803.117 590.343C803.121 591.587 802.877 592.819 802.402 593.968C801.926 595.117 801.227 596.161 800.345 597.038L743.341 654.049C741.562 655.817 739.155 656.81 736.646 656.81C734.138 656.81 731.731 655.817 729.952 654.049L672.977 597.038C671.208 595.259 670.215 592.852 670.215 590.343C670.215 587.835 671.208 585.428 672.977 583.649L729.981 526.638C731.76 524.87 734.167 523.877 736.676 523.877C739.185 523.877 741.591 524.87 743.37 526.638L800.375 583.649C801.251 584.529 801.945 585.573 802.415 586.722C802.886 587.871 803.124 589.102 803.117 590.343Z" fill="#1E1D1B"/>
<path d="M5.70544 723.277C5.70895 724.521 5.46579 725.753 4.99005 726.902C4.51432 728.051 3.81544 729.094 2.93384 729.972L-54.0708 786.982C-55.85 788.751 -58.2567 789.744 -60.7654 789.744C-63.2741 789.744 -65.6808 788.751 -67.46 786.982L-124.435 729.972C-126.204 728.192 -127.196 725.786 -127.196 723.277C-127.196 720.768 -126.204 718.362 -124.435 716.582L-67.4303 659.572C-65.6511 657.803 -63.2444 656.811 -60.7357 656.811C-58.2271 656.811 -55.8203 657.803 -54.0412 659.572L2.96352 716.582C3.83975 717.462 4.53317 718.507 5.00377 719.656C5.47436 720.805 5.71284 722.035 5.70544 723.277Z" fill="#1E1D1B"/>
<path d="M138.608 723.277C138.611 724.521 138.368 725.753 137.892 726.902C137.417 728.051 136.718 729.094 135.836 729.972L78.8315 786.982C77.0523 788.751 74.6456 789.744 72.1369 789.744C69.6283 789.744 67.2215 788.751 65.4424 786.982L8.46737 729.972C6.69877 728.192 5.70605 725.786 5.70605 723.277C5.70605 720.768 6.69877 718.362 8.46737 716.582L65.4721 659.572C67.2512 657.803 69.658 656.811 72.1666 656.811C74.6753 656.811 77.082 657.803 78.8612 659.572L135.866 716.582C136.742 717.462 137.436 718.507 137.906 719.656C138.377 720.805 138.615 722.035 138.608 723.277Z" fill="#1E1D1B"/>
<path d="M271.509 723.277C271.513 724.521 271.27 725.753 270.794 726.902C270.318 728.051 269.619 729.094 268.738 729.972L211.733 786.982C209.954 788.751 207.547 789.744 205.038 789.744C202.53 789.744 200.123 788.751 198.344 786.982L141.369 729.972C139.6 728.192 138.607 725.786 138.607 723.277C138.607 720.768 139.6 718.362 141.369 716.582L198.373 659.572C200.153 657.803 202.559 656.811 205.068 656.811C207.577 656.811 209.983 657.803 211.763 659.572L268.767 716.582C269.643 717.462 270.337 718.507 270.807 719.656C271.278 720.805 271.517 722.035 271.509 723.277Z" fill="#1E1D1B"/>
<path d="M404.411 723.277C404.415 724.521 404.172 725.753 403.696 726.902C403.22 728.051 402.521 729.094 401.64 729.972L344.635 786.982C342.856 788.751 340.449 789.744 337.941 789.744C335.432 789.744 333.025 788.751 331.246 786.982L274.271 729.972C272.502 728.192 271.51 725.786 271.51 723.277C271.51 720.768 272.502 718.362 274.271 716.582L331.276 659.572C333.055 657.803 335.462 656.811 337.97 656.811C340.479 656.811 342.886 657.803 344.665 659.572L401.67 716.582C402.546 717.462 403.239 718.507 403.71 719.656C404.18 720.805 404.419 722.035 404.411 723.277Z" fill="#1E1D1B"/>
<path d="M537.313 723.277C537.317 724.521 537.074 725.753 536.598 726.902C536.122 728.051 535.423 729.094 534.542 729.972L477.537 786.982C475.758 788.751 473.351 789.744 470.843 789.744C468.334 789.744 465.927 788.751 464.148 786.982L407.173 729.972C405.404 728.192 404.412 725.786 404.412 723.277C404.412 720.768 405.404 718.362 407.173 716.582L464.178 659.572C465.957 657.803 468.364 656.811 470.872 656.811C473.381 656.811 475.788 657.803 477.567 659.572L534.571 716.582C535.448 717.462 536.141 718.507 536.612 719.656C537.082 720.805 537.321 722.035 537.313 723.277Z" fill="#1E1D1B"/>
<path d="M670.215 723.277C670.219 724.521 669.976 725.753 669.5 726.902C669.024 728.051 668.325 729.094 667.444 729.972L610.439 786.982C608.66 788.751 606.253 789.744 603.744 789.744C601.236 789.744 598.829 788.751 597.05 786.982L540.075 729.972C538.306 728.192 537.313 725.786 537.313 723.277C537.313 720.768 538.306 718.362 540.075 716.582L597.079 659.572C598.859 657.803 601.265 656.811 603.774 656.811C606.283 656.811 608.689 657.803 610.469 659.572L667.473 716.582C668.35 717.462 669.043 718.507 669.514 719.656C669.984 720.805 670.223 722.035 670.215 723.277Z" fill="#1E1D1B"/>
<path d="M803.117 723.277C803.12 724.521 802.877 725.753 802.401 726.902C801.925 728.051 801.227 729.094 800.345 729.972L743.34 786.982C741.561 788.751 739.154 789.744 736.646 789.744C734.137 789.744 731.73 788.751 729.951 786.982L672.976 729.972C671.208 728.192 670.215 725.786 670.215 723.277C670.215 720.768 671.208 718.362 672.976 716.582L729.981 659.572C731.76 657.803 734.167 656.811 736.675 656.811C739.184 656.811 741.591 657.803 743.37 659.572L800.375 716.582C801.251 717.462 801.944 718.507 802.415 719.656C802.885 720.805 803.124 722.035 803.117 723.277Z" fill="#1E1D1B"/>
<path d="M5.70544 856.211C5.70895 857.454 5.46579 858.686 4.99005 859.835C4.51432 860.985 3.81544 862.028 2.93384 862.905L-54.0708 919.916C-55.85 921.684 -58.2567 922.677 -60.7654 922.677C-63.2741 922.677 -65.6808 921.684 -67.46 919.916L-124.435 862.905C-126.204 861.126 -127.196 858.719 -127.196 856.211C-127.196 853.702 -126.204 851.295 -124.435 849.516L-67.4303 792.505C-65.6511 790.737 -63.2444 789.744 -60.7357 789.744C-58.2271 789.744 -55.8203 790.737 -54.0412 792.505L2.96352 849.516C3.83975 850.396 4.53317 851.44 5.00377 852.589C5.47436 853.738 5.71284 854.969 5.70544 856.211Z" fill="#1E1D1B"/>
<path d="M138.607 856.211C138.611 857.454 138.368 858.686 137.892 859.835C137.416 860.985 136.717 862.028 135.836 862.905L78.831 919.916C77.0519 921.684 74.6451 922.677 72.1365 922.677C69.6278 922.677 67.2211 921.684 65.4419 919.916L8.46689 862.905C6.69828 861.126 5.70557 858.719 5.70557 856.211C5.70557 853.702 6.69828 851.295 8.46689 849.516L65.4716 792.505C67.2507 790.737 69.6575 789.744 72.1661 789.744C74.6748 789.744 77.0815 790.737 78.8607 792.505L135.865 849.516C136.742 850.396 137.435 851.44 137.906 852.589C138.376 853.738 138.615 854.969 138.607 856.211Z" fill="#1E1D1B"/>
<path d="M271.509 856.211C271.513 857.454 271.27 858.686 270.794 859.835C270.318 860.985 269.619 862.028 268.738 862.905L211.733 919.916C209.954 921.684 207.547 922.677 205.038 922.677C202.53 922.677 200.123 921.684 198.344 919.916L141.369 862.905C139.6 861.126 138.607 858.719 138.607 856.211C138.607 853.702 139.6 851.295 141.369 849.516L198.373 792.505C200.153 790.737 202.559 789.744 205.068 789.744C207.577 789.744 209.983 790.737 211.763 792.505L268.767 849.516C269.643 850.396 270.337 851.44 270.807 852.589C271.278 853.738 271.517 854.969 271.509 856.211Z" fill="#1E1D1B"/>
<path d="M404.411 856.211C404.415 857.454 404.172 858.686 403.696 859.835C403.22 860.985 402.521 862.028 401.64 862.905L344.635 919.916C342.856 921.684 340.449 922.677 337.941 922.677C335.432 922.677 333.025 921.684 331.246 919.916L274.271 862.905C272.502 861.126 271.51 858.719 271.51 856.211C271.51 853.702 272.502 851.295 274.271 849.516L331.276 792.505C333.055 790.737 335.462 789.744 337.97 789.744C340.479 789.744 342.886 790.737 344.665 792.505L401.67 849.516C402.546 850.396 403.239 851.44 403.71 852.589C404.18 853.738 404.419 854.969 404.411 856.211Z" fill="#1E1D1B"/>
<path d="M537.313 856.211C537.317 857.454 537.074 858.686 536.598 859.835C536.122 860.985 535.423 862.028 534.542 862.905L477.537 919.916C475.758 921.684 473.351 922.677 470.843 922.677C468.334 922.677 465.927 921.684 464.148 919.916L407.173 862.905C405.404 861.126 404.412 858.719 404.412 856.211C404.412 853.702 405.404 851.295 407.173 849.516L464.178 792.505C465.957 790.737 468.364 789.744 470.872 789.744C473.381 789.744 475.788 790.737 477.567 792.505L534.571 849.516C535.448 850.396 536.141 851.44 536.612 852.589C537.082 853.738 537.321 854.969 537.313 856.211Z" fill="#1E1D1B"/>
<path d="M670.215 856.211C670.219 857.454 669.976 858.686 669.5 859.835C669.024 860.985 668.325 862.028 667.444 862.905L610.439 919.916C608.66 921.684 606.253 922.677 603.744 922.677C601.236 922.677 598.829 921.684 597.05 919.916L540.075 862.905C538.306 861.126 537.313 858.719 537.313 856.211C537.313 853.702 538.306 851.295 540.075 849.516L597.079 792.505C598.859 790.737 601.265 789.744 603.774 789.744C606.283 789.744 608.689 790.737 610.469 792.505L667.473 849.516C668.35 850.396 669.043 851.44 669.514 852.589C669.984 853.738 670.223 854.969 670.215 856.211Z" fill="#1E1D1B"/>
<path d="M803.117 856.211C803.121 857.454 802.877 858.686 802.402 859.835C801.926 860.985 801.227 862.028 800.345 862.905L743.341 919.916C741.562 921.684 739.155 922.677 736.646 922.677C734.138 922.677 731.731 921.684 729.952 919.916L672.977 862.905C671.208 861.126 670.215 858.719 670.215 856.211C670.215 853.702 671.208 851.295 672.977 849.516L729.981 792.505C731.76 790.737 734.167 789.744 736.676 789.744C739.185 789.744 741.591 790.737 743.37 792.505L800.375 849.516C801.251 850.396 801.945 851.44 802.415 852.589C802.886 853.738 803.124 854.969 803.117 856.211Z" fill="#1E1D1B"/>
<path d="M5.70544 989.142C5.70895 990.386 5.46579 991.618 4.99005 992.767C4.51432 993.916 3.81544 994.96 2.93384 995.837L-54.0708 1052.85C-55.85 1054.62 -58.2567 1055.61 -60.7654 1055.61C-63.2741 1055.61 -65.6808 1054.62 -67.46 1052.85L-124.435 995.837C-126.204 994.058 -127.196 991.651 -127.196 989.142C-127.196 986.634 -126.204 984.227 -124.435 982.448L-67.4303 925.437C-65.6511 923.668 -63.2444 922.676 -60.7357 922.676C-58.2271 922.676 -55.8203 923.668 -54.0412 925.437L2.96352 982.448C3.83975 983.327 4.53317 984.372 5.00377 985.521C5.47436 986.67 5.71284 987.901 5.70544 989.142Z" fill="#1E1D1B"/>
<path d="M138.608 989.142C138.611 990.386 138.368 991.618 137.892 992.767C137.417 993.916 136.718 994.96 135.836 995.837L78.8315 1052.85C77.0523 1054.62 74.6456 1055.61 72.1369 1055.61C69.6283 1055.61 67.2215 1054.62 65.4424 1052.85L8.46737 995.837C6.69877 994.058 5.70605 991.651 5.70605 989.142C5.70605 986.634 6.69877 984.227 8.46737 982.448L65.4721 925.437C67.2512 923.668 69.658 922.676 72.1666 922.676C74.6753 922.676 77.082 923.668 78.8612 925.437L135.866 982.448C136.742 983.327 137.436 984.372 137.906 985.521C138.377 986.67 138.615 987.901 138.608 989.142Z" fill="#1E1D1B"/>
<path d="M271.509 989.142C271.513 990.386 271.27 991.618 270.794 992.767C270.318 993.916 269.619 994.96 268.738 995.837L211.733 1052.85C209.954 1054.62 207.547 1055.61 205.038 1055.61C202.53 1055.61 200.123 1054.62 198.344 1052.85L141.369 995.837C139.6 994.058 138.607 991.651 138.607 989.142C138.607 986.634 139.6 984.227 141.369 982.448L198.373 925.437C200.153 923.668 202.559 922.676 205.068 922.676C207.577 922.676 209.983 923.668 211.763 925.437L268.767 982.448C269.643 983.327 270.337 984.372 270.807 985.521C271.278 986.67 271.517 987.901 271.509 989.142Z" fill="#1E1D1B"/>
<path d="M404.411 989.142C404.415 990.386 404.172 991.618 403.696 992.767C403.22 993.916 402.521 994.96 401.64 995.837L344.635 1052.85C342.856 1054.62 340.449 1055.61 337.941 1055.61C335.432 1055.61 333.025 1054.62 331.246 1052.85L274.271 995.837C272.502 994.058 271.51 991.651 271.51 989.142C271.51 986.634 272.502 984.227 274.271 982.448L331.276 925.437C333.055 923.668 335.462 922.676 337.97 922.676C340.479 922.676 342.886 923.668 344.665 925.437L401.67 982.448C402.546 983.327 403.239 984.372 403.71 985.521C404.18 986.67 404.419 987.901 404.411 989.142Z" fill="#1E1D1B"/>
<path d="M537.313 989.142C537.317 990.386 537.074 991.618 536.598 992.767C536.122 993.916 535.423 994.96 534.542 995.837L477.537 1052.85C475.758 1054.62 473.351 1055.61 470.843 1055.61C468.334 1055.61 465.927 1054.62 464.148 1052.85L407.173 995.837C405.404 994.058 404.412 991.651 404.412 989.142C404.412 986.634 405.404 984.227 407.173 982.448L464.178 925.437C465.957 923.668 468.364 922.676 470.872 922.676C473.381 922.676 475.788 923.668 477.567 925.437L534.571 982.448C535.448 983.327 536.141 984.372 536.612 985.521C537.082 986.67 537.321 987.901 537.313 989.142Z" fill="#1E1D1B"/>
<path d="M670.215 989.142C670.219 990.386 669.976 991.618 669.5 992.767C669.024 993.916 668.325 994.96 667.444 995.837L610.439 1052.85C608.66 1054.62 606.253 1055.61 603.744 1055.61C601.236 1055.61 598.829 1054.62 597.05 1052.85L540.075 995.837C538.306 994.058 537.313 991.651 537.313 989.142C537.313 986.634 538.306 984.227 540.075 982.448L597.079 925.437C598.859 923.668 601.265 922.676 603.774 922.676C606.283 922.676 608.689 923.668 610.469 925.437L667.473 982.448C668.35 983.327 669.043 984.372 669.514 985.521C669.984 986.67 670.223 987.901 670.215 989.142Z" fill="#1E1D1B"/>
<path d="M803.117 989.142C803.12 990.386 802.877 991.618 802.401 992.767C801.925 993.916 801.227 994.96 800.345 995.837L743.34 1052.85C741.561 1054.62 739.154 1055.61 736.646 1055.61C734.137 1055.61 731.73 1054.62 729.951 1052.85L672.976 995.837C671.208 994.058 670.215 991.651 670.215 989.142C670.215 986.634 671.208 984.227 672.976 982.448L729.981 925.437C731.76 923.668 734.167 922.676 736.675 922.676C739.184 922.676 741.591 923.668 743.37 925.437L800.375 982.448C801.251 983.327 801.944 984.372 802.415 985.521C802.885 986.67 803.124 987.901 803.117 989.142Z" fill="#1E1D1B"/>
</g>
<defs>
<clipPath id="clip0_90_677">
<rect width="675" height="1050" rx="18.9" fill="white"/>
</clipPath>
</defs>
</svg>
